<svg width="215" height="237" viewBox="0 0 215 237" fill="none" xmlns="http://www.w3.org/2000/svg">
<g clip-path="url(#clip0_149_319)">
<path d="M10.0832 75.914C10.0832 75.914 28.1433 9.56012 96.7475 1.19278C165.352 -7.17456 254.687 68.6114 194.28 171.254C144.391 256.047 50.2895 209.097 23.0369 171.754C3.71144 145.237 0.93566 97.942 10.0832 75.914Z" fill="#26E9DC"/>
<path d="M87.5248 144.367C87.5248 144.367 62.3377 174.643 64.2783 204.378C65.4136 221.658 71.9104 236.558 71.9104 236.558H138.789C138.789 236.558 150.793 189.118 121.434 148.036C104.299 124.059 87.5248 144.367 87.5248 144.367Z" fill="#FF7F00"/>
<path opacity="0.3" d="M126.061 155.124C124.645 152.75 123.11 150.38 121.434 148.036C104.3 124.044 87.525 144.367 87.525 144.367C87.525 144.367 85.3594 146.966 82.3535 151.365C96.0924 157.428 111.667 159.457 126.061 155.124Z" fill="#352C38"/>
<path d="M98.0427 28.944C98.0427 28.944 82.1883 24.6903 74.7012 44.0592C67.2141 63.428 82.4783 79.5479 82.4783 79.5479C82.4783 79.5479 75.1413 67.5167 75.2863 59.1494C75.2863 59.1494 80.2877 72.945 90.9957 68.5414C101.704 64.1378 98.0427 28.944 98.0427 28.944Z" fill="#EFCCAF"/>
<path d="M75.1414 65.3324L86.5896 62.9832" stroke="#765E69" stroke-width="1.4" stroke-miterlimit="10"/>
<path d="M95.7922 83.1067C95.7922 83.1067 98.9231 95.8227 96.1823 100.911C93.4416 105.999 116.343 98.5618 116.343 98.5618C116.343 98.5618 114.387 82.7169 116.148 74.4995C117.908 66.2821 95.7922 83.1067 95.7922 83.1067Z" fill="#F19C7C"/>
<path d="M105.385 36.1217C105.385 36.1217 81.7931 31.4282 81.0129 55.4905C80.2327 79.5529 95.2019 94.823 107.35 86.8056C119.499 78.7881 119.854 69.0012 120.854 61.3737C121.854 53.7461 118.108 38.4809 105.385 36.1217Z" fill="#FFAC9D"/>
<path d="M117.713 62.3484C117.713 62.3484 120.649 54.7208 125.35 56.2853C130.052 57.8498 126.721 74.2796 118.889 70.1759C111.056 66.0722 117.713 62.3484 117.713 62.3484Z" fill="#FFAC9D"/>
<path d="M90.8458 64.1578C91.0659 65.8422 90.7208 67.2768 90.0806 67.3618C89.4404 67.4467 88.7352 66.1471 88.5152 64.4627C88.2951 62.7782 88.6352 61.3387 89.2804 61.2537C89.9256 61.1687 90.6308 62.4683 90.8458 64.1578Z" fill="#352C38"/>
<path d="M107.586 61.8085C107.806 63.498 107.466 64.9325 106.82 65.0175C106.175 65.1025 105.48 63.7979 105.255 62.1134C105.03 60.429 105.38 58.9894 106.02 58.9045C106.66 58.8195 107.35 60.1141 107.586 61.8085Z" fill="#352C38"/>
<path d="M93.6365 61.5186C93.8248 61.9383 93.9722 62.3752 94.0766 62.8232C94.1881 63.2688 94.27 63.7213 94.3216 64.1778C94.3517 64.4077 94.3617 64.6376 94.3767 64.8726C94.3892 65.104 94.3892 65.3359 94.3767 65.5673C94.3767 65.7973 94.3767 66.0322 94.3417 66.2621C94.3066 66.492 94.3116 66.732 94.2666 66.9619L94.1416 67.6567C94.0916 67.8866 94.0166 68.1115 93.9565 68.3415C93.8932 68.5697 93.8147 68.7935 93.7215 69.0112C93.6372 69.2348 93.5403 69.4534 93.4314 69.666C93.3214 69.876 93.2013 70.0809 93.0863 70.2858C92.9713 70.4908 92.8112 70.6807 92.6762 70.8756C92.5418 71.0724 92.3858 71.2534 92.2111 71.4155L91.7109 71.9153L91.6209 71.2855C91.986 71.5504 92.3561 71.7854 92.7112 72.0903C93.0663 72.3952 93.4264 72.6501 93.7715 72.96C93.3314 72.825 92.9012 72.6751 92.4761 72.5051C92.051 72.3352 91.6409 72.1652 91.2208 72.0053L90.8057 71.8303L91.1308 71.3705L91.5009 70.8706C91.6259 70.7011 91.7379 70.5223 91.836 70.3358C91.936 70.1509 92.056 69.9809 92.146 69.791C92.2361 69.601 92.3111 69.4011 92.4061 69.2162C92.5011 69.0312 92.5512 68.8213 92.6312 68.6264C92.7136 68.432 92.7805 68.2315 92.8312 68.0266C92.8913 67.8266 92.9613 67.6267 93.0113 67.4167L93.1513 66.7969C93.2313 66.3771 93.3264 65.9572 93.3664 65.5223C93.3914 65.3074 93.4314 65.0975 93.4464 64.8775C93.4614 64.6576 93.4964 64.4427 93.5064 64.2278C93.5514 63.7879 93.5664 63.348 93.5864 62.9032C93.6064 62.4583 93.6365 61.9785 93.6365 61.5186Z" fill="#FC6A5A"/>
<path d="M95.8472 76.7788C95.8472 76.7788 103.479 68.2815 107.736 75.0193L95.8472 76.7788Z" fill="white"/>
<path d="M104.209 25.8649C104.209 25.8649 96.2822 19.1171 103.914 12.0743C111.547 5.03157 129.752 16.6229 124.175 25.8649C118.599 35.107 110.961 28.2142 110.961 28.2142C110.961 28.2142 120.649 32.3229 123.465 25.8649C128.181 14.9484 120.234 12.8091 120.234 12.8091C120.234 12.8091 130.357 14.4186 127.406 26.0099C123.995 39.4756 110.816 31.7331 110.816 31.7331L104.209 25.8649Z" fill="#EFCCAF"/>
<path d="M120.125 32.7919C121.043 29.0944 117.427 25.0163 112.049 23.6831C106.671 22.35 101.567 24.2668 100.65 27.9643C99.7322 31.6618 103.348 35.7399 108.726 37.073C114.104 38.4062 119.208 36.4894 120.125 32.7919Z" fill="#765E69"/>
<path d="M92.4611 42.4447C92.4611 42.4447 95.402 60.344 112.432 62.3983C108.773 60.8932 105.501 58.5838 102.857 55.6418C100.214 52.6997 98.2675 49.2005 97.1625 45.4037C97.1625 45.4037 103.914 61.8385 115.218 61.8385L109.496 53.7661C109.496 53.7661 123.145 64.3327 116.248 85.606C116.248 85.606 123.88 75.6091 120.209 58.4646C120.209 58.4646 123.585 53.7661 126.671 57.4349C126.671 57.4349 135.333 37.4813 116.393 28.2392C101.409 20.8965 90.8457 27.6244 92.4611 42.4447Z" fill="#FDDEC0"/>
<path d="M87.5062 73.2336C91.6081 72.6539 94.2743 67.527 93.4615 61.7824C92.6486 56.0377 88.6644 51.8507 84.5626 52.4305C80.4607 53.0102 77.7945 58.1371 78.6073 63.8817C79.4202 69.6264 83.4043 73.8134 87.5062 73.2336Z" stroke="#765E69" stroke-width="1.39979" stroke-miterlimit="10"/>
<path d="M108.435 71.0646C113.399 70.3833 116.782 65.1707 115.992 59.422C115.202 53.6733 110.538 49.5654 105.574 50.2467C100.61 50.9281 97.2261 56.1407 98.0161 61.8894C98.8061 67.6381 103.471 71.746 108.435 71.0646Z" stroke="#765E69" stroke-width="1.4" stroke-miterlimit="10"/>
<path d="M93.3464 63.7179C93.3464 63.7179 95.1069 60.219 98.4829 63.573" stroke="#765E69" stroke-width="1.4" stroke-miterlimit="10"/>
<path d="M115.953 59.0244L124.47 57.5549" stroke="#765E69" stroke-width="1.4" stroke-miterlimit="10"/>
<path opacity="0.5" d="M126.671 57.4099C126.27 56.9063 125.756 56.504 125.17 56.2353C124.347 55.9958 123.467 56.038 122.67 56.3553C121.244 57.025 120.349 59.1444 120.349 59.1444C121.209 62.9734 121.457 66.9142 121.084 70.8207C126.501 71.1306 128.932 60.9838 126.691 57.3999L126.671 57.4099Z" fill="#FFAC9D"/>
<path d="M122.12 67.6817C122.305 67.3429 122.472 66.9942 122.62 66.637C122.77 66.3021 122.875 65.9493 122.935 65.5873C122.973 65.4485 122.98 65.3029 122.955 65.1611C122.93 65.0193 122.873 64.8849 122.79 64.7676C122.584 64.5842 122.32 64.4812 122.045 64.4777L121.649 64.4377V63.9828C121.649 63.413 121.714 62.8682 121.769 62.3084C121.832 61.7518 121.928 61.1994 122.055 60.6539C122.176 60.082 122.36 59.5255 122.605 58.9944C122.737 58.7029 122.905 58.4292 123.105 58.1797C123.36 57.858 123.725 57.6424 124.13 57.5749C124.242 57.5649 124.354 57.5649 124.465 57.5749L124.62 57.6049H124.695H124.735H124.805C124.939 57.6609 125.069 57.7243 125.195 57.7948C125.518 57.9971 125.776 58.2888 125.936 58.6345C126.008 58.7827 126.064 58.9386 126.101 59.0994C126.145 59.2492 126.174 59.4033 126.186 59.5592C126.21 59.708 126.221 59.8584 126.221 60.0091C126.231 60.1539 126.231 60.2992 126.221 60.444C126.181 61.01 126.079 61.57 125.916 62.1134C125.764 62.6452 125.568 63.1635 125.33 63.6629C125.39 63.1181 125.44 62.5733 125.475 62.0334C125.516 61.5077 125.516 60.9797 125.475 60.4539C125.475 60.324 125.445 60.199 125.43 60.0791C125.417 59.9554 125.391 59.8333 125.355 59.7142C125.333 59.6007 125.297 59.4901 125.25 59.3843C125.215 59.2816 125.167 59.1841 125.105 59.0944C125.019 58.9534 124.905 58.8311 124.77 58.7345C124.655 58.6783 124.537 58.6299 124.415 58.5895H124.475H124.395H124.32C124.192 58.6402 124.08 58.727 124 58.8395C123.864 59.0137 123.751 59.2053 123.665 59.4093C123.462 59.8759 123.295 60.3571 123.165 60.8488C123.03 61.3487 122.935 61.8485 122.83 62.3983C122.725 62.9482 122.66 63.453 122.58 63.9678L122.185 63.468C122.416 63.5189 122.639 63.5995 122.85 63.7079C123.089 63.8291 123.291 64.0121 123.435 64.2377C123.568 64.4645 123.634 64.7246 123.625 64.9875C123.621 65.2146 123.579 65.4394 123.5 65.6523C123.352 66.0362 123.152 66.3978 122.905 66.727C122.675 67.0701 122.412 67.3899 122.12 67.6817Z" fill="#FC6A5A"/>
<path d="M27.663 131.631L24.3671 126.913C24.3671 126.913 18.1353 128.172 15.3146 130.717C12.4938 133.261 7.10725 135.38 7.54738 136.715C7.9875 138.049 17.4251 133.936 17.4251 133.936L27.663 131.631Z" fill="#F19C7C"/>
<path d="M73.966 101.281C73.966 101.281 62.4077 127.773 56.6861 142.833C50.8295 139.499 27.568 126.388 24.3671 126.913C20.701 127.513 17.9102 130.122 15.9497 133.751C15.9497 133.751 10.7732 139.174 9.70795 140.793C9.70795 140.793 4.87659 139.439 2.4059 142.598C2.4059 142.598 4.09638 142.803 6.03192 142.998C3.8213 143.238 1.59568 143.887 0.68042 145.352C0.68042 145.352 10.3831 144.722 11.8686 144.072C13.354 143.423 19.5457 141.573 26.1326 136.885C26.5727 136.57 35.1351 143.593 42.7972 150.03C41.5224 149.27 40.3174 148.399 39.1962 147.426C42.002 150.02 47.9637 155.349 53.5402 159.128L54.9106 160.297L54.9556 160.057C59.0268 162.646 62.7178 164.181 64.5683 162.901C76.9018 154.404 91.876 116.541 91.876 116.541L73.966 101.281Z" fill="#FFAC9D"/>
<path d="M39.1964 147.426C38.1661 146.472 37.5559 145.882 37.5559 145.882C37.5559 145.882 38.1761 146.542 39.1964 147.426Z" fill="#FFAC9D"/>
<path d="M84.6941 132.771C88.9853 123.854 91.8761 116.541 91.8761 116.541L73.9661 101.281C73.9661 101.281 69.4648 111.568 64.7185 122.959C71.0903 126.883 77.6621 130.532 84.6941 132.771Z" fill="#F19C7C"/>
<path d="M18.0803 141.133C17.5201 141.133 16.96 141.133 16.3998 141.133C15.8396 141.133 15.2845 141.133 14.7243 141.108C14.1642 141.083 13.604 141.068 13.0439 141.038C12.4751 141.01 11.9088 140.944 11.3484 140.843L11.1233 140.783C11.0683 140.766 11.0161 140.741 10.9683 140.708L10.9183 140.663L10.8883 140.613V140.588C10.8856 140.559 10.8856 140.528 10.8883 140.499C10.8856 140.467 10.8856 140.435 10.8883 140.404V140.349C10.8986 140.319 10.912 140.29 10.9283 140.264C10.9546 140.221 10.9847 140.181 11.0183 140.144C11.0716 140.082 11.1301 140.025 11.1933 139.974C11.4274 139.795 11.6768 139.638 11.9386 139.504C12.4457 139.237 12.9764 139.018 13.524 138.849C14.6075 138.497 15.736 138.302 16.8749 138.269L16.7449 138.329C17.3751 137.749 18.0253 137.2 18.7055 136.68C18.8755 136.55 19.0556 136.43 19.2056 136.31C19.3556 136.19 19.5557 136.07 19.7407 135.96C19.9258 135.85 20.0958 135.725 20.2909 135.63L20.8611 135.345L20.3309 135.695C20.1509 135.805 19.9908 135.95 19.8308 136.07C19.4907 136.32 19.1806 136.61 18.8555 136.875C18.2153 137.424 17.5951 138.009 17.01 138.609L16.96 138.664H16.8799C15.7822 138.723 14.6982 138.935 13.659 139.294C13.1465 139.469 12.6453 139.676 12.1586 139.914C11.9203 140.027 11.6941 140.165 11.4834 140.324C11.4357 140.357 11.392 140.395 11.3534 140.439L11.3184 140.484C11.3215 140.469 11.3215 140.453 11.3184 140.439C11.3184 140.439 11.3184 140.399 11.3184 140.404C11.3184 140.404 11.2734 140.324 11.3184 140.359H11.3534L11.5284 140.409C12.0286 140.524 12.6137 140.568 13.1589 140.633C13.704 140.698 14.2692 140.748 14.8244 140.798L18.0803 141.133Z" fill="#FC6A5A"/>
<path d="M17.1951 141.648C16.6349 141.948 16.0698 142.233 15.4846 142.488C14.8995 142.743 14.3343 143.033 13.7341 143.253C13.1341 143.5 12.5084 143.679 11.8686 143.787H11.6085L11.3385 143.752L10.8683 143.673C10.5582 143.608 10.2531 143.588 9.94306 143.543C9.32789 143.463 8.68771 143.408 8.06254 143.343L6.17201 143.168L2.38594 142.798L1.97583 142.763L2.2409 142.458C2.35366 142.325 2.47566 142.199 2.60601 142.083C2.73104 141.968 2.87108 141.863 3.00112 141.758C3.27449 141.558 3.56388 141.381 3.86636 141.228C4.01539 141.149 4.16904 141.079 4.32649 141.018C4.47947 140.95 4.63648 140.892 4.79662 140.843C4.96037 140.785 5.12737 140.737 5.29676 140.698L5.7969 140.583C6.12726 140.521 6.46144 140.481 6.79718 140.464C6.96223 140.464 7.12727 140.464 7.29732 140.464H7.79746C8.12755 140.464 8.45765 140.534 8.79774 140.568C9.13784 140.603 9.44292 140.708 9.76301 140.778L8.76273 140.658C8.43264 140.658 8.10755 140.613 7.76245 140.628H7.26231C7.10227 140.628 6.93722 140.663 6.76217 140.683C6.44281 140.718 6.12557 140.769 5.8119 140.838L5.34677 140.973C5.19157 141.016 5.03949 141.07 4.89165 141.133C4.74114 141.186 4.59413 141.247 4.45152 141.318C4.30581 141.384 4.16388 141.457 4.0264 141.538C3.75598 141.704 3.49699 141.888 3.25119 142.088C3.12443 142.181 3.00412 142.283 2.89109 142.393C2.77692 142.494 2.66996 142.602 2.571 142.718L2.42095 142.378C3.68631 142.478 4.95166 142.578 6.21702 142.693L8.10755 142.893C8.74273 142.973 9.3629 143.033 10.0081 143.128C10.3232 143.178 10.6533 143.208 10.9583 143.278L11.4235 143.378L11.6285 143.418H11.8236C12.439 143.339 13.0442 143.194 13.6291 142.988C14.2243 142.788 14.8094 142.543 15.4046 142.333C15.9998 142.123 16.6049 141.883 17.1951 141.648Z" fill="#FC6A5A"/>
<path d="M12.0487 143.962C11.6003 144.131 11.1428 144.275 10.6783 144.392C10.4471 144.463 10.2115 144.518 9.97311 144.557C9.73804 144.602 9.47297 144.652 9.25791 144.677C8.31264 144.792 7.36238 144.927 6.41211 145.022L3.56131 145.322C2.60604 145.412 1.65578 145.487 0.700509 145.567L0.275391 145.607L0.495452 145.247C0.577757 145.126 0.66798 145.011 0.765528 144.902C0.860554 144.797 0.960583 144.707 1.06061 144.607C1.26631 144.427 1.48349 144.26 1.71079 144.107L2.42099 143.712C2.54146 143.649 2.66691 143.596 2.7961 143.553L3.1712 143.403C3.29624 143.358 3.42127 143.303 3.54631 143.263L3.93642 143.163L4.72164 142.983C4.85167 142.953 4.98671 142.953 5.11675 142.933L5.51186 142.893L6.30708 142.818L5.52686 142.988L5.14175 143.068C5.01135 143.086 4.88258 143.114 4.75665 143.153L4.01144 143.398L3.63633 143.518C3.5163 143.563 3.40127 143.623 3.28123 143.678L2.92613 143.837C2.80719 143.888 2.69188 143.946 2.58104 144.012C2.36098 144.152 2.14091 144.287 1.93086 144.427C1.7208 144.567 1.52074 144.737 1.34569 144.927L1.08062 145.197C1.0106 145.292 0.920571 145.397 0.870557 145.482L0.665499 145.162C1.61577 145.062 2.56603 144.957 3.5163 144.867L6.3721 144.587C7.32237 144.497 8.28263 144.452 9.2329 144.387C9.47797 144.387 9.70303 144.332 9.9381 144.317C10.1747 144.299 10.4102 144.267 10.6433 144.222C11.1134 144.162 11.5836 144.087 12.0487 143.962Z" fill="#FC6A5A"/>
<path d="M86.8847 95.7027C86.8847 95.7027 77.6171 88.7899 71.3254 99.5215C66.324 108.019 61.9277 117.711 61.9277 117.711C61.9277 117.711 73.9661 127.708 83.0687 125.928C92.1712 124.149 93.0715 99.5215 93.0715 99.5215L86.8847 95.7027Z" fill="#11111F"/>
<path opacity="0.5" d="M81.6732 114.982C75.535 116.734 69.2456 117.905 62.8879 118.48C65.9138 120.765 75.5015 127.408 83.0686 125.943C87.7849 125.033 90.2956 117.971 91.616 111.378C88.3969 112.827 85.0732 114.031 81.6732 114.982Z" fill="#4E7FA8"/>
<path d="M185.082 131.631L188.383 126.913C188.383 126.913 194.61 128.172 197.431 130.717C200.252 133.261 205.638 135.38 205.203 136.715C204.768 138.049 195.32 133.936 195.32 133.936L185.082 131.631Z" fill="#F19C7C"/>
<path d="M138.784 101.281C138.784 101.281 150.338 127.773 156.064 142.833C161.916 139.499 185.177 126.388 188.383 126.913C192.049 127.513 194.84 130.122 196.796 133.751C196.796 133.751 201.977 139.174 203.037 140.793C203.037 140.793 207.874 139.439 210.344 142.598C210.344 142.598 208.654 142.803 206.718 142.998C208.924 143.238 211.15 143.887 212.065 145.352C212.065 145.352 202.367 144.722 200.877 144.072C199.386 143.423 193.2 141.573 186.618 136.885C186.178 136.57 177.615 143.593 169.948 150.03C171.224 149.271 172.429 148.4 173.549 147.426C170.743 150.02 164.782 155.349 159.21 159.128L157.865 160.297L157.82 160.057C153.749 162.646 150.057 164.181 148.202 162.901C135.868 154.404 120.894 116.541 120.894 116.541L138.784 101.281Z" fill="#FFAC9D"/>
<path d="M173.549 147.426C174.584 146.472 175.19 145.882 175.19 145.882C175.19 145.882 174.574 146.542 173.549 147.426Z" fill="#FFAC9D"/>
<path d="M128.051 132.771C123.765 123.854 120.854 116.541 120.854 116.541L138.769 101.281C138.769 101.281 143.271 111.568 148.017 122.959C141.66 126.883 135.083 130.532 128.051 132.771Z" fill="#F19C7C"/>
<path d="M194.665 141.133L198.006 140.833C198.561 140.783 199.121 140.733 199.671 140.668C200.222 140.603 200.787 140.558 201.302 140.444C201.361 140.431 201.42 140.414 201.477 140.394H201.512C201.537 140.359 201.482 140.449 201.487 140.439C201.487 140.439 201.487 140.439 201.487 140.474C201.484 140.488 201.484 140.504 201.487 140.518L201.447 140.474C201.41 140.43 201.368 140.392 201.322 140.359C201.11 140.201 200.884 140.063 200.647 139.949C200.159 139.713 199.658 139.506 199.146 139.329C198.107 138.971 197.023 138.759 195.925 138.699H195.845L195.79 138.644C195.205 138.044 194.59 137.459 193.95 136.91C193.625 136.645 193.315 136.355 192.949 136.105C192.779 135.985 192.619 135.84 192.449 135.73L191.919 135.38L192.489 135.665C192.684 135.76 192.854 135.885 193.039 135.995C193.225 136.105 193.4 136.22 193.575 136.345C193.75 136.47 193.93 136.585 194.075 136.715C194.755 137.215 195.405 137.784 196.04 138.364L195.905 138.304C197.046 138.336 198.176 138.531 199.261 138.884C199.807 139.054 200.336 139.273 200.842 139.539C201.104 139.672 201.354 139.829 201.587 140.009C201.651 140.061 201.711 140.118 201.767 140.179C201.8 140.215 201.829 140.255 201.852 140.299C201.87 140.324 201.884 140.353 201.892 140.384V140.439C201.897 140.47 201.897 140.502 201.892 140.534C201.897 140.563 201.897 140.594 201.892 140.623V140.648L201.862 140.698L201.812 140.743C201.767 140.777 201.716 140.802 201.662 140.818L201.432 140.878C200.873 140.979 200.308 141.045 199.741 141.073C199.181 141.103 198.621 141.123 198.061 141.143C197.501 141.163 196.941 141.173 196.38 141.168C195.82 141.163 195.225 141.153 194.665 141.133Z" fill="#FC6A5A"/>
<path d="M195.555 141.648C196.145 141.883 196.731 142.148 197.326 142.338C197.921 142.528 198.506 142.793 199.106 142.993C199.691 143.199 200.296 143.344 200.912 143.423H201.122L201.322 143.383L201.787 143.283C202.097 143.213 202.422 143.183 202.742 143.133C203.382 143.038 204.003 142.978 204.638 142.898L206.533 142.698C207.794 142.583 209.059 142.483 210.324 142.383L210.174 142.723C210.077 142.607 209.972 142.499 209.859 142.398C209.743 142.289 209.621 142.188 209.494 142.093C209.243 141.899 208.979 141.722 208.704 141.563C208.564 141.483 208.424 141.408 208.279 141.343C208.135 141.271 207.986 141.21 207.834 141.158C207.687 141.095 207.537 141.042 207.384 140.998L206.918 140.863C206.603 140.794 206.284 140.742 205.963 140.708C205.803 140.708 205.643 140.658 205.463 140.653H204.963C204.638 140.653 204.313 140.678 203.963 140.683L202.962 140.803C203.282 140.733 203.602 140.648 203.928 140.594C204.253 140.539 204.583 140.494 204.928 140.489H205.428C205.593 140.489 205.758 140.489 205.928 140.489C206.264 140.506 206.598 140.546 206.928 140.608L207.429 140.723C207.752 140.81 208.069 140.917 208.379 141.043C208.537 141.103 208.69 141.173 208.839 141.253C209.142 141.405 209.432 141.582 209.704 141.783C209.839 141.888 209.974 141.993 210.099 142.108C210.231 142.224 210.355 142.349 210.469 142.483L210.729 142.788L210.319 142.823L206.538 143.193L204.643 143.368C204.018 143.433 203.377 143.488 202.767 143.568C202.457 143.613 202.147 143.633 201.837 143.698L201.367 143.777L201.102 143.812H200.837C200.197 143.703 199.571 143.524 198.971 143.278C198.376 143.058 197.801 142.778 197.221 142.513C196.64 142.248 196.115 141.948 195.555 141.648Z" fill="#FC6A5A"/>
<path d="M200.697 143.962C201.167 144.067 201.632 144.162 202.102 144.242C202.335 144.286 202.571 144.318 202.807 144.337C203.042 144.337 203.272 144.397 203.512 144.407C204.468 144.472 205.423 144.517 206.373 144.607L209.234 144.847C210.184 144.937 211.134 145.042 212.085 145.142L211.88 145.462C211.83 145.377 211.735 145.272 211.665 145.177L211.405 144.907C211.224 144.727 211.009 144.587 210.819 144.407L210.169 143.992C210.057 143.926 209.94 143.868 209.819 143.817L209.469 143.658C209.349 143.603 209.234 143.543 209.109 143.498L208.739 143.378L207.989 143.133C207.863 143.094 207.734 143.066 207.603 143.048L207.218 142.968L206.443 142.798L207.233 142.873L207.633 142.913C207.764 142.913 207.899 142.913 208.029 142.963L208.809 143.143L209.199 143.243C209.329 143.283 209.449 143.338 209.579 143.383L209.954 143.533C210.082 143.576 210.206 143.629 210.324 143.692C210.564 143.822 210.824 143.952 211.039 144.087C211.266 144.241 211.483 144.408 211.69 144.587C211.785 144.687 211.89 144.777 211.985 144.882C212.081 144.991 212.169 145.106 212.25 145.227L212.47 145.587L212.045 145.547C211.094 145.467 210.139 145.392 209.189 145.302L206.338 145.002C205.383 144.907 204.438 144.772 203.487 144.657C203.252 144.632 202.987 144.582 202.772 144.537C202.534 144.497 202.298 144.442 202.067 144.372C201.603 144.261 201.146 144.124 200.697 143.962Z" fill="#FC6A5A"/>
<path d="M125.856 95.7027C125.856 95.7027 135.128 88.7899 141.42 99.5215C146.421 108.019 150.818 117.711 150.818 117.711C150.818 117.711 138.779 127.708 129.677 125.928C120.574 124.149 119.674 99.5215 119.674 99.5215L125.856 95.7027Z" fill="#11111F"/>
<path opacity="0.5" d="M131.077 114.982C137.213 116.734 143.501 117.905 149.857 118.48C146.856 120.765 137.249 127.408 129.682 125.943C124.96 125.033 122.455 117.971 121.129 111.378C124.35 112.827 127.675 114.032 131.077 114.982Z" fill="#4E7FA8"/>
<path d="M94.2268 91.3042C94.2268 91.3042 103.619 88.3701 116.833 88.3701C116.833 88.3701 115.953 95.9977 118.009 95.9977C120.064 95.9977 130.357 90.4244 136.799 95.1029C143.241 99.7815 129.462 120.045 129.462 120.045C129.462 120.045 139.149 137.36 124.76 143.228L123.88 149.391C123.88 149.391 103.619 157.413 81.8684 148.511L79.8428 139.134L85.1293 142.363C85.1293 142.363 79.4577 145.727 75.1665 137.405C71.9856 131.246 79.2576 117.711 79.2576 117.711C79.2576 117.711 67.8044 101.866 74.8514 96.2926C81.8984 90.7193 92.6364 99.9764 93.6417 97.4672C94.2268 95.9977 94.2268 91.3042 94.2268 91.3042Z" fill="#11111F"/>
<path opacity="0.5" d="M108.311 146.217C93.0265 146.447 89.6905 145.447 80.708 143.123L81.8933 148.526C103.619 157.428 123.905 149.406 123.905 149.406L124.785 143.243C126.946 142.353 116.208 146.087 108.311 146.217Z" fill="#11111F"/>
</g>
<defs>
<clipPath id="clip0_149_319">
<rect width="214" height="236" fill="white" transform="translate(0.275391 0.557983)"/>
</clipPath>
</defs>
</svg>
