<svg width="261" height="267" viewBox="0 0 261 267" fill="none" xmlns="http://www.w3.org/2000/svg">
<path d="M233.99 109.403C227.904 101.951 176.934 37.4738 114.332 56.1301C87.5809 64.1071 67.0773 88.2586 59.0304 114.937C57.4847 120.057 56.3546 125.416 53.4775 129.926C50.5354 134.553 46.0087 137.903 41.7871 141.435C33.5021 148.419 26.1836 156.471 20.0236 165.379C15.5683 171.859 11.678 178.877 10.2816 186.588C7.73574 200.844 14.4252 215.749 25.2908 225.352C36.1563 234.956 50.6199 240.172 65.0769 241.144C93.7443 243.088 141.227 237.995 157.665 234.982C211.356 225.151 239.835 194.481 247.096 166.694C252.272 146.897 246.907 125.267 233.99 109.403Z" fill="#1ADDD0"/>
<path d="M67.8466 127.165C72.6146 118.374 69.3372 107.391 60.5264 102.633C51.7156 97.8759 40.7078 101.146 35.9398 109.937C31.1718 118.728 34.4492 129.711 43.26 134.469C52.0709 139.226 63.0787 135.956 67.8466 127.165Z" fill="url(#paint0_linear_150_812)"/>
<path d="M66.6521 124.49C69.9497 116.355 66.0131 107.093 57.8597 103.803C49.7062 100.513 40.4233 104.44 37.1257 112.576C33.8282 120.711 37.7647 129.973 45.9182 133.263C54.0717 136.553 63.3546 132.626 66.6521 124.49Z" fill="url(#paint1_linear_150_812)"/>
<path d="M57.8421 117.497C57.1855 116.944 56.391 116.579 55.543 116.441C54.3047 116.295 53.0534 116.295 51.8151 116.441L50.6591 112.831C51.1076 112.746 51.5705 112.777 52.0035 112.922C52.3059 113.043 52.5753 113.234 52.7893 113.479C53.0351 113.735 53.3491 113.916 53.6943 113.999C54.0395 114.083 54.4015 114.067 54.7377 113.952C55.0031 113.859 55.2408 113.7 55.4288 113.491C55.6168 113.282 55.7492 113.029 55.8138 112.755C55.8785 112.482 55.8733 112.197 55.7987 111.926C55.7242 111.655 55.5827 111.407 55.3872 111.205C54.9603 110.794 54.4603 110.467 53.9129 110.239C52.5834 109.757 51.1317 109.725 49.7823 110.148L48.8925 107.414C48.8443 107.266 48.7392 107.143 48.6003 107.073C48.4615 107.002 48.3003 106.99 48.1521 107.038C48.004 107.086 47.8811 107.191 47.8105 107.329C47.7398 107.468 47.7272 107.629 47.7754 107.777L48.6457 110.453C47.6642 110.772 46.752 111.273 45.957 111.93C45.2459 112.519 44.7316 113.311 44.4827 114.198C44.2471 115.02 44.2629 115.894 44.5281 116.706C44.7198 117.319 45.0443 117.883 45.4787 118.356C45.9131 118.83 46.4467 119.203 47.0416 119.447C48.3817 119.901 49.8083 120.04 51.2111 119.856L51.6787 119.823L53.114 124.249C52.4274 124.424 51.7032 124.381 51.0423 124.126C50.5775 123.925 50.1677 123.617 49.8472 123.225C49.6054 122.94 49.2784 122.738 48.9139 122.651C48.5494 122.563 48.1665 122.594 47.8209 122.739C47.5798 122.838 47.3654 122.992 47.1949 123.189C47.0245 123.385 46.9027 123.619 46.8395 123.872C46.7763 124.124 46.7734 124.387 46.8311 124.641C46.8887 124.895 47.0053 125.131 47.1714 125.331C47.7426 126.048 48.4837 126.611 49.3277 126.971C50.826 127.511 52.4642 127.525 53.9713 127.01L54.8416 129.699C54.8655 129.772 54.9036 129.84 54.9537 129.898C55.0039 129.957 55.065 130.005 55.1338 130.04C55.2026 130.075 55.2775 130.096 55.3544 130.102C55.4313 130.108 55.5087 130.099 55.582 130.075C55.6554 130.051 55.7233 130.013 55.7819 129.963C55.8405 129.913 55.8887 129.852 55.9237 129.783C55.9587 129.715 55.9798 129.64 55.9858 129.563C55.9918 129.486 55.9826 129.409 55.9587 129.336L55.0884 126.647C56.0534 126.305 56.9537 125.804 57.7512 125.163C58.5258 124.521 59.0798 123.653 59.3359 122.681C59.5735 121.759 59.5565 120.791 59.2866 119.878C59.0167 118.965 58.5041 118.142 57.8032 117.497H57.8421ZM48.36 116.305C48.1792 116.234 48.0166 116.124 47.8839 115.983C47.7513 115.842 47.6521 115.673 47.5936 115.488C47.5265 115.294 47.5092 115.086 47.5432 114.883C47.5773 114.681 47.6616 114.49 47.7884 114.328C48.2464 113.764 48.8608 113.347 49.555 113.129L50.6396 116.48C49.8754 116.563 49.1024 116.504 48.36 116.305ZM55.7833 122.694C55.3991 123.237 54.8607 123.652 54.2376 123.886L52.8997 119.752C53.4258 119.72 53.809 119.713 54.0363 119.713C54.519 119.7 54.9971 119.81 55.4261 120.031C55.7407 120.229 55.9717 120.536 56.0756 120.892C56.1668 121.195 56.1879 121.515 56.1373 121.827C56.0867 122.139 55.9657 122.435 55.7833 122.694Z" fill="#D17B1E"/>
<path d="M61.1858 60.4697C62.7099 51.907 56.9884 43.7328 48.4065 42.2122C39.8246 40.6916 31.6322 46.4003 30.1081 54.963C28.5841 63.5257 34.3056 71.6999 42.8875 73.2205C51.4694 74.7411 59.6618 69.0324 61.1858 60.4697Z" fill="url(#paint2_linear_150_812)"/>
<path d="M58.7258 62.2656C61.247 55.0582 57.4349 47.1762 50.2114 44.6607C42.9879 42.1452 35.0883 45.9487 32.5671 53.1561C30.046 60.3634 33.858 68.2454 41.0815 70.7609C48.305 73.2764 56.2047 69.4729 58.7258 62.2656Z" fill="url(#paint3_linear_150_812)"/>
<path d="M50.4771 55.657C49.8119 55.3173 49.0664 55.165 48.3209 55.2164C47.2425 55.3234 46.1807 55.5584 45.158 55.9162L43.4694 53.1103C43.8337 52.9552 44.231 52.8928 44.6255 52.9289C44.9041 52.9658 45.1706 53.0655 45.4048 53.2205C45.6663 53.3916 45.9721 53.4828 46.2848 53.4828C46.5975 53.4828 46.9034 53.3916 47.1649 53.2205C47.37 53.0891 47.5387 52.9084 47.6556 52.6949C47.7725 52.4815 47.8337 52.2422 47.8337 51.999C47.8337 51.7558 47.7725 51.5164 47.6556 51.303C47.5387 51.0896 47.37 50.9089 47.1649 50.7775C46.7226 50.5102 46.2332 50.3298 45.7231 50.2461C44.501 50.1002 43.2648 50.3574 42.203 50.9784L40.904 48.8593C40.8351 48.7433 40.7229 48.6594 40.5919 48.626C40.461 48.5926 40.3221 48.6124 40.2059 48.6811C40.0896 48.7499 40.0055 48.8619 39.972 48.9925C39.9385 49.1232 39.9584 49.2618 40.0273 49.3778L41.2937 51.4838C40.5243 51.9444 39.8498 52.547 39.3063 53.2594C38.8177 53.9014 38.5368 54.6767 38.501 55.482C38.4599 56.4174 38.7636 57.3355 39.3547 58.0626C39.9459 58.7898 40.7835 59.2757 41.7094 59.4284C42.9335 59.5491 44.169 59.3873 45.3204 58.9554L45.7101 58.8323L47.7948 62.3056C47.2495 62.5872 46.6295 62.6914 46.0218 62.6037C45.5869 62.5274 45.1769 62.3473 44.8268 62.0788C44.564 61.8866 44.2466 61.783 43.9208 61.783C43.595 61.783 43.2776 61.8866 43.0148 62.0788C42.8371 62.2136 42.6931 62.3876 42.5939 62.5871C42.4948 62.7866 42.4432 63.0063 42.4432 63.229C42.4432 63.4517 42.4948 63.6714 42.5939 63.871C42.6931 64.0705 42.8371 64.2444 43.0148 64.3793C43.6403 64.8735 44.379 65.2052 45.1645 65.3448C46.5411 65.5118 47.9332 65.2006 49.1068 64.4635L50.4057 66.5695C50.4746 66.6847 50.5865 66.7678 50.7168 66.8006C50.8472 66.8334 50.9852 66.8133 51.1006 66.7445C51.216 66.6758 51.2993 66.5641 51.3322 66.4341C51.3651 66.304 51.3449 66.1663 51.276 66.0511L49.977 63.9386C50.7247 63.4613 51.3839 62.8583 51.9254 62.1566C52.4549 61.4587 52.7544 60.6143 52.7827 59.7395C52.7945 58.9166 52.5858 58.1055 52.1782 57.3901C51.7706 56.6746 51.1788 56.0808 50.4641 55.67L50.4771 55.657ZM42.203 56.5124C42.0324 56.4921 41.8688 56.4331 41.7247 56.3398C41.5806 56.2466 41.4598 56.1216 41.3716 55.9745C41.2751 55.8244 41.2185 55.6522 41.2071 55.4742C41.1957 55.2962 41.23 55.1183 41.3067 54.9572C41.5839 54.3885 42.0219 53.9132 42.5667 53.5898L44.1513 56.2208C43.5249 56.4349 42.8648 56.5337 42.203 56.5124ZM49.7562 60.4653C49.5366 60.9942 49.1634 61.4456 48.6846 61.7613L46.7362 58.5212L47.6974 58.2685C48.1041 58.1628 48.5312 58.1628 48.9379 58.2685C49.2402 58.3749 49.4939 58.5866 49.6523 58.8647C49.7924 59.1053 49.8746 59.3751 49.8927 59.6528C49.9107 59.9305 49.864 60.2086 49.7562 60.4653Z" fill="#D17B1E"/>
<path d="M208.578 49.1377C216.99 43.7082 219.397 32.5032 213.956 24.1105C208.514 15.7178 197.284 13.3157 188.872 18.7451C180.461 24.1746 178.053 35.3797 183.495 43.7723C188.937 52.165 200.167 54.5672 208.578 49.1377Z" fill="url(#paint4_linear_150_812)"/>
<path d="M204.086 48.9079C212.369 45.9556 216.684 36.863 213.725 28.5991C210.766 20.3353 201.653 16.0295 193.371 18.9819C185.089 21.9343 180.773 31.0268 183.732 39.2907C186.691 47.5545 195.804 51.8603 204.086 48.9079Z" fill="url(#paint5_linear_150_812)"/>
<path d="M204.426 35.9509C204.13 35.1475 203.62 34.4396 202.952 33.9032C201.944 33.1594 200.855 32.5332 199.704 32.0369L200.458 28.3562C200.891 28.5037 201.279 28.7578 201.588 29.0949C201.791 29.3455 201.938 29.6374 202.017 29.9503C202.101 30.2986 202.285 30.6147 202.547 30.8599C202.809 31.1051 203.137 31.2687 203.491 31.3306C203.77 31.381 204.058 31.3601 204.327 31.2695C204.597 31.179 204.839 31.022 205.031 30.813C205.222 30.604 205.358 30.3499 205.425 30.0744C205.492 29.7989 205.488 29.511 205.413 29.2375C205.246 28.6721 204.975 28.1425 204.614 27.6758C203.693 26.6042 202.445 25.8624 201.062 25.5632L201.633 22.7768C201.654 22.6999 201.659 22.6195 201.648 22.5407C201.636 22.4618 201.609 22.3861 201.567 22.3183C201.525 22.2505 201.47 22.1919 201.404 22.1463C201.339 22.1006 201.265 22.0688 201.186 22.0528C201.108 22.0369 201.027 22.0371 200.949 22.0534C200.871 22.0698 200.797 22.1019 200.732 22.1479C200.667 22.1939 200.612 22.2527 200.57 22.3207C200.528 22.3888 200.501 22.4646 200.49 22.5435L199.919 25.304C198.909 25.0977 197.868 25.0845 196.853 25.2652C195.942 25.4255 195.101 25.8596 194.444 26.5093C193.835 27.109 193.419 27.876 193.249 28.7126C193.111 29.3416 193.114 29.9934 193.259 30.6209C193.404 31.2484 193.687 31.836 194.087 32.3415C194.671 33.132 195.812 33.9312 197.509 34.7391L197.931 34.94L196.996 39.4761C196.311 39.2924 195.701 38.9006 195.249 38.355C194.948 37.9509 194.743 37.4831 194.652 36.9877C194.585 36.6194 194.402 36.2822 194.128 36.0265C193.854 35.7708 193.505 35.6102 193.132 35.5686C192.875 35.5399 192.615 35.5718 192.372 35.6615C192.13 35.7513 191.912 35.8965 191.735 36.0855C191.559 36.2745 191.43 36.502 191.358 36.7498C191.286 36.9976 191.273 37.2589 191.32 37.5126C191.467 38.4181 191.832 39.2743 192.385 40.0075C193.425 41.2119 194.845 42.0276 196.412 42.3209L195.84 45.0879C195.825 45.1632 195.824 45.2408 195.839 45.3162C195.854 45.3917 195.883 45.4635 195.926 45.5276C195.968 45.5916 196.023 45.6467 196.087 45.6897C196.151 45.7327 196.223 45.7627 196.298 45.778C196.373 45.7933 196.451 45.7937 196.527 45.779C196.602 45.7643 196.674 45.7349 196.739 45.6925C196.803 45.6501 196.858 45.5955 196.901 45.5317C196.944 45.468 196.974 45.3965 196.99 45.3212L197.561 42.5541C198.571 42.7326 199.604 42.7326 200.614 42.5541C201.603 42.3777 202.512 41.8948 203.212 41.1739C203.891 40.4921 204.356 39.6272 204.549 38.6855C204.764 37.7803 204.722 36.8332 204.426 35.9509ZM196.762 30.2484C196.633 30.0991 196.539 29.9223 196.488 29.7313C196.438 29.5404 196.431 29.3405 196.47 29.1468C196.509 28.9463 196.597 28.7586 196.726 28.6003C196.855 28.4421 197.022 28.3181 197.21 28.2395C197.889 27.9708 198.633 27.9077 199.347 28.0581L198.633 31.512C197.936 31.2103 197.302 30.7818 196.762 30.2484ZM200.068 39.4566C199.462 39.7456 198.782 39.8428 198.12 39.7353L198.997 35.4778C199.471 35.7176 199.815 35.8926 200.01 36.0092C200.435 36.2369 200.796 36.5665 201.062 36.9683C201.235 37.2967 201.283 37.6763 201.198 38.0375C201.13 38.3442 200.993 38.6313 200.797 38.8772C200.602 39.1231 200.352 39.3213 200.068 39.4566Z" fill="#D17B1E"/>
<path d="M210.507 79.1162C211.867 70.7191 206.147 62.8117 197.731 61.4546C189.315 60.0975 181.39 65.8046 180.03 74.2017C178.67 82.5988 184.39 90.5062 192.806 91.8633C201.222 93.2204 209.147 87.5133 210.507 79.1162Z" fill="url(#paint6_linear_150_812)"/>
<path d="M204.322 86.6946C209.598 81.4308 209.598 72.8966 204.322 67.6328C199.047 62.3691 190.493 62.3691 185.218 67.6328C179.942 72.8966 179.942 81.4308 185.218 86.6946C190.493 91.9583 199.047 91.9583 204.322 86.6946Z" fill="url(#paint7_linear_150_812)"/>
<path d="M199.854 77.8385C199.468 77.2241 198.922 76.7249 198.276 76.3934C197.318 75.9447 196.311 75.6076 195.275 75.389V72.2007C195.656 72.2628 196.016 72.4187 196.321 72.6544C196.536 72.8286 196.707 73.0505 196.821 73.3024C196.953 73.5766 197.162 73.8068 197.423 73.9654C197.683 74.1241 197.984 74.2043 198.289 74.1966C198.527 74.1882 198.759 74.1202 198.964 73.9989C199.169 73.8775 199.34 73.7068 199.462 73.5023C199.583 73.2978 199.651 73.0661 199.66 72.8285C199.668 72.5909 199.617 72.355 199.51 72.1424C199.274 71.6989 198.956 71.3033 198.575 70.976C197.627 70.2405 196.463 69.8373 195.262 69.829V67.4119C195.261 67.2807 195.207 67.1555 195.113 67.0633C195.02 66.9711 194.894 66.9194 194.762 66.9194C194.631 66.9194 194.506 66.9713 194.413 67.0637C194.321 67.156 194.269 67.2813 194.269 67.4119V69.8031C193.392 69.8049 192.524 69.972 191.71 70.2956C190.982 70.5871 190.36 71.0907 189.924 71.7407C189.422 72.5033 189.216 73.4225 189.345 74.3257C189.474 75.2289 189.929 76.054 190.625 76.6461C191.585 77.3585 192.696 77.8417 193.872 78.0588L194.262 78.156V82.1024C193.66 82.0633 193.085 81.8366 192.619 81.4544C192.299 81.1728 192.049 80.8198 191.892 80.424C191.771 80.1296 191.559 79.8814 191.286 79.7159C191.014 79.5503 190.696 79.476 190.378 79.5039C190.162 79.525 189.953 79.5959 189.768 79.7112C189.583 79.8264 189.428 79.9828 189.314 80.168C189.2 80.3532 189.131 80.5622 189.112 80.7787C189.092 80.9951 189.123 81.2131 189.203 81.4155C189.476 82.14 189.922 82.7873 190.502 83.3012C191.571 84.1268 192.891 84.5635 194.243 84.5389V86.9106C194.243 87.0419 194.294 87.1678 194.387 87.2612C194.479 87.3546 194.605 87.4079 194.736 87.4096C194.868 87.4079 194.994 87.3548 195.088 87.2616C195.181 87.1684 195.235 87.0425 195.236 86.9106V84.513C196.104 84.491 196.961 84.3178 197.769 84.0011C198.57 83.6899 199.252 83.1343 199.718 82.4134C200.163 81.7309 200.4 80.9339 200.399 80.1195C200.434 79.3233 200.245 78.5335 199.854 77.8385ZM192.509 74.4105C192.375 74.3085 192.267 74.1771 192.192 74.0264C192.118 73.8758 192.079 73.71 192.08 73.5421C192.075 73.3689 192.115 73.1974 192.194 73.0434C192.273 72.8893 192.391 72.7577 192.534 72.6608C193.054 72.3241 193.662 72.1461 194.282 72.1489V75.1362C193.652 75.0141 193.051 74.7768 192.509 74.4364V74.4105ZM196.834 81.4997C196.382 81.8366 195.839 82.0308 195.275 82.057V78.3698C195.704 78.4865 196.022 78.5772 196.204 78.642C196.597 78.7568 196.954 78.9686 197.243 79.2576C197.442 79.5002 197.546 79.8064 197.535 80.1195C197.535 80.3919 197.471 80.6606 197.35 80.9045C197.228 81.1484 197.051 81.361 196.834 81.5257V81.4997Z" fill="#D17B1E"/>
<path d="M230.288 92.1726C236.791 92.1726 242.063 86.9126 242.063 80.4241C242.063 73.9356 236.791 68.6757 230.288 68.6757C223.785 68.6757 218.513 73.9356 218.513 80.4241C218.513 86.9126 223.785 92.1726 230.288 92.1726Z" fill="url(#paint8_linear_150_812)"/>
<path d="M230.288 90.734C235.995 90.734 240.621 86.1181 240.621 80.4241C240.621 74.7302 235.995 70.1143 230.288 70.1143C224.581 70.1143 219.955 74.7302 219.955 80.4241C219.955 86.1181 224.581 90.734 230.288 90.734Z" fill="url(#paint9_linear_150_812)"/>
<path d="M232.691 83.5475C232.816 83.0047 232.791 82.438 232.619 81.9081C232.344 81.15 231.982 80.4259 231.541 79.7502L233.269 78.0265C233.447 78.2601 233.565 78.5338 233.613 78.8235C233.634 79.0315 233.609 79.2414 233.542 79.4391C233.458 79.6611 233.443 79.9027 233.497 80.1333C233.552 80.364 233.673 80.5734 233.847 80.7352C233.981 80.8581 234.143 80.9457 234.32 80.99C234.496 81.0342 234.681 81.0338 234.857 80.9887C235.033 80.9437 235.195 80.8554 235.328 80.7319C235.462 80.6083 235.562 80.4536 235.62 80.2816C235.733 79.9148 235.775 79.5299 235.743 79.1475C235.63 78.2377 235.219 77.3905 234.574 76.7369L235.873 75.4409C235.915 75.4071 235.949 75.365 235.973 75.3173C235.997 75.2696 236.011 75.2173 236.014 75.1639C236.017 75.1105 236.008 75.057 235.989 75.0071C235.97 74.9571 235.94 74.9118 235.902 74.874C235.864 74.8361 235.819 74.8066 235.769 74.7874C235.719 74.7682 235.665 74.7597 235.612 74.7625C235.558 74.7652 235.506 74.7791 235.458 74.8034C235.41 74.8276 235.368 74.8615 235.334 74.9031L234.035 76.1991C233.563 75.7249 233.002 75.3464 232.386 75.0845C231.835 74.8475 231.226 74.7842 230.638 74.9031C230.095 75.0101 229.595 75.2763 229.203 75.6677C228.903 75.9585 228.672 76.3124 228.526 76.7035C228.379 77.0947 228.323 77.5134 228.359 77.9293C228.49 78.8349 228.83 79.6978 229.353 80.45C229.411 80.5408 229.463 80.6315 229.508 80.7157L227.372 82.8477C227.068 82.5035 226.879 82.073 226.833 81.6165C226.812 81.2907 226.868 80.9646 226.995 80.6639C227.087 80.4422 227.106 80.197 227.049 79.9639C226.991 79.7308 226.861 79.522 226.677 79.3679C226.549 79.2615 226.398 79.1863 226.236 79.1483C226.074 79.1103 225.905 79.1104 225.743 79.1488C225.581 79.1871 225.43 79.2626 225.303 79.3693C225.175 79.4759 225.074 79.6108 225.008 79.7632C224.761 80.3049 224.653 80.8997 224.696 81.4933C224.827 82.517 225.303 83.4656 226.047 84.1826L224.748 85.4786C224.706 85.5124 224.672 85.5545 224.648 85.6022C224.624 85.6499 224.61 85.7022 224.607 85.7556C224.604 85.8091 224.613 85.8625 224.632 85.9124C224.651 85.9624 224.681 86.0077 224.719 86.0456C224.757 86.0834 224.802 86.1129 224.852 86.1321C224.902 86.1513 224.956 86.1598 225.009 86.1571C225.063 86.1543 225.115 86.1404 225.163 86.1162C225.211 86.092 225.253 86.058 225.287 86.0165L226.586 84.7204C227.067 85.1815 227.625 85.5544 228.235 85.8221C228.836 86.0765 229.5 86.1399 230.138 86.0035C230.739 85.8655 231.292 85.5689 231.739 85.1449C232.185 84.7208 232.51 84.1848 232.678 83.5929L232.691 83.5475ZM230.574 77.7154C230.556 77.5881 230.568 77.4584 230.61 77.3368C230.651 77.2152 230.721 77.1051 230.814 77.0156C230.906 76.9187 231.02 76.8465 231.147 76.8057C231.275 76.7649 231.41 76.7568 231.541 76.7823C232.002 76.8729 232.425 77.0985 232.756 77.4303L231.139 79.0439C230.863 78.6442 230.66 78.1988 230.541 77.7284L230.574 77.7154ZM229.073 83.878C228.645 83.8183 228.244 83.6309 227.924 83.3402L229.924 81.3508C230.093 81.6489 230.216 81.8627 230.281 81.9988C230.432 82.2729 230.51 82.5806 230.509 82.8931C230.49 83.1404 230.378 83.3716 230.197 83.5411C230.047 83.6885 229.863 83.7973 229.662 83.8583C229.461 83.9192 229.247 83.9305 229.041 83.891L229.073 83.878Z" fill="#D17B1E"/>
<path d="M246.68 113.337C246.68 113.265 246.68 113.201 246.726 113.136C248.069 111.932 248.964 110.311 249.265 108.535C249.405 106.689 249.056 104.838 248.252 103.169C248.159 103.013 248.017 102.891 247.849 102.821C247.68 102.751 247.494 102.737 247.317 102.781C245.732 103.02 243.966 105.288 243.647 106.72C243.154 108.943 244.128 111.937 245.557 113.641C245.637 113.732 245.741 113.798 245.857 113.833C245.973 113.867 246.097 113.869 246.213 113.837C246.33 113.805 246.436 113.742 246.518 113.653C246.601 113.565 246.657 113.455 246.68 113.337ZM245.297 108.295C245.278 107.593 245.428 106.897 245.736 106.265C246.043 105.634 246.499 105.085 247.064 104.666C247.992 107.258 247.888 109.572 246.447 111.833L246.167 111.354C245.691 110.396 245.396 109.359 245.297 108.295Z" fill="url(#paint10_linear_150_812)"/>
<path d="M256.721 110.55C255.214 109.811 253.708 108.904 251.973 109.332C249.902 109.85 247.739 111.367 246.063 112.721C245.945 112.721 245.831 112.768 245.746 112.852C245.662 112.936 245.615 113.05 245.615 113.168C245.804 115.469 249.168 115.462 250.811 115.255C253.136 114.957 255.266 113.395 256.864 111.749C256.947 111.667 257.01 111.567 257.049 111.458C257.087 111.348 257.1 111.23 257.086 111.115C257.073 110.999 257.033 110.888 256.969 110.79C256.906 110.692 256.821 110.61 256.721 110.55ZM250.928 113.576C249.963 113.785 248.96 113.738 248.018 113.44C247.635 113.298 247.317 113.11 246.986 112.961C248.446 112.08 250.016 111.394 251.655 110.92C252.217 110.755 252.808 110.711 253.388 110.791C253.968 110.872 254.524 111.074 255.019 111.386C253.87 112.47 252.45 113.226 250.908 113.576H250.928Z" fill="url(#paint11_linear_150_812)"/>
<path d="M246.329 112.896C245.606 112.098 245.081 111.141 244.797 110.103C244.556 109.222 244.147 108.159 243.848 107.304C243.595 106.546 242.692 104.751 241.835 102.12C241.56 102.52 241.342 102.956 241.186 103.416L239.887 102.632C239.958 105.353 241.835 106.954 242.316 108.528C242.965 110.686 243.303 113.414 246.057 113.602C246.427 113.602 246.518 113.188 246.329 112.954V112.896Z" fill="url(#paint12_linear_150_812)"/>
<path d="M245.544 113.654C246.563 114.905 247.804 116.473 249.44 116.894C250.207 117.095 253.681 116.816 255.396 118.268V117.166L256.578 116.518C255.929 115.533 253.409 115.093 252.246 115.132C251.187 115.224 250.121 115.085 249.122 114.723C248.101 114.276 247.208 113.581 246.524 112.702C245.946 112.021 244.998 113 245.55 113.674L245.544 113.654Z" fill="url(#paint13_linear_150_812)"/>
<path d="M239.77 106.675L226.456 119.959C226.408 120.007 226.37 120.063 226.344 120.126C226.318 120.188 226.305 120.255 226.305 120.322C226.305 120.39 226.318 120.456 226.344 120.519C226.37 120.581 226.408 120.638 226.456 120.685L238.192 132.395C238.239 132.442 238.296 132.48 238.358 132.506C238.421 132.532 238.488 132.546 238.555 132.546C238.623 132.546 238.69 132.532 238.752 132.506C238.815 132.48 238.871 132.442 238.919 132.395L252.233 119.11L239.77 106.675Z" fill="url(#paint14_linear_150_812)"/>
<path d="M238.896 106.336L234.698 110.524C234.551 110.671 234.551 110.909 234.698 111.055L247.842 124.17C247.989 124.316 248.228 124.316 248.375 124.17L252.572 119.981C252.719 119.835 252.719 119.597 252.572 119.45L239.429 106.336C239.282 106.189 239.043 106.189 238.896 106.336Z" fill="url(#paint15_linear_150_812)"/>
<path d="M248.264 115.15L243.727 110.623L230.05 124.269L234.588 128.796L248.264 115.15Z" fill="#F05291"/>
<path d="M248.264 115.153L243.726 110.626L238.996 115.346L243.533 119.873L248.264 115.153Z" fill="#D34083"/>
<path d="M248.012 37.1887C248.003 37.106 247.99 37.0238 247.973 36.9424C248.895 34.9984 249.44 32.8988 248.953 30.7344C248.466 28.5701 247.115 26.7556 245.615 25.1097C245.447 24.9707 245.239 24.8899 245.021 24.8793C244.803 24.8688 244.588 24.9292 244.407 25.0514C242.725 25.9651 241.666 29.2375 241.894 30.9742C242.244 33.6829 244.569 36.6508 246.869 37.9857C246.997 38.0433 247.138 38.0667 247.278 38.0536C247.418 38.0405 247.552 37.9914 247.667 37.9111C247.782 37.8307 247.874 37.7219 247.935 37.5953C247.995 37.4687 248.022 37.3285 248.012 37.1887ZM244.381 32.0758C243.732 30.8122 243.978 28.4794 244.881 27.2741C246.979 29.7948 247.817 32.4582 247.115 35.5881L246.602 35.1604C245.681 34.2747 244.928 33.2296 244.381 32.0758Z" fill="url(#paint16_linear_150_812)"/>
<path d="M258.137 29.9698C256.143 29.7494 254.078 29.3218 252.292 30.5335C250.174 31.9527 248.356 34.5447 247.024 36.748C246.891 36.7976 246.783 36.8975 246.724 37.0262C246.664 37.1548 246.658 37.3017 246.706 37.4349C247.856 39.9427 251.642 38.5689 253.435 37.6487C255.935 36.3527 257.689 33.7606 258.812 31.2464C258.869 31.1193 258.895 30.9812 258.89 30.8424C258.886 30.7036 258.849 30.5678 258.784 30.4449C258.719 30.3221 258.627 30.2156 258.515 30.1333C258.403 30.051 258.274 29.9951 258.137 29.9698ZM252.863 35.7176C251.865 36.3471 250.718 36.7025 249.538 36.748C249.038 36.748 248.609 36.6638 248.181 36.6314C249.461 35.0439 250.946 33.632 252.597 32.4322C253.896 31.4343 255.149 31.4213 256.565 31.5898C255.656 33.2228 254.409 34.8752 252.863 35.7176Z" fill="url(#paint17_linear_150_812)"/>
<path d="M247.408 36.8452C246.266 36.2405 245.285 35.3744 244.543 34.3179C243.894 33.4302 243.011 32.4193 242.329 31.5574C241.731 30.8122 239.984 29.1662 237.932 26.5223C237.793 27.073 237.728 27.6395 237.737 28.2072L235.938 27.8572C237.127 30.89 239.932 31.9138 241.075 33.5014C242.653 35.6852 244.186 38.6013 247.362 37.6876C247.784 37.571 247.7 37.0396 247.401 36.8452H247.408Z" fill="url(#paint18_linear_150_812)"/>
<path d="M246.862 38.0051C248.518 38.9966 250.551 40.2472 252.551 40.0593C253.493 39.9751 257.292 38.2449 259.806 39.178L259.384 37.9273L260.442 36.7091C259.345 35.8537 256.292 36.398 255 36.91C253.846 37.4451 252.59 37.7237 251.317 37.7265C249.982 37.6418 248.69 37.2252 247.557 36.5147C246.635 35.9833 245.959 37.4673 246.862 38.0051Z" fill="url(#paint19_linear_150_812)"/>
<path d="M237.51 32.4775L227.969 52.8316C227.907 52.9812 227.903 53.1487 227.958 53.3011C228.014 53.4534 228.124 53.5795 228.268 53.6546L246.252 62.0464C246.402 62.1086 246.569 62.1125 246.722 62.0573C246.875 62.0021 247.001 61.8919 247.076 61.7483L256.611 41.3942L237.51 32.4775Z" fill="url(#paint20_linear_150_812)"/>
<path d="M236.381 32.4669L233.372 38.8888C233.267 39.1125 233.364 39.3786 233.588 39.4832L253.738 48.8841C253.962 48.9886 254.229 48.8921 254.334 48.6684L257.344 42.2465C257.448 42.0228 257.352 41.7567 257.127 41.6521L236.977 32.2512C236.753 32.1466 236.486 32.2432 236.381 32.4669Z" fill="url(#paint21_linear_150_812)"/>
<path d="M250.543 38.5772L243.589 35.3329L233.787 56.2481L240.741 59.4924L250.543 38.5772Z" fill="#FEBD5D"/>
<path d="M250.542 38.5764L243.588 35.332L240.199 42.564L247.153 45.8083L250.542 38.5764Z" fill="#EFAB50"/>
<path d="M14.7761 81.0398C14.7022 81.0051 14.6263 80.9748 14.5488 80.949C13.3278 79.167 11.808 77.6312 9.69076 76.9508C7.57351 76.2704 5.31987 76.4972 3.14416 76.9508C2.94123 77.027 2.76838 77.1666 2.65136 77.3487C2.53434 77.5309 2.47939 77.7459 2.4947 77.9617C2.42326 79.8733 4.70937 82.4459 6.32004 83.1458C8.83996 84.2215 12.5809 83.7355 14.906 82.433C15.0213 82.3506 15.1131 82.2395 15.172 82.1108C15.231 81.982 15.2551 81.8401 15.242 81.6991C15.2288 81.5582 15.1789 81.4232 15.0971 81.3075C15.0154 81.1918 14.9047 81.0995 14.7761 81.0398ZM8.52822 81.5517C7.08641 81.4869 5.22245 80.0612 4.63143 78.6745C7.87876 78.1561 10.5935 78.7911 12.9381 80.9879L12.2886 81.2082C11.0658 81.5461 9.79218 81.6624 8.52822 81.5517Z" fill="url(#paint22_linear_150_812)"/>
<path d="M13.7044 68.6692C12.5029 70.2762 11.1065 71.8379 11.2234 73.9699C11.3728 76.5101 12.6847 79.3873 13.9057 81.6553C13.8896 81.7261 13.8881 81.7993 13.9011 81.8707C13.9141 81.942 13.9415 82.01 13.9815 82.0706C14.0216 82.1311 14.0735 82.1829 14.1341 82.2229C14.1947 82.2629 14.2629 82.2903 14.3344 82.3034C17.0816 82.5885 17.822 78.6421 17.9454 76.6268C18.1142 73.8338 16.7439 70.989 15.1592 68.7534C15.0796 68.6377 14.9745 68.5418 14.852 68.4729C14.7295 68.404 14.5928 68.3639 14.4525 68.3558C14.3121 68.3477 14.1717 68.3717 14.042 68.426C13.9124 68.4803 13.7969 68.5635 13.7044 68.6692ZM15.9905 76.1343C16.0231 77.3119 15.7477 78.4777 15.1917 79.5169C14.9319 79.9381 14.6396 80.2686 14.3928 80.625C13.6773 78.7149 13.2166 76.7192 13.0224 74.6892C12.8341 73.0497 13.4446 71.987 14.3214 70.853C15.2501 72.46 16.036 74.3717 15.9905 76.1343Z" fill="url(#paint23_linear_150_812)"/>
<path d="M14.1721 81.3897C13.0799 82.0532 11.8482 82.4547 10.574 82.5626C9.48292 82.6598 8.15152 82.9125 7.06042 83.0615C6.1122 83.1911 3.8131 83.8521 0.474854 84.2733C0.881224 84.6715 1.33746 85.0157 1.83223 85.2972L0.62423 86.658C3.87155 87.1829 6.15117 85.2907 8.10606 85.1157C10.7883 84.876 14.0876 85.0445 14.9189 81.8757C15.0293 81.448 14.5228 81.2277 14.2045 81.4156L14.1721 81.3897Z" fill="url(#paint24_linear_150_812)"/>
<path d="M14.8995 82.4459C16.5946 81.5258 18.7119 80.4177 19.5691 78.6097C19.9718 77.7478 20.4134 73.6135 22.4982 71.9287L21.1993 71.6565L20.6862 70.1207C19.3873 70.6262 18.3027 73.5228 18.0884 74.8966C17.9639 76.1596 17.565 77.3802 16.9193 78.4736C16.1668 79.5728 15.1481 80.4644 13.9578 81.0657C13.029 81.597 13.9578 82.9255 14.893 82.4265L14.8995 82.4459Z" fill="url(#paint25_linear_150_812)"/>
<path d="M5.37842 87.6753L18.0819 106.228C18.127 106.295 18.1851 106.353 18.2528 106.398C18.3206 106.443 18.3966 106.474 18.4764 106.489C18.5563 106.504 18.6384 106.503 18.7178 106.486C18.7973 106.469 18.8726 106.436 18.9392 106.39L35.3317 95.2182C35.4604 95.1212 35.5483 94.9799 35.5783 94.8218C35.6083 94.6636 35.5783 94.5 35.4941 94.3628L22.8035 75.8037L5.37842 87.6753Z" fill="url(#paint26_linear_150_812)"/>
<path d="M23.2876 75.4689L4.92271 87.9921C4.71838 88.1314 4.66594 88.4097 4.80559 88.6135L8.81464 94.4665C8.95429 94.6704 9.23314 94.7227 9.43748 94.5833L27.8024 82.0602C28.0067 81.9209 28.0592 81.6426 27.9195 81.4388L23.9105 75.5858C23.7708 75.3819 23.492 75.3296 23.2876 75.4689Z" fill="url(#paint27_linear_150_812)"/>
<path d="M17.2695 79.5722L10.9316 83.894L23.9885 102.956L30.3264 98.6344L17.2695 79.5722Z" fill="#FEBD5D"/>
<path d="M17.2769 79.5677L10.939 83.8895L15.4537 90.4808L21.7916 86.1589L17.2769 79.5677Z" fill="#EFAB50"/>
<path d="M128.127 261.596C128.471 262.043 129.114 262.069 129.666 262.198C130.583 262.502 131.444 262.955 132.212 263.54C134.953 265.263 138.168 266.041 141.305 266.78C141.8 266.936 142.322 266.986 142.837 266.929C143.093 266.893 143.332 266.782 143.524 266.61C143.716 266.438 143.852 266.213 143.916 265.963C144.006 265.315 143.454 264.79 142.948 264.389C139.317 261.453 135.524 258.245 134.115 253.8C133.986 253.295 133.801 252.806 133.563 252.342C132.076 249.828 128.9 251.266 128.283 253.495C127.9 254.843 127.38 260.643 128.127 261.596Z" fill="black"/>
<path d="M67.9412 244.08C67.9412 245.168 69.7921 246.024 70.2792 247.002C72.0133 250.463 73.8967 254.422 75.6308 257.338C76.0854 258.116 78.9756 260.455 78.3326 254.746C77.9754 251.506 75.9036 245.149 76.8973 242.356C77.261 241.339 78.1962 239.907 77.813 238.896C77.6619 238.334 77.3733 237.818 76.9732 237.395C76.573 236.972 76.0738 236.655 75.5204 236.472C73.7474 236.083 73.3772 237.872 72.5329 238.922C71.2534 240.49 67.9412 242.544 67.9412 244.08Z" fill="black"/>
<path d="M97.7126 204.629C97.219 206.255 81.9306 225.514 72.2341 238.325C72.7261 239.46 73.507 240.446 74.4994 241.186C75.4918 241.927 76.6611 242.395 77.891 242.544C84.2492 235.805 108.338 216.144 110.488 208.802C114.008 196.768 112.163 187.029 115.794 175.028C119.652 185.26 121.736 198.81 123.548 209.586C125.743 222.611 125.971 237.451 127.692 254.208C129.38 254.539 134.394 254.655 134.537 252.951C137.726 214.77 136.128 189.562 131.667 161.899C131.537 161.076 116.307 157.525 110 156.715C107.545 156.391 99.9533 160.784 97.5697 161.471C97.6022 161.432 98.3816 202.432 97.7126 204.629Z" fill="#FF7F00"/>
<path d="M142.649 52.2485C142.188 50.3951 141.766 48.4057 142.389 46.5978C143.013 44.7898 144.552 43.5521 146.098 44.6537C146.864 45.2175 147.332 47.1356 147.559 48.0558C150.962 62.0399 149.04 81.5322 141.525 99.8515C140.894 101.393 139.724 102.655 138.233 103.403C133.875 105.515 130.796 99.359 132.147 96.2745C134.349 91.2524 136.271 86.1655 138.031 81.5387C141.766 71.7666 144.526 59.8561 142.649 52.2485Z" fill="#FFB380"/>
<path d="M157.962 1.03135L68.0328 15.3553C65.819 15.7079 64.3109 17.7844 64.6643 19.9932L73.2634 73.7393C73.6168 75.9482 75.6979 77.4529 77.9117 77.1003L167.841 62.7764C170.055 62.4237 171.563 60.3473 171.209 58.1384L162.61 4.39234C162.257 2.18351 160.176 0.678743 157.962 1.03135Z" fill="url(#paint28_linear_150_812)"/>
<path style="mix-blend-mode:multiply" opacity="0.2" d="M170.186 51.7819L171.206 58.1584C171.29 58.6835 171.27 59.2201 171.146 59.7373C171.022 60.2546 170.797 60.7423 170.484 61.1727C170.171 61.6031 169.776 61.9676 169.321 62.2454C168.867 62.5233 168.362 62.7089 167.835 62.7917L77.904 77.1128C77.3773 77.1969 76.8392 77.1765 76.3204 77.053C75.8015 76.9295 75.3122 76.7051 74.8804 76.3928C74.4485 76.0804 74.0825 75.6862 73.8035 75.2327C73.5244 74.7791 73.3376 74.2752 73.2538 73.7496L64.6614 20.0034C64.5771 19.4787 64.5973 18.9426 64.7208 18.4257C64.8443 17.9088 65.0687 17.4213 65.3811 16.991C65.6936 16.5607 66.0879 16.1961 66.5417 15.9179C66.9955 15.6398 67.4997 15.4536 68.0257 15.3701L72.6434 14.6378L78.5535 51.5746C79.1806 55.475 81.334 58.9674 84.5404 61.2846C87.7469 63.6017 91.7441 64.554 95.6539 63.9322L167.822 52.4429C168.632 52.3105 169.425 52.0888 170.186 51.7819Z" fill="url(#paint29_linear_150_812)"/>
<path d="M90.4011 24.0437L78.7286 25.9029C77.7617 26.0569 77.1029 26.9639 77.2573 27.9287L78.5637 36.094C78.718 37.0588 79.6271 37.7161 80.5941 37.5621L92.2665 35.7029C93.2335 35.5488 93.8922 34.6418 93.7379 33.677L92.4315 25.5118C92.2771 24.547 91.3681 23.8897 90.4011 24.0437Z" fill="url(#paint30_linear_150_812)"/>
<path d="M90.1918 34.5059L82.1904 35.8019C81.7824 35.8635 81.3666 35.7619 81.0334 35.5192C80.7001 35.2765 80.4764 34.9123 80.4108 34.5059L79.5146 28.907C79.4823 28.7053 79.4903 28.4991 79.5381 28.3004C79.586 28.1018 79.6728 27.9145 79.7936 27.7495C79.9143 27.5844 80.0666 27.4448 80.2417 27.3388C80.4167 27.2327 80.6111 27.1623 80.8135 27.1315L88.8149 25.8355C89.2228 25.7739 89.6387 25.8755 89.9719 26.1182C90.3052 26.3609 90.5289 26.7251 90.5944 27.1315L91.4907 32.7303C91.5542 33.1376 91.4531 33.5534 91.2095 33.8863C90.966 34.2192 90.5999 34.4421 90.1918 34.5059ZM80.9109 27.786C80.797 27.8041 80.6878 27.8445 80.5895 27.9048C80.4912 27.9651 80.4058 28.0442 80.3383 28.1375C80.2707 28.2308 80.2222 28.3365 80.1957 28.4486C80.1691 28.5606 80.165 28.6768 80.1835 28.7904L81.0798 34.3828C81.0972 34.497 81.1371 34.6067 81.1972 34.7055C81.2574 34.8043 81.3365 34.8902 81.4301 34.9583C81.5237 35.0264 81.6299 35.0753 81.7426 35.1022C81.8552 35.1291 81.9721 35.1334 82.0865 35.115L90.0879 33.819C90.3172 33.7808 90.5222 33.6539 90.6584 33.4659C90.7945 33.2778 90.8509 33.0438 90.8153 32.8146L89.919 27.2157C89.8807 26.9869 89.7536 26.7824 89.5651 26.6465C89.3766 26.5106 89.1421 26.4544 88.9123 26.49L80.9109 27.786Z" fill="#D17B1E"/>
<path d="M92.8231 27.9244L77.6489 30.3413L77.7554 31.0068L92.9296 28.5899L92.8231 27.9244Z" fill="#D17B1E"/>
<path d="M93.3556 31.2528L78.1814 33.6698L78.2879 34.3353L93.4621 31.9184L93.3556 31.2528Z" fill="#D17B1E"/>
<path d="M145.37 51.5421C145.178 50.3392 145.307 49.1069 145.743 47.9693C146.18 46.8316 146.909 45.8289 147.858 45.062C146.716 44.6241 145.479 44.4939 144.271 44.6846C143.063 44.8753 141.927 45.3801 140.977 46.1483C140.026 46.9165 139.296 47.9208 138.858 49.0604C138.42 50.1999 138.291 51.4343 138.484 52.6394C138.676 53.8445 139.184 54.9777 139.955 55.925C140.725 56.8723 141.733 57.6002 142.875 58.0356C144.018 58.4709 145.255 58.5983 146.463 58.4048C147.671 58.2114 148.806 57.7039 149.754 56.9336C148.613 56.4981 147.608 55.7706 146.838 54.8241C146.069 53.8777 145.562 52.7457 145.37 51.5421Z" fill="url(#paint31_linear_150_812)"/>
<path d="M151.144 43.591C149.938 43.7832 148.804 44.2907 147.858 45.062C148.998 45.4974 150.004 46.2247 150.773 47.1708C151.542 48.1169 152.049 49.2484 152.241 50.4515C152.433 51.6547 152.305 52.8872 151.868 54.0251C151.431 55.1629 150.702 56.166 149.754 56.9336C150.752 57.3162 151.824 57.4644 152.889 57.3668C153.953 57.2692 154.981 56.9285 155.892 56.3709C156.803 55.8133 157.573 55.0539 158.143 54.1516C158.712 53.2492 159.066 52.2281 159.177 51.1674C159.287 50.1067 159.151 49.0348 158.78 48.0348C158.408 47.0349 157.811 46.1337 157.034 45.4011C156.258 44.6685 155.322 44.1242 154.301 43.8103C153.279 43.4964 152.199 43.4214 151.144 43.591Z" fill="white"/>
<path d="M152.242 50.4535C152.048 49.2503 151.542 48.119 150.772 47.1728C150.003 46.2265 148.998 45.4986 147.858 45.062C146.909 45.8296 146.18 46.8327 145.744 47.9706C145.307 49.1084 145.179 50.3409 145.371 51.5441C145.563 52.7473 146.069 53.8788 146.839 54.8249C147.608 55.7709 148.614 56.4982 149.754 56.9336C150.702 56.1658 151.43 55.163 151.867 54.0256C152.304 52.8883 152.433 51.6564 152.242 50.4535Z" fill="#FFCE77"/>
<path d="M150.165 11.3605L124.838 15.3946C122.734 15.7297 121.301 17.7031 121.636 19.8024L121.687 20.116C122.023 22.2152 124 23.6454 126.104 23.3102L151.431 19.2762C153.535 18.9411 154.968 16.9676 154.632 14.8683L154.582 14.5548C154.246 12.4555 152.269 11.0254 150.165 11.3605Z" fill="url(#paint32_linear_150_812)"/>
<path d="M96.8278 42.4287L82.0576 44.7812L82.547 47.84L97.3171 45.4874L96.8278 42.4287Z" fill="white"/>
<path d="M117.476 39.1445L102.706 41.4971L103.196 44.5558L117.966 42.2033L117.476 39.1445Z" fill="white"/>
<path d="M138.125 35.8538L123.355 38.2064L123.844 41.2652L138.614 38.9126L138.125 35.8538Z" fill="white"/>
<path d="M158.773 32.5623L144.002 34.9149L144.492 37.9737L159.262 35.6211L158.773 32.5623Z" fill="white"/>
<path d="M86.6718 74.8253C87.2109 68.0665 89.4905 62.4094 87.8734 58.0742C86.2562 53.7389 86.0289 51.931 87.4252 52.566C87.9643 52.8058 87.8084 53.2141 88.7826 54.8341C90.2959 46.6821 92.6209 45.4897 92.8547 46.5266C92.9976 47.1746 90.8154 51.594 91.6467 51.8079C92.2572 51.9699 95.3357 47.0579 96.0176 47.2718C96.6996 47.4856 93.6731 52.5142 93.9199 52.728C94.7317 53.4214 97.8167 48.341 98.2518 48.7298C99.1805 49.5139 96.245 53.0974 95.7968 54.063C95.576 54.549 99.226 51.7431 99.4403 52.0282C100.148 52.9419 96.4593 55.6571 96.245 56.0524C92.3806 63.1805 93.3873 68.8701 94.0238 76.9508C94.5888 84.0789 94.8421 87.3967 97.2191 96.1125C98.2583 99.9099 88.9839 107.304 87.8734 100.837C86.2237 91.2784 85.8146 85.5434 86.6718 74.8253Z" fill="#FFB380"/>
<path d="M141.525 99.871C139.421 99.1128 132.855 95.2831 132.147 96.294C129.92 99.4887 127.231 102.58 125.464 105.612C119.463 104.407 111.676 104.887 105.09 106.397C105.09 106.397 98.6998 99.1064 97.2125 96.119C97.2125 96.119 89.9645 100.085 87.8667 100.843C90.9387 115.916 95.6603 122.396 97.5048 125.792C97.3684 138.285 97.8425 154.038 97.5632 161.465C103.194 163.888 123.652 164.335 131.66 161.918C131.66 161.918 132.368 139.756 131.368 123.361C134.109 118.663 139.733 106.863 141.525 99.871Z" fill="#11111F"/>
<path d="M108.935 108.943C111.351 111.114 117.781 111.684 121.275 109.902C121.631 109.77 121.947 109.549 122.193 109.261C122.44 108.973 122.609 108.628 122.684 108.256C122.686 107.96 122.635 107.666 122.535 107.388C121.763 104.887 120.808 102.446 119.677 100.085C118.333 97.266 109.695 94.2981 109.585 98.1408C109.435 102.463 109.065 105.891 108.935 108.943Z" fill="#F78E69"/>
<path d="M120.204 103.357C121.537 103.214 122.782 102.624 123.737 101.685C124.303 100.996 124.695 100.18 124.88 99.3072C125.88 95.2442 124.23 91.0515 122.62 87.1958C122.158 86.0877 120.976 83.2106 120.197 82.2969C117.041 78.5902 111.449 81.3508 109.234 82.4394C103.227 85.3814 102.7 90.6757 103.136 91.9911C104.551 96.3004 107.214 99.6766 111.131 101.355C114.222 102.683 116.222 104.018 120.204 103.357Z" fill="#FFB380"/>
<path d="M122.795 78.5384C122.509 78.3828 122.178 78.3569 121.886 78.2208C121.074 77.8385 120.84 76.7952 120.866 75.901C120.892 75.0067 121.074 74.0606 120.697 73.2506C119.97 71.6953 117.45 71.7407 116.43 73.1339C116.075 72.8574 115.651 72.6821 115.204 72.6267C114.756 72.5713 114.302 72.6379 113.89 72.8193C113.478 73.0008 113.122 73.2904 112.862 73.6573C112.601 74.0242 112.445 74.4547 112.41 74.903C111.559 74.0282 110.033 74.2939 109.065 75.0456C108.098 75.7973 107.5 76.9054 106.701 77.8256C105.902 78.7457 105.065 79.3743 104.324 80.2232C103.889 80.7286 101.363 83.0226 103.097 86.0553C102.516 86.5458 102.033 87.1417 101.674 87.8114C100.577 90.4035 102.584 94.9396 104.376 97.1234C107.799 101.329 110.13 101.167 111.131 101.329C109.955 99.1841 109.182 97.7131 109.182 97.7131C109.182 97.7131 107.117 98.6721 106.006 95.8403C104.428 91.8162 108.416 94.2008 108.416 94.2008C107.987 92.9048 106.864 89.9369 107.695 89.0167C109.708 88.3169 113.098 87.2995 115.885 86.2044C118.593 85.673 121.015 84.4806 122.704 81.8173C123.072 81.3131 123.329 80.7366 123.457 80.126C123.512 79.8258 123.479 79.5162 123.361 79.2345C123.244 78.9528 123.047 78.711 122.795 78.5384Z" fill="url(#paint33_linear_150_812)"/>
<defs>
<linearGradient id="paint0_linear_150_812" x1="33.7498" y1="118.549" x2="70.0418" y2="118.549" gradientUnits="userSpaceOnUse">
<stop stop-color="#F8EC3B"/>
<stop offset="1" stop-color="#F4855C"/>
</linearGradient>
<linearGradient id="paint1_linear_150_812" x1="35.9514" y1="118.539" x2="67.8076" y2="118.539" gradientUnits="userSpaceOnUse">
<stop stop-color="#FFD887"/>
<stop offset="1" stop-color="#FFB049"/>
</linearGradient>
<linearGradient id="paint2_linear_150_812" x1="29.8625" y1="57.7201" x2="61.4264" y2="57.7201" gradientUnits="userSpaceOnUse">
<stop stop-color="#F8EC3B"/>
<stop offset="1" stop-color="#F4855C"/>
</linearGradient>
<linearGradient id="paint3_linear_150_812" x1="31.7905" y1="57.7155" x2="59.4966" y2="57.7155" gradientUnits="userSpaceOnUse">
<stop stop-color="#FFD887"/>
<stop offset="1" stop-color="#FFB049"/>
</linearGradient>
<linearGradient id="paint4_linear_150_812" x1="180.58" y1="33.9357" x2="216.872" y2="33.9357" gradientUnits="userSpaceOnUse">
<stop stop-color="#F8EC3B"/>
<stop offset="1" stop-color="#F4855C"/>
</linearGradient>
<linearGradient id="paint5_linear_150_812" x1="182.81" y1="33.9359" x2="214.66" y2="33.9359" gradientUnits="userSpaceOnUse">
<stop stop-color="#FFD887"/>
<stop offset="1" stop-color="#FFB049"/>
</linearGradient>
<linearGradient id="paint6_linear_150_812" x1="179.836" y1="76.6455" x2="210.708" y2="76.6619" gradientUnits="userSpaceOnUse">
<stop stop-color="#F8EC3B"/>
<stop offset="1" stop-color="#F4855C"/>
</linearGradient>
<linearGradient id="paint7_linear_150_812" x1="181.263" y1="77.164" x2="208.28" y2="77.164" gradientUnits="userSpaceOnUse">
<stop stop-color="#FFD887"/>
<stop offset="1" stop-color="#FFB049"/>
</linearGradient>
<linearGradient id="paint8_linear_150_812" x1="218.513" y1="80.4241" x2="242.063" y2="80.4241" gradientUnits="userSpaceOnUse">
<stop stop-color="#F8EC3B"/>
<stop offset="1" stop-color="#F4855C"/>
</linearGradient>
<linearGradient id="paint9_linear_150_812" x1="219.955" y1="80.4241" x2="240.621" y2="80.4241" gradientUnits="userSpaceOnUse">
<stop stop-color="#FFD887"/>
<stop offset="1" stop-color="#FFB049"/>
</linearGradient>
<linearGradient id="paint10_linear_150_812" x1="243.517" y1="108.308" x2="249.324" y2="108.308" gradientUnits="userSpaceOnUse">
<stop stop-color="#F78D97"/>
<stop offset="1" stop-color="#EE5291"/>
</linearGradient>
<linearGradient id="paint11_linear_150_812" x1="245.583" y1="112.28" x2="257.078" y2="112.28" gradientUnits="userSpaceOnUse">
<stop stop-color="#F78D97"/>
<stop offset="1" stop-color="#EE5291"/>
</linearGradient>
<linearGradient id="paint12_linear_150_812" x1="239.861" y1="107.822" x2="246.394" y2="107.822" gradientUnits="userSpaceOnUse">
<stop stop-color="#F78D97"/>
<stop offset="1" stop-color="#EE5291"/>
</linearGradient>
<linearGradient id="paint13_linear_150_812" x1="245.375" y1="115.358" x2="256.585" y2="115.358" gradientUnits="userSpaceOnUse">
<stop stop-color="#F78D97"/>
<stop offset="1" stop-color="#EE5291"/>
</linearGradient>
<linearGradient id="paint14_linear_150_812" x1="226.306" y1="119.609" x2="252.233" y2="119.609" gradientUnits="userSpaceOnUse">
<stop stop-color="#FFD887"/>
<stop offset="1" stop-color="#FFB049"/>
</linearGradient>
<linearGradient id="paint15_linear_150_812" x1="234.586" y1="115.256" x2="252.68" y2="115.256" gradientUnits="userSpaceOnUse">
<stop stop-color="#F8EC3B"/>
<stop offset="1" stop-color="#F4855C"/>
</linearGradient>
<linearGradient id="paint16_linear_150_812" x1="241.861" y1="31.4797" x2="249.135" y2="31.4797" gradientUnits="userSpaceOnUse">
<stop stop-color="#F8EC3B"/>
<stop offset="1" stop-color="#F4855C"/>
</linearGradient>
<linearGradient id="paint17_linear_150_812" x1="246.667" y1="34.292" x2="258.89" y2="34.292" gradientUnits="userSpaceOnUse">
<stop stop-color="#F8EC3B"/>
<stop offset="1" stop-color="#F4855C"/>
</linearGradient>
<linearGradient id="paint18_linear_150_812" x1="235.944" y1="32.1925" x2="247.661" y2="32.1925" gradientUnits="userSpaceOnUse">
<stop stop-color="#F8EC3B"/>
<stop offset="1" stop-color="#F4855C"/>
</linearGradient>
<linearGradient id="paint19_linear_150_812" x1="246.433" y1="38.1671" x2="260.442" y2="38.1671" gradientUnits="userSpaceOnUse">
<stop stop-color="#F8EC3B"/>
<stop offset="1" stop-color="#F4855C"/>
</linearGradient>
<linearGradient id="paint20_linear_150_812" x1="227.911" y1="47.317" x2="256.611" y2="47.317" gradientUnits="userSpaceOnUse">
<stop stop-color="#F37D6B"/>
<stop offset="1" stop-color="#E52581"/>
</linearGradient>
<linearGradient id="paint21_linear_150_812" x1="233.332" y1="40.575" x2="257.388" y2="40.575" gradientUnits="userSpaceOnUse">
<stop stop-color="#F78D97"/>
<stop offset="1" stop-color="#EE5291"/>
</linearGradient>
<linearGradient id="paint22_linear_150_812" x1="2.46872" y1="80.1196" x2="15.2307" y2="80.1196" gradientUnits="userSpaceOnUse">
<stop stop-color="#FFD887"/>
<stop offset="1" stop-color="#FFB049"/>
</linearGradient>
<linearGradient id="paint23_linear_150_812" x1="11.2169" y1="75.3307" x2="17.9584" y2="75.3307" gradientUnits="userSpaceOnUse">
<stop stop-color="#FFD887"/>
<stop offset="1" stop-color="#FFB049"/>
</linearGradient>
<linearGradient id="paint24_linear_150_812" x1="0.44238" y1="84.04" x2="14.8995" y2="84.04" gradientUnits="userSpaceOnUse">
<stop stop-color="#FFD887"/>
<stop offset="1" stop-color="#FFB049"/>
</linearGradient>
<linearGradient id="paint25_linear_150_812" x1="13.5811" y1="76.3417" x2="22.4982" y2="76.3417" gradientUnits="userSpaceOnUse">
<stop stop-color="#FFD887"/>
<stop offset="1" stop-color="#FFB049"/>
</linearGradient>
<linearGradient id="paint26_linear_150_812" x1="5.3979" y1="91.1551" x2="35.6175" y2="91.1551" gradientUnits="userSpaceOnUse">
<stop stop-color="#F78D97"/>
<stop offset="1" stop-color="#B268A7"/>
</linearGradient>
<linearGradient id="paint27_linear_150_812" x1="4.7179" y1="85.0276" x2="27.9882" y2="85.0276" gradientUnits="userSpaceOnUse">
<stop stop-color="#F38A98"/>
<stop offset="1" stop-color="#6C3392"/>
</linearGradient>
<linearGradient id="paint28_linear_150_812" x1="64.6021" y1="39.0753" x2="171.251" y2="39.0753" gradientUnits="userSpaceOnUse">
<stop stop-color="#F38A98"/>
<stop offset="1" stop-color="#6C3392"/>
</linearGradient>
<linearGradient id="paint29_linear_150_812" x1="64.6095" y1="45.898" x2="171.258" y2="45.898" gradientUnits="userSpaceOnUse">
<stop stop-color="#F38A98"/>
<stop offset="1" stop-color="#6C3392"/>
</linearGradient>
<linearGradient id="paint30_linear_150_812" x1="77.2331" y1="30.8119" x2="93.7555" y2="30.8119" gradientUnits="userSpaceOnUse">
<stop stop-color="#FFD887"/>
<stop offset="1" stop-color="#FFB049"/>
</linearGradient>
<linearGradient id="paint31_linear_150_812" x1="138.408" y1="51.5486" x2="149.754" y2="51.5486" gradientUnits="userSpaceOnUse">
<stop stop-color="#F37D6B"/>
<stop offset="1" stop-color="#E52581"/>
</linearGradient>
<linearGradient id="paint32_linear_150_812" x1="121.588" y1="17.3522" x2="154.678" y2="17.3522" gradientUnits="userSpaceOnUse">
<stop stop-color="#F8EC3B"/>
<stop offset="1" stop-color="#F4855C"/>
</linearGradient>
<linearGradient id="paint33_linear_150_812" x1="101.363" y1="86.7228" x2="123.496" y2="86.7228" gradientUnits="userSpaceOnUse">
<stop stop-color="#F38A98"/>
<stop offset="1" stop-color="#6C3392"/>
</linearGradient>
</defs>
</svg>
