<svg width="31" height="23" viewBox="0 0 31 23" fill="none" xmlns="http://www.w3.org/2000/svg">
<mask id="mask0_81_165" style="mask-type:luminance" maskUnits="userSpaceOnUse" x="0" y="0" width="31" height="23">
<path d="M28.7857 0.428558H2.21429C0.991369 0.428558 0 1.41993 0 2.64284V20.3571C0 21.58 0.991369 22.5714 2.21429 22.5714H28.7857C30.0086 22.5714 31 21.58 31 20.3571V2.64284C31 1.41993 30.0086 0.428558 28.7857 0.428558Z" fill="white"/>
</mask>
<g mask="url(#mask0_81_165)">
<path d="M28.7857 0.428558H2.21429C0.991369 0.428558 0 1.41993 0 2.64284V20.3571C0 21.58 0.991369 22.5714 2.21429 22.5714H28.7857C30.0086 22.5714 31 21.58 31 20.3571V2.64284C31 1.41993 30.0086 0.428558 28.7857 0.428558Z" fill="white"/>
<mask id="mask1_81_165" style="mask-type:alpha" maskUnits="userSpaceOnUse" x="0" y="0" width="31" height="23">
<path d="M28.7857 0.428558H2.21429C0.991369 0.428558 0 1.41993 0 2.64284V20.3571C0 21.58 0.991369 22.5714 2.21429 22.5714H28.7857C30.0086 22.5714 31 21.58 31 20.3571V2.64284C31 1.41993 30.0086 0.428558 28.7857 0.428558Z" fill="white"/>
</mask>
<g mask="url(#mask1_81_165)">
<path fill-rule="evenodd" clip-rule="evenodd" d="M31 0.428558H0V1.90474H31V0.428558ZM31 3.38094H0V4.85713H31V3.38094ZM0 6.33332H31V7.80951H0V6.33332ZM31 9.2857H0V10.7619H31V9.2857ZM0 12.2381H31V13.7143H0V12.2381ZM31 15.1904H0V16.6667H31V15.1904ZM0 18.1428H31V19.619H0V18.1428ZM31 21.0953H0V22.5714H31V21.0953Z" fill="#D02F44"/>
<path d="M13.2857 0.428558H0V10.7619H13.2857V0.428558Z" fill="#46467F"/>
<g filter="url(#filter0_d_81_165)">
<path fill-rule="evenodd" clip-rule="evenodd" d="M2.95239 2.64284C2.95239 3.05048 2.62193 3.38094 2.2143 3.38094C1.80666 3.38094 1.4762 3.05048 1.4762 2.64284C1.4762 2.23521 1.80666 1.90475 2.2143 1.90475C2.62193 1.90475 2.95239 2.23521 2.95239 2.64284ZM5.90477 2.64284C5.90477 3.05048 5.57432 3.38094 5.16668 3.38094C4.75904 3.38094 4.42858 3.05048 4.42858 2.64284C4.42858 2.23521 4.75904 1.90475 5.16668 1.90475C5.57432 1.90475 5.90477 2.23521 5.90477 2.64284ZM8.11905 3.38094C8.52669 3.38094 8.85715 3.05048 8.85715 2.64284C8.85715 2.23521 8.52669 1.90475 8.11905 1.90475C7.71141 1.90475 7.38096 2.23521 7.38096 2.64284C7.38096 3.05048 7.71141 3.38094 8.11905 3.38094ZM11.8095 2.64284C11.8095 3.05048 11.4791 3.38094 11.0714 3.38094C10.6638 3.38094 10.3333 3.05048 10.3333 2.64284C10.3333 2.23521 10.6638 1.90475 11.0714 1.90475C11.4791 1.90475 11.8095 2.23521 11.8095 2.64284ZM3.69048 4.85713C4.09812 4.85713 4.42858 4.52668 4.42858 4.11904C4.42858 3.7114 4.09812 3.38094 3.69048 3.38094C3.28284 3.38094 2.95239 3.7114 2.95239 4.11904C2.95239 4.52668 3.28284 4.85713 3.69048 4.85713ZM7.38096 4.11904C7.38096 4.52668 7.05051 4.85713 6.64287 4.85713C6.23523 4.85713 5.90477 4.52668 5.90477 4.11904C5.90477 3.7114 6.23523 3.38094 6.64287 3.38094C7.05051 3.38094 7.38096 3.7114 7.38096 4.11904ZM9.59525 4.85713C10.0029 4.85713 10.3333 4.52668 10.3333 4.11904C10.3333 3.7114 10.0029 3.38094 9.59525 3.38094C9.18761 3.38094 8.85715 3.7114 8.85715 4.11904C8.85715 4.52668 9.18761 4.85713 9.59525 4.85713ZM11.8095 5.59523C11.8095 6.00287 11.4791 6.33333 11.0714 6.33333C10.6638 6.33333 10.3333 6.00287 10.3333 5.59523C10.3333 5.18759 10.6638 4.85713 11.0714 4.85713C11.4791 4.85713 11.8095 5.18759 11.8095 5.59523ZM8.11905 6.33333C8.52669 6.33333 8.85715 6.00287 8.85715 5.59523C8.85715 5.18759 8.52669 4.85713 8.11905 4.85713C7.71141 4.85713 7.38096 5.18759 7.38096 5.59523C7.38096 6.00287 7.71141 6.33333 8.11905 6.33333ZM5.90477 5.59523C5.90477 6.00287 5.57432 6.33333 5.16668 6.33333C4.75904 6.33333 4.42858 6.00287 4.42858 5.59523C4.42858 5.18759 4.75904 4.85713 5.16668 4.85713C5.57432 4.85713 5.90477 5.18759 5.90477 5.59523ZM2.2143 6.33333C2.62193 6.33333 2.95239 6.00287 2.95239 5.59523C2.95239 5.18759 2.62193 4.85713 2.2143 4.85713C1.80666 4.85713 1.4762 5.18759 1.4762 5.59523C1.4762 6.00287 1.80666 6.33333 2.2143 6.33333ZM4.42858 7.07141C4.42858 7.47906 4.09812 7.80951 3.69048 7.80951C3.28284 7.80951 2.95239 7.47906 2.95239 7.07141C2.95239 6.66377 3.28284 6.33333 3.69048 6.33333C4.09812 6.33333 4.42858 6.66377 4.42858 7.07141ZM6.64287 7.80951C7.05051 7.80951 7.38096 7.47906 7.38096 7.07141C7.38096 6.66377 7.05051 6.33333 6.64287 6.33333C6.23523 6.33333 5.90477 6.66377 5.90477 7.07141C5.90477 7.47906 6.23523 7.80951 6.64287 7.80951ZM10.3333 7.07141C10.3333 7.47906 10.0029 7.80951 9.59525 7.80951C9.18761 7.80951 8.85715 7.47906 8.85715 7.07141C8.85715 6.66377 9.18761 6.33333 9.59525 6.33333C10.0029 6.33333 10.3333 6.66377 10.3333 7.07141ZM11.0714 9.28571C11.4791 9.28571 11.8095 8.95525 11.8095 8.54761C11.8095 8.13997 11.4791 7.80951 11.0714 7.80951C10.6638 7.80951 10.3333 8.13997 10.3333 8.54761C10.3333 8.95525 10.6638 9.28571 11.0714 9.28571ZM8.85715 8.54761C8.85715 8.95525 8.52669 9.28571 8.11905 9.28571C7.71141 9.28571 7.38096 8.95525 7.38096 8.54761C7.38096 8.13997 7.71141 7.80951 8.11905 7.80951C8.52669 7.80951 8.85715 8.13997 8.85715 8.54761ZM5.16668 9.28571C5.57432 9.28571 5.90477 8.95525 5.90477 8.54761C5.90477 8.13997 5.57432 7.80951 5.16668 7.80951C4.75904 7.80951 4.42858 8.13997 4.42858 8.54761C4.42858 8.95525 4.75904 9.28571 5.16668 9.28571ZM2.95239 8.54761C2.95239 8.95525 2.62193 9.28571 2.2143 9.28571C1.80666 9.28571 1.4762 8.95525 1.4762 8.54761C1.4762 8.13997 1.80666 7.80951 2.2143 7.80951C2.62193 7.80951 2.95239 8.13997 2.95239 8.54761Z" fill="url(#paint0_linear_81_165)"/>
</g>
</g>
</g>
<defs>
<filter id="filter0_d_81_165" x="1.4762" y="1.90475" width="10.3333" height="9.52381" filterUnits="userSpaceOnUse" color-interpolation-filters="sRGB">
<feFlood flood-opacity="0" result="BackgroundImageFix"/>
<feColorMatrix in="SourceAlpha" type="matrix" values="0 0 0 0 0 0 0 0 0 0 0 0 0 0 0 0 0 0 127 0" result="hardAlpha"/>
<feOffset dy="2.14286"/>
<feColorMatrix type="matrix" values="0 0 0 0 0 0 0 0 0 0 0 0 0 0 0 0 0 0 0.06 0"/>
<feBlend mode="normal" in2="BackgroundImageFix" result="effect1_dropShadow_81_165"/>
<feBlend mode="normal" in="SourceGraphic" in2="effect1_dropShadow_81_165" result="shape"/>
</filter>
<linearGradient id="paint0_linear_81_165" x1="1.4762" y1="1.90475" x2="1.4762" y2="9.2857" gradientUnits="userSpaceOnUse">
<stop stop-color="white"/>
<stop offset="1" stop-color="#F0F0F0"/>
</linearGradient>
</defs>
</svg>
