<svg width="24" height="25" viewBox="0 0 24 25" fill="none" xmlns="http://www.w3.org/2000/svg">
<path d="M21.1663 0.96582H2.39765C1.21053 0.967384 0.248634 1.92928 0.24707 3.1164V6.24529C0.24707 6.56905 0.509832 6.83181 0.833591 6.83181H1.81113V21.8835C1.81269 23.0706 2.77458 24.0325 3.9617 24.0341H19.6023C20.7894 24.0325 21.7513 23.0706 21.7528 21.8835V6.83181H22.7304C23.0541 6.83181 23.3169 6.56905 23.3169 6.24529V3.1164C23.3153 1.92928 22.3534 0.967384 21.1663 0.96582ZM20.5798 21.8835C20.579 22.4231 20.1419 22.8603 19.6023 22.861H3.9617C3.4221 22.8603 2.98495 22.4231 2.98417 21.8835V6.83181H20.5798V21.8835ZM22.1439 5.65877H1.42011V3.1164C1.42089 2.5768 1.85805 2.13964 2.39765 2.13886H21.1663C21.7059 2.13964 22.1431 2.5768 22.1439 3.1164V5.65877ZM7.08982 11.5232H16.4741C16.7979 11.5232 17.0607 11.2604 17.0607 10.9367C17.0607 10.6129 16.7979 10.3502 16.4741 10.3502H7.08982C6.76606 10.3502 6.50329 10.6129 6.50329 10.9367C6.50329 11.2604 6.76606 11.5232 7.08982 11.5232Z" fill="black"/>
</svg>
