<svg width="33" height="32" viewBox="0 0 33 32" fill="none" xmlns="http://www.w3.org/2000/svg">
<path d="M4.125 3C4.125 2.20435 4.45095 1.44129 5.03114 0.87868C5.61133 0.31607 6.39824 0 7.21875 0L21.8336 0C22.6539 0.000700208 23.4402 0.31723 24.0199 0.88L27.9696 4.708C28.5492 5.2704 28.8748 6.03291 28.875 6.828V29C28.875 29.7956 28.5491 30.5587 27.9689 31.1213C27.3887 31.6839 26.6018 32 25.7812 32H7.21875C6.39824 32 5.61133 31.6839 5.03114 31.1213C4.45095 30.5587 4.125 29.7956 4.125 29V3ZM7.21875 2C6.94525 2 6.68294 2.10536 6.48955 2.29289C6.29615 2.48043 6.1875 2.73478 6.1875 3V29C6.1875 29.2652 6.29615 29.5196 6.48955 29.7071C6.68294 29.8946 6.94525 30 7.21875 30H25.7812C26.0548 30 26.3171 29.8946 26.5105 29.7071C26.7039 29.5196 26.8125 29.2652 26.8125 29V6.828C26.8124 6.56329 26.7042 6.30941 26.5114 6.122L22.5617 2.292C22.3684 2.10506 22.1066 2.00006 21.8336 2H7.21875Z" fill="black"/>
<path d="M11.3438 8C11.0702 8 10.8079 8.10536 10.6145 8.29289C10.4211 8.48043 10.3125 8.73478 10.3125 9V12H15.4688V8H11.3438ZM17.5312 8V12H22.6875V9C22.6875 8.73478 22.5789 8.48043 22.3855 8.29289C22.1921 8.10536 21.9298 8 21.6562 8H17.5312ZM22.6875 14H10.3125V18H22.6875V14ZM22.6875 20H17.5312V24H21.6562C21.9298 24 22.1921 23.8946 22.3855 23.7071C22.5789 23.5196 22.6875 23.2652 22.6875 23V20ZM15.4688 24V20H10.3125V23C10.3125 23.2652 10.4211 23.5196 10.6145 23.7071C10.8079 23.8946 11.0702 24 11.3438 24H15.4688ZM8.25 9C8.25 8.20435 8.57595 7.44129 9.15614 6.87868C9.73633 6.31607 10.5232 6 11.3438 6H21.6562C22.4768 6 23.2637 6.31607 23.8439 6.87868C24.4241 7.44129 24.75 8.20435 24.75 9V23C24.75 23.7956 24.4241 24.5587 23.8439 25.1213C23.2637 25.6839 22.4768 26 21.6562 26H11.3438C10.5232 26 9.73633 25.6839 9.15614 25.1213C8.57595 24.5587 8.25 23.7956 8.25 23V9Z" fill="black"/>
</svg>
