<svg width="35" height="36" viewBox="0 0 35 36" fill="none" xmlns="http://www.w3.org/2000/svg">
<path d="M17.6752 19.17C17.5731 19.155 17.4418 19.155 17.3252 19.17C14.7585 19.08 12.7168 16.92 12.7168 14.265C12.7168 11.55 14.846 9.34497 17.5002 9.34497C20.1398 9.34497 22.2835 11.55 22.2835 14.265C22.2689 16.92 20.2418 19.08 17.6752 19.17Z" stroke="black" stroke-width="3" stroke-linecap="round" stroke-linejoin="round"/>
<path d="M27.3292 29.0702C24.7334 31.5152 21.2917 33.0002 17.5001 33.0002C13.7084 33.0002 10.2667 31.5152 7.6709 29.0702C7.81673 27.6602 8.69173 26.2802 10.2521 25.2002C14.248 22.4702 20.7813 22.4702 24.748 25.2002C26.3084 26.2802 27.1834 27.6602 27.3292 29.0702Z" stroke="black" stroke-width="3" stroke-linecap="round" stroke-linejoin="round"/>
<path d="M17.4998 33C25.5539 33 32.0832 26.2842 32.0832 18C32.0832 9.71572 25.5539 3 17.4998 3C9.44568 3 2.9165 9.71572 2.9165 18C2.9165 26.2842 9.44568 33 17.4998 33Z" stroke="black" stroke-width="3" stroke-linecap="round" stroke-linejoin="round"/>
</svg>
