<svg width="30" height="23" viewBox="0 0 30 23" fill="none" xmlns="http://www.w3.org/2000/svg">
<path fill-rule="evenodd" clip-rule="evenodd" d="M26.4792 0.374084C24.6958 0.374084 23.25 1.81983 23.25 3.60325V19.1033C23.25 20.8867 24.6958 22.3324 26.4792 22.3324C28.2626 22.3324 29.7083 20.8867 29.7083 19.1033V3.60325C29.7083 1.81983 28.2626 0.374084 26.4792 0.374084ZM25.8333 3.60325C25.8333 3.24657 26.1225 2.95742 26.4792 2.95742C26.8358 2.95742 27.125 3.24657 27.125 3.60325V19.1033C27.125 19.4599 26.8358 19.7491 26.4792 19.7491C26.1225 19.7491 25.8333 19.4599 25.8333 19.1033V3.60325ZM18.7292 5.54075C16.9458 5.54075 15.5 6.9865 15.5 8.76992V19.1033C15.5 20.8867 16.9458 22.3324 18.7292 22.3324C20.5126 22.3324 21.9583 20.8867 21.9583 19.1033V8.76992C21.9583 6.9865 20.5126 5.54075 18.7292 5.54075ZM18.0833 8.76992C18.0833 8.41329 18.3725 8.12408 18.7292 8.12408C19.0858 8.12408 19.375 8.41329 19.375 8.76992V19.1033C19.375 19.4599 19.0858 19.7491 18.7292 19.7491C18.3725 19.7491 18.0833 19.4599 18.0833 19.1033V8.76992ZM7.75 13.9366C7.75 12.1532 9.19575 10.7074 10.9792 10.7074C12.7626 10.7074 14.2083 12.1532 14.2083 13.9366V19.1033C14.2083 20.8867 12.7626 22.3324 10.9792 22.3324C9.19575 22.3324 7.75 20.8867 7.75 19.1033V13.9366ZM0 19.1033C0 17.3198 1.44575 15.8741 3.22917 15.8741C5.01258 15.8741 6.45833 17.3198 6.45833 19.1033C6.45833 20.8867 5.01258 22.3324 3.22917 22.3324C1.44575 22.3324 0 20.8867 0 19.1033Z" fill="#11111F"/>
</svg>
