<svg width="92" height="90" viewBox="0 0 92 90" fill="none" xmlns="http://www.w3.org/2000/svg">
<g clip-path="url(#clip0_82_890)">
<path d="M29.7246 70.5031H37.302V61.5922H29.7246V70.5031ZM32.7556 64.5624H34.271V67.5328H32.7556V64.5624Z" fill="white"/>
<path d="M63.065 61.5922H55.4875V70.5031H63.065V61.5922ZM60.034 67.5328H58.5185V64.5624H60.034V67.5328Z" fill="white"/>
<path d="M29.7246 60.1069H37.302V51.196H29.7246V60.1069ZM32.7556 54.1663H34.271V57.1367H32.7556V54.1663Z" fill="white"/>
<path d="M63.065 51.196H55.4875V60.1069H63.065V51.196ZM60.034 57.1367H58.5185V54.1663H60.034V57.1367Z" fill="white"/>
<path d="M29.7246 49.7109H37.302V40.7999H29.7246V49.7109ZM32.7556 43.7701H34.271V46.7405H32.7556V43.7701Z" fill="white"/>
<path d="M63.065 40.7999H55.4875V49.7109H63.065V40.7999ZM60.034 46.7405H58.5185V43.7701H60.034V46.7405Z" fill="white"/>
<path d="M40.333 52.6812H52.4568V49.7109H53.9723V40.7999H38.8176V49.7109H40.333V52.6812ZM41.8484 43.7703H50.9413V46.7407H49.4258V49.7109H43.364V46.7405H41.8484V43.7703Z" fill="white"/>
<path d="M87.3124 3.37386L82.766 12.2848V18.4884C74.2125 7.43862 60.7259 0.700577 46.3947 0.700577C32.0636 0.700577 18.5769 7.43862 10.0235 18.4884V12.2848L5.47707 3.37386L0.930664 12.2848V45.2554C0.930664 52.9781 2.90071 60.5525 6.84099 67.2357C6.88486 67.3218 6.93672 67.3998 6.99248 67.4734V67.5328L7.14397 67.8299C10.2671 72.9878 14.3845 77.4091 19.1742 80.9062C25.7734 85.7628 33.6154 88.7732 41.8615 89.5848C41.9959 89.5982 42.1307 89.6098 42.2655 89.622C42.5298 89.6457 42.7942 89.6678 43.0592 89.6869C43.2797 89.7031 43.5005 89.7176 43.7216 89.7306C43.8374 89.7372 43.9532 89.7447 44.0691 89.7506C44.3996 89.7675 44.731 89.7802 45.0626 89.7898C45.148 89.7922 45.2336 89.7942 45.319 89.7961C45.6773 89.8044 46.0356 89.8102 46.3947 89.8102C46.7538 89.8102 47.1122 89.8044 47.4702 89.7961C47.5558 89.7942 47.6413 89.7922 47.7269 89.7898C48.0584 89.7801 48.3897 89.7673 48.7203 89.7506C48.8365 89.7447 48.9523 89.7374 49.0682 89.7306C49.2888 89.7178 49.5092 89.7031 49.7292 89.6871C49.9976 89.6678 50.2656 89.6453 50.5332 89.6213C50.6643 89.6095 50.7955 89.5982 50.9262 89.5851C62.2773 88.4687 72.88 83.1891 80.6443 74.6619L80.9268 74.2466C82.6765 72.2636 84.259 70.1196 85.6453 67.8302L85.7968 67.5331C89.7371 60.7011 91.8588 53.1268 91.8588 45.2554V12.2848L87.3124 3.37386ZM3.96166 12.879L5.47707 9.90863L6.99248 12.879V15.5523H3.96166V12.879ZM6.99266 60.7009C5.02243 55.8001 3.96166 50.6019 3.96166 45.2554C3.96166 44.8098 3.96166 44.5127 3.96166 44.0672V42.285V24.4631H6.99266V60.7009ZM6.99266 21.4929H3.96166V18.5225H6.99266V21.4929ZM19.1161 34.8593H16.0853V32.186L17.6007 29.2156L19.1161 32.186V34.8593ZM19.1163 37.8295V66.0477H16.0853V37.8295H19.1163ZM19.1163 69.0179V71.9883H16.0853V69.0179H19.1163ZM22.5043 79.6042C20.4417 78.229 18.5008 76.6756 16.709 74.9586H22.1471H24.3994L22.5043 79.6042ZM60.0602 84.6084C59.9761 84.6368 59.8917 84.6653 59.807 84.6932C59.6507 84.7443 59.4943 84.7946 59.3373 84.844C59.1664 84.8978 58.995 84.9504 58.8235 85.0019C58.6763 85.0463 58.529 85.09 58.3813 85.1328C58.1671 85.1947 57.9524 85.2555 57.7371 85.3141C57.6462 85.339 57.5553 85.3636 57.4642 85.3878C57.3086 85.4292 57.1523 85.4682 56.9964 85.5077C57.0005 85.4575 57.003 85.4067 57.003 85.3545V82.3841C57.003 81.493 56.3968 80.899 55.4876 80.899C54.5783 80.899 53.9721 81.493 53.9721 82.3841V85.3547C53.9721 85.6485 54.0393 85.909 54.1602 86.1276C53.9856 86.1596 53.8114 86.193 53.6365 86.223C53.6035 86.2287 53.5702 86.2343 53.5372 86.2399C52.8972 86.3478 52.2541 86.4412 51.6085 86.5204C51.5698 86.5251 51.5313 86.5298 51.4926 86.5345C50.8582 86.6106 50.2214 86.6722 49.5827 86.7199C49.5261 86.724 49.4696 86.7282 49.4129 86.7322C48.791 86.7763 48.1675 86.8064 47.5427 86.8233C47.4688 86.8252 47.3949 86.8271 47.3209 86.8286C47.0124 86.8353 46.7039 86.84 46.3949 86.84C46.0896 86.84 45.7849 86.8354 45.4807 86.829C45.3878 86.8271 45.2951 86.8248 45.2022 86.8222C44.9687 86.8158 44.7357 86.8071 44.5028 86.797C44.3206 86.789 44.1386 86.7794 43.9565 86.7691C43.8162 86.7613 43.6761 86.7531 43.5362 86.7439C43.3367 86.7305 43.1373 86.7164 42.9384 86.7004C42.9329 86.6999 42.9276 86.6995 42.9221 86.699C41.4759 86.5815 40.0431 86.3902 38.6282 86.13C38.75 85.9109 38.8175 85.6497 38.8175 85.3547V82.3843C38.8175 81.4932 38.2114 80.8992 37.3021 80.8992C36.3928 80.8992 35.7867 81.4932 35.7867 82.3843V85.3547C35.7867 85.4074 35.7892 85.4589 35.7933 85.5094C32.0398 84.5548 28.4455 83.1033 25.1129 81.2107L27.6635 74.9585H35.7865V76.4436C35.7865 77.3346 36.3926 77.9287 37.3019 77.9287C38.2112 77.9287 38.8173 77.3346 38.8173 76.4436V74.9585H53.972V76.4436C53.972 77.3346 54.5781 77.9287 55.4874 77.9287C56.3967 77.9287 57.0028 77.3346 57.0028 76.4436V74.9585H65.0178L67.5897 81.2597C65.2011 82.6088 62.6789 83.7321 60.0602 84.6084ZM43.3639 39.3148V30.4038H49.4257V39.3148H57.9124H64.5804V71.9883H53.9721V61.5922C53.9721 57.4338 50.6382 54.1663 46.3947 54.1663C42.1515 54.1663 38.8173 57.4336 38.8173 61.5922V71.9883H28.2091V39.3148H34.8772H43.3639ZM40.3329 27.4335H40.1814C39.5753 27.4335 38.5144 27.285 38.0597 26.5424C37.1504 24.6117 37.9082 22.0869 40.1814 20.7502C43.2124 18.8196 45.031 16.2948 46.0918 14.2155C47.1525 16.2948 48.9711 18.8194 51.8506 20.7502C54.1238 22.0869 55.0331 24.4631 53.9723 26.5424C53.6692 27.285 53.5177 27.4335 52.6084 27.4335H52.4569H40.3329ZM58.2154 33.9682C59.5793 33.2256 60.4886 32.186 61.0947 31.2949C61.7009 32.186 62.6101 33.2256 63.6711 33.9682C64.5804 34.4138 65.035 35.4533 64.5804 36.196C64.5804 36.3444 64.5804 36.3444 64.5804 36.3444H57.7608C57.4576 36.3444 57.3061 36.196 57.3061 36.196C57.003 35.4533 57.3061 34.5622 58.2154 33.9682ZM50.9411 61.5922V71.9883H41.8483V61.5922C41.8483 59.0674 43.8184 57.1367 46.3947 57.1367C48.9711 57.1367 50.9411 59.0674 50.9411 61.5922ZM34.7256 36.196C34.7256 36.3444 34.7256 36.3444 34.7256 36.3444H28.0574C27.7545 36.3444 27.603 36.196 27.603 36.196C27.2998 35.4533 27.603 34.5622 28.5123 33.9682C29.8762 33.2256 30.7855 32.186 31.3916 31.2949C31.9977 32.186 32.907 33.2256 33.8163 33.9682C34.7256 34.4138 35.1802 35.4533 34.7256 36.196ZM70.2018 79.6604L68.2827 74.9586H70.6424H76.0805C74.2646 76.6987 72.2956 78.2717 70.2018 79.6604ZM76.7042 71.9883H73.6732V69.0179H76.7042V71.9883ZM76.7042 66.0475H73.6732V37.8295H76.7042V66.0475ZM76.704 34.8593H73.6732V32.186L75.1886 29.2156L76.704 32.186V34.8593ZM82.766 66.6417C81.8464 68.1557 80.8324 69.599 79.735 70.9677V31.5918L75.1886 22.6809L70.6422 31.5918V71.9883H67.6112V37.1986C68.4352 35.1748 67.6428 32.7095 65.4895 31.4434C63.0648 29.9583 62.6101 27.4335 62.6101 27.1364C62.6101 26.3937 62.004 25.7997 61.2462 25.7997C61.0947 25.7997 61.0947 25.7997 61.0947 25.7997C60.9432 25.7997 60.9432 25.7997 60.9432 25.7997C60.3371 25.9482 59.7308 26.3937 59.5793 27.1364C59.5793 27.4335 59.1247 29.9581 56.7 31.4434C54.8244 32.5463 53.9817 34.458 54.3398 36.3444H52.4566V30.4038H52.608C55.0327 30.4038 56.0937 29.2156 56.8513 27.879C58.5184 24.4631 57.3059 20.4531 53.6688 18.2254C48.8193 15.255 47.7585 10.354 47.607 9.4629C47.4555 8.72027 46.8492 8.12626 46.0916 8.12626C45.334 8.12626 44.7277 8.72027 44.5762 9.4629C44.4247 10.354 43.3637 15.255 38.5144 18.2254C34.8772 20.4531 33.5133 24.4631 35.3319 27.879C36.2412 29.5127 37.9082 30.4038 40.1814 30.4038H40.3329V36.3444H37.9761C38.3829 34.4808 37.5431 32.417 35.635 31.2949C33.3618 29.8098 32.9072 27.4335 32.7557 26.9879C32.7557 26.3939 32.1496 25.7997 31.3918 25.7997C30.7856 25.7997 30.0278 26.3937 29.8764 27.1364C29.8764 27.4335 29.4217 29.9581 26.997 31.4434C24.7238 32.78 23.966 35.3049 25.027 37.5326C25.0744 37.6255 25.1255 37.7134 25.1785 37.7991V71.9883H22.1475V31.5918L17.6011 22.6809L13.0547 31.5918V70.9677C11.9573 69.599 10.9432 68.1557 10.0237 66.6417V66.4932V23.8691C17.6009 11.3937 31.5431 3.67095 46.3947 3.67095C61.2464 3.67095 75.1886 11.3937 82.766 23.8691V66.6417ZM85.7968 12.879L87.3124 9.90863L88.8278 12.879V15.5523H85.7968V12.879ZM88.8278 42.285V44.0672C88.8278 44.3643 88.8278 44.8098 88.8278 45.2554C88.8278 50.6019 87.767 55.8001 85.7968 60.7011V24.4631H88.8278V42.285ZM88.8278 21.4929H85.7968V18.5225H88.8278V21.4929Z" fill="white"/>
</g>
<defs>
<clipPath id="clip0_82_890">
<rect width="90.9281" height="89.1096" fill="white" transform="translate(0.930664 0.700577)"/>
</clipPath>
</defs>
</svg>
