<svg width="13" height="14" viewBox="0 0 13 14" fill="none" xmlns="http://www.w3.org/2000/svg">
<path d="M0.116943 6.9679V6.95053C0.275555 4.91855 1.01669 3.39443 2.30421 2.43085C3.57423 1.4499 4.95038 0.976797 6.44957 0.976797C8.01932 0.95942 9.48352 1.48465 10.7891 2.53567C12.1122 3.56932 12.7647 5.11082 12.7647 7.10748V7.23024C12.7647 9.24484 12.1122 10.751 10.7891 11.7847C9.46602 12.8357 8.00182 13.3615 6.43207 13.3615H6.36152C4.82676 13.3441 3.41562 12.8183 2.1106 11.7673C0.805015 10.7336 0.135006 9.13945 0.117508 6.96734L0.116943 6.9679ZM6.06123 4.21787V1.4499H5.63788C5.54983 1.55528 5.47927 1.67748 5.40871 1.78286C5.33816 1.88824 5.2676 1.99306 5.19704 2.11582C5.12649 2.22121 5.03843 2.36134 4.98537 2.46617C4.91482 2.57155 4.86176 2.67637 4.8087 2.79913C4.70258 2.97458 4.61453 3.14947 4.54397 3.30698C4.45591 3.4645 4.38536 3.62257 4.3323 3.76271C4.43842 3.83277 4.56147 3.92022 4.70258 3.97291C4.86119 4.0256 5.02037 4.07829 5.17898 4.11305C5.35566 4.14836 5.51427 4.16574 5.65538 4.18311C5.81399 4.20049 5.95511 4.21843 6.06123 4.21843V4.21787ZM6.80236 1.45046V4.20049C6.89041 4.20049 6.99653 4.21787 7.10208 4.20049C7.2082 4.20049 7.33125 4.18312 7.43737 4.16518C7.63154 4.12986 7.86071 4.07773 8.03738 4.02504C8.23156 3.95497 8.40767 3.86753 8.53128 3.76215C8.31961 3.25429 8.09044 2.85126 7.86071 2.4656C7.63098 2.07995 7.36681 1.74755 7.08458 1.46727V1.4499H6.80236V1.45046ZM4.89732 1.60797V1.59059C4.7737 1.64329 4.65009 1.73073 4.50897 1.78342C4.38536 1.83611 4.22675 1.90618 4.10313 1.97625C3.8559 2.09901 3.60923 2.23914 3.362 2.39666C3.13283 2.55417 2.9031 2.72962 2.70949 2.90451C2.78005 2.97458 2.8681 3.04465 2.93866 3.09734C3.00921 3.15003 3.09727 3.2201 3.18589 3.29017C3.25645 3.32548 3.3445 3.37761 3.43312 3.44768C3.52118 3.50037 3.62729 3.57044 3.73285 3.64051C3.87396 3.32492 4.01507 2.99252 4.19175 2.69431C4.36842 2.37872 4.56203 2.08107 4.7562 1.81818C4.7737 1.78286 4.79176 1.74811 4.82676 1.71279C4.84426 1.69542 4.86232 1.64328 4.89732 1.60797ZM10.2946 2.90395V2.88657C9.8538 2.55361 9.46546 2.27334 9.07768 2.09845C8.6899 1.92356 8.30155 1.74811 7.94877 1.60797C8.23099 1.88824 8.47822 2.23858 8.63684 2.57155C8.81351 2.92189 8.98962 3.28961 9.13074 3.63995C9.20129 3.60463 9.28935 3.56988 9.39546 3.49981C9.48352 3.44712 9.60714 3.39443 9.71325 3.3423C9.81937 3.27223 9.90743 3.20216 10.013 3.13209C10.1191 3.04465 10.2247 2.97458 10.2952 2.90451L10.2946 2.90395ZM9.99492 6.81039H12.0236C12.0236 6.1624 11.8825 5.54916 11.6177 4.91855C11.3705 4.30531 11.0177 3.79746 10.5769 3.35967V3.3423C10.4888 3.48243 10.3652 3.60519 10.2416 3.69264C10.1005 3.78008 9.97686 3.85015 9.83574 3.92022C9.74769 3.97291 9.65907 4.04298 9.57101 4.07773C9.48296 4.13042 9.35934 4.16518 9.27129 4.21787C9.34184 4.358 9.4124 4.51552 9.48296 4.65565C9.53601 4.81317 9.62407 4.98862 9.65963 5.14613C9.76575 5.4264 9.8363 5.72405 9.90686 6.02226C9.95992 6.28516 9.99492 6.56543 9.99492 6.81039ZM3.6098 4.21787V4.20049C3.46868 4.13042 3.31007 4.07773 3.18645 4.00766C3.06284 3.92022 2.93922 3.83221 2.83367 3.76215C2.72755 3.70945 2.622 3.63939 2.53394 3.56932C2.44589 3.49925 2.37533 3.42918 2.30477 3.35911C1.84587 3.7969 1.51115 4.28738 1.29948 4.86586C1.07031 5.44378 0.911132 6.09233 0.840575 6.79301H3.01034C3.01034 6.30254 3.0809 5.82944 3.20452 5.35634C3.31063 4.86586 3.46868 4.49814 3.6098 4.21787ZM6.06123 6.79301V4.77841C5.92011 4.79579 5.74344 4.79579 5.58483 4.77841C5.40815 4.76104 5.23204 4.70835 5.07343 4.65565C4.93231 4.62034 4.75564 4.58559 4.61453 4.5329C4.45591 4.49758 4.29674 4.42751 4.17369 4.35744C4.06757 4.53289 3.97951 4.7431 3.90896 4.97068C3.8209 5.18089 3.76784 5.40847 3.71478 5.61867C3.67922 5.82887 3.66172 6.05646 3.64423 6.24928C3.62673 6.44211 3.60867 6.63494 3.60867 6.79245H6.06066L6.06123 6.79301ZM6.80236 4.81373V6.79301H9.41296C9.41296 6.68763 9.41296 6.56543 9.39546 6.42529C9.3599 6.30254 9.34241 6.14502 9.32491 6.00489C9.27185 5.79468 9.21879 5.5671 9.14823 5.3569C9.07768 5.16407 9.00712 4.97124 8.91906 4.81373C8.8835 4.72628 8.84851 4.6209 8.81295 4.55083C8.75989 4.46339 8.70683 4.4107 8.67183 4.358C8.47766 4.49814 8.21293 4.58559 7.89571 4.65565C7.59598 4.72572 7.2432 4.79579 6.92541 4.81317H6.80179L6.80236 4.81373ZM3.00978 7.37093H0.840011C0.840011 7.66858 0.89307 8.00155 0.981125 8.40458C1.06918 8.82499 1.24585 9.21064 1.44003 9.63105C1.52808 9.84126 1.6342 10.0515 1.73975 10.2617C1.86337 10.4545 2.00448 10.6647 2.1456 10.8575C2.25171 10.7875 2.35727 10.7348 2.44532 10.6821C2.55144 10.6294 2.67449 10.5593 2.78061 10.5066C2.90423 10.4539 3.02784 10.4012 3.16896 10.3312C3.29257 10.2785 3.45118 10.2084 3.6098 10.1383C3.46868 9.70056 3.31007 9.28015 3.20395 8.80705C3.08034 8.35133 3.00978 7.89617 3.00978 7.38831V7.37093ZM6.06123 9.42029V7.37093H3.60923C3.60923 7.51107 3.62673 7.72128 3.66229 7.93148C3.67979 8.14168 3.73285 8.36927 3.76841 8.59741C3.83896 8.84293 3.89202 9.08788 3.96258 9.29809C4.03314 9.50829 4.10369 9.68374 4.17425 9.84126C4.49204 9.7185 4.80926 9.63105 5.02093 9.57836C5.2501 9.50829 5.46177 9.4556 5.67344 9.43822H5.86762C5.93817 9.42085 6.00873 9.42085 6.06179 9.42085L6.06123 9.42029ZM6.80236 7.37093V9.40291C6.92597 9.42029 7.06709 9.43822 7.2082 9.4556C7.36681 9.47298 7.56098 9.50829 7.7196 9.54305L7.98433 9.59574C8.07238 9.63105 8.1785 9.64843 8.26655 9.66581C8.37267 9.70112 8.47822 9.7185 8.58434 9.75325C8.6724 9.78857 8.76102 9.80594 8.83157 9.8407C9.06074 9.26277 9.20186 8.78967 9.29048 8.38664C9.37853 8.00099 9.41409 7.66858 9.41409 7.38831V7.37093H6.80348H6.80236ZM12.0236 7.38831V7.37093H9.99492V7.47632C9.97742 7.80928 9.92436 8.19438 9.8538 8.59741C9.78325 8.98306 9.62463 9.43822 9.41296 9.99877C9.69519 10.1389 9.95992 10.279 10.1716 10.4192C10.3833 10.5593 10.5774 10.7168 10.7185 10.857C11.0183 10.5593 11.283 10.1563 11.5122 9.63049C11.7413 9.12264 11.9005 8.59685 11.9886 8.0363C12.0061 7.93092 12.0061 7.8261 12.0241 7.72072V7.38775L12.0236 7.38831ZM6.06123 12.7135V9.98083C5.62039 10.0509 5.24954 10.1383 4.96731 10.2084C4.68508 10.2785 4.47341 10.3486 4.3323 10.4186C4.43842 10.6815 4.54397 10.9091 4.65009 11.1193C4.7562 11.3121 4.87926 11.5223 4.98537 11.6972C5.02093 11.7673 5.09149 11.8374 5.14399 11.9248C5.19704 11.9949 5.23204 12.0823 5.2851 12.1524C5.33816 12.2398 5.39122 12.3452 5.44371 12.45C5.51427 12.5375 5.56733 12.6429 5.63788 12.7129L6.06123 12.7135ZM6.80236 12.7135H7.2082C7.36681 12.5907 7.52599 12.4158 7.64904 12.223C7.79015 12.0302 7.94877 11.8026 8.05488 11.6098C8.1785 11.3822 8.30211 11.172 8.40767 10.9618C8.51322 10.7516 8.60184 10.5588 8.6724 10.4186C8.47822 10.3486 8.2135 10.2785 7.94933 10.2084C7.68517 10.1383 7.31432 10.0683 6.80292 9.99821V12.7135H6.80236ZM10.2946 11.2774V11.26C10.2591 11.2073 10.1885 11.1372 10.136 11.0845C10.0835 11.0319 9.99492 10.9618 9.90686 10.9091C9.8363 10.8564 9.74825 10.8037 9.64213 10.7516C9.53601 10.6995 9.3949 10.6288 9.27185 10.5588C9.20129 10.6989 9.07768 10.9444 8.90157 11.2768C8.74295 11.6098 8.46073 12.0128 8.10794 12.4506C8.54878 12.3805 8.93713 12.223 9.28991 12.0128C9.67826 11.82 10.013 11.5571 10.2952 11.2768L10.2946 11.2774ZM3.73285 10.7168V10.6995C3.60923 10.7695 3.41506 10.857 3.22145 10.945C3.00978 11.0324 2.78061 11.1378 2.56894 11.2779C2.69255 11.3833 2.81617 11.4881 2.92172 11.5582C3.02784 11.6457 3.15089 11.7157 3.25701 11.7858C3.45118 11.9085 3.68035 12.0313 3.90952 12.1361C4.13869 12.241 4.42092 12.3463 4.7737 12.4517C4.65009 12.3116 4.56203 12.1361 4.47398 11.996C4.38592 11.8559 4.2798 11.7157 4.19175 11.5756C4.10369 11.4354 4.03314 11.2779 3.96258 11.1378C3.87452 10.9977 3.80397 10.8575 3.73341 10.7174L3.73285 10.7168Z" fill="#1ADDD0"/>
</svg>
