<svg width="47" height="32" viewBox="0 0 47 32" fill="none" xmlns="http://www.w3.org/2000/svg">
<path d="M46.5269 1.72935V30.0538C46.5269 30.8604 45.8638 31.5234 45.0573 31.5234H1.99634C1.18981 31.5234 0.526855 30.8604 0.526855 30.0538V1.72935C0.526855 0.92282 1.18981 0.266602 1.99634 0.266602H45.0573C45.8638 0.266602 46.5269 0.92282 46.5269 1.72935Z" fill="url(#paint0_linear_424_1547)"/>
<g opacity="0.2">
<path d="M27.4238 9.54492C27.3244 9.43306 27.2623 9.3337 27.1381 9.38958C27.0138 9.44546 27.0138 9.52623 26.8833 9.42687C26.7528 9.3275 26.8087 9.20935 26.5166 9.10379C26.2245 8.99813 26.1624 8.93605 25.8455 8.89256C25.5286 8.84908 25.2987 8.8056 25.28 8.8056C25.2614 8.8056 25.3484 8.86148 25.2241 8.92365C25.0999 8.98582 25.0004 8.99822 24.8761 8.91745C24.7519 8.83668 24.7581 8.81179 24.5469 8.83048C24.3356 8.84917 24.2113 8.89885 24.1181 8.91125C24.025 8.92365 24.1181 8.90505 23.9752 8.8056C23.8323 8.70614 23.9317 8.65026 23.6831 8.66885C23.4346 8.68754 23.3289 8.69904 23.2668 8.66526C23.2046 8.63157 23.2792 8.45754 23.0369 8.38297C22.7946 8.3084 22.7448 8.36437 22.6205 8.34569C22.4963 8.32709 22.5025 8.296 22.1483 8.27112C21.7941 8.24623 21.8127 8.3022 21.5704 8.37677C21.3281 8.45134 21.266 8.45134 21.0422 8.43894C20.8185 8.42654 20.8745 8.5632 20.7378 8.58188C20.601 8.60048 20.3836 8.46383 20.3587 8.38306C20.3338 8.30229 20.5451 8.21532 20.3587 8.14075C20.1723 8.06618 19.8243 7.92324 19.756 7.94813C19.6876 7.97301 19.7249 8.08487 19.6006 8.11586C19.4764 8.14695 19.3148 8.14695 19.1222 8.05998C18.9296 7.97301 18.855 7.92998 18.65 7.94525C18.445 7.96053 18.3331 8.0227 18.1591 8.0351C17.985 8.04749 17.8795 7.97292 17.9975 7.91704C18.1156 7.86116 18.2647 7.69333 18.2647 7.61256C18.2647 7.53179 18.3517 7.35776 18.1529 7.33917C17.954 7.32057 17.9168 7.45722 17.7303 7.33917C17.5439 7.22111 17.3016 7.21491 17.2332 7.2522C17.1649 7.28948 17.1649 7.35165 17.0468 7.37025C16.9287 7.38885 16.9722 7.49451 16.8293 7.53179C16.6864 7.56908 16.705 7.45722 16.3757 7.48831C16.0463 7.51939 15.7294 7.56288 15.6487 7.65605C15.5679 7.74921 15.6673 7.85487 15.4933 7.93564C15.3193 8.01641 14.9216 7.95424 14.872 8.02261C14.8223 8.09098 15.0895 8.32709 14.9092 8.43274C14.729 8.5384 14.6172 8.35817 14.2009 8.43274C13.7846 8.50731 13.8343 8.49492 13.679 8.58808C13.5237 8.68125 13.4926 8.61917 13.3994 8.74962C13.3062 8.88008 13.0266 8.99822 12.8339 8.99822C12.6413 8.99822 12.5605 8.88017 12.3119 8.97962C12.0634 9.07908 12.1007 9.14736 11.7092 9.11637C11.3177 9.08528 11.1562 9.09148 11.0816 9.14125C11.0071 9.19094 11.0071 9.31528 10.8144 9.37116C10.6218 9.42704 10.3235 9.5265 10.249 9.5079C10.1744 9.48931 9.91968 9.61356 9.74565 9.63216C9.57162 9.65085 9.47226 9.63836 9.41637 9.56999C9.3604 9.50162 9.29832 9.38356 9.38529 9.42085C9.47226 9.45813 9.54683 9.50781 9.70217 9.50162C9.85751 9.49542 10.0315 9.37116 9.99425 9.30279C9.95696 9.23442 9.98805 9.13505 9.68357 9.06048C9.37909 8.98591 9.24864 8.99831 9.01873 8.83057C8.78882 8.66283 9.10569 8.55098 8.50302 8.61306C7.90026 8.67523 7.73872 8.73731 7.49641 8.91754C7.2541 9.09777 7.20433 9.25311 6.95582 9.47053C6.70732 9.68804 6.79428 9.75012 6.4836 9.90546C6.17292 10.0608 6.12324 9.98623 6.02998 10.2223C5.93673 10.4585 5.87464 10.7318 6.06727 10.7816C6.25989 10.8313 6.45872 10.7443 6.55817 10.707C6.65763 10.6698 6.7322 10.7381 6.7446 10.85C6.757 10.9618 6.7632 11.1483 6.88754 11.1731C7.0118 11.198 7.27279 11.0239 7.26039 10.8438C7.24799 10.6636 7.20451 10.5393 7.32876 10.3591C7.45302 10.1789 7.53379 10.0484 7.66433 9.98623C7.79478 9.92406 7.97501 9.81229 7.90664 9.95515C7.83827 10.0981 7.71401 10.2658 7.80098 10.4088C7.88795 10.5517 8.08678 10.4523 8.13655 10.5952C8.18623 10.7381 8.06818 10.8748 8.03709 10.9246C8.00601 10.9742 8.11166 11.0364 7.96872 11.1359C7.82578 11.2352 7.73261 11.3409 7.57727 11.459C7.42193 11.577 6.96211 11.6578 6.85646 11.633C6.7508 11.6081 6.57686 11.633 6.56437 11.49C6.55198 11.3471 6.71971 11.1918 6.54578 11.1234C6.37175 11.055 6.17912 11.1483 6.12324 11.3906C6.06727 11.6329 5.9803 11.6764 5.83745 11.7944C5.69451 11.9125 5.81256 12.2728 5.39632 12.3412C4.97998 12.4096 4.74387 12.3101 4.77496 12.4593C4.80604 12.6084 5.06704 12.5152 5.07324 12.7638C5.07944 13.0123 5.14161 13.0993 4.96138 13.149C4.78116 13.1987 4.73767 13.1055 4.49536 13.1863C4.25305 13.2671 4.26545 13.5715 4.21577 13.702C4.16608 13.8324 4.1412 13.9505 4.30274 14.0065C4.46428 14.0624 4.72527 14.1618 4.9179 14.081C5.11052 14.0003 5.22238 13.9879 5.24726 13.8387C5.27215 13.6896 5.33423 13.5964 5.46478 13.5715C5.59523 13.5467 5.68229 13.3975 5.75677 13.3105C5.83134 13.2236 5.75677 13.2547 5.94939 13.2609C6.14202 13.2671 6.32224 13.062 6.39053 13.1179C6.4589 13.1738 6.66392 13.2919 6.79437 13.4162C6.92483 13.5405 7.10505 13.5777 7.07397 13.7642C7.04288 13.9506 7.03048 14.1668 7.15474 14.1115C7.27899 14.0562 7.23551 13.8884 7.31628 13.8076C7.39705 13.7269 7.5027 13.8014 7.4903 13.6585C7.4779 13.5156 7.26659 13.4783 7.15474 13.3478C7.04288 13.2174 6.95591 13.0744 7.09257 13.1179C7.22922 13.1614 7.49021 13.2795 7.5151 13.3789C7.53999 13.4784 7.7699 13.6834 7.79469 13.876C7.81958 14.0686 7.95623 14.2427 8.01841 14.1432C8.08058 14.0438 8.0246 13.9692 8.16135 13.9444C8.298 13.9195 8.24832 13.8201 8.32289 13.6896C8.39746 13.5591 8.60248 13.7518 8.67705 13.5094C8.75162 13.2671 8.58388 13.1836 8.77022 13.0513C8.95664 12.9191 9.03741 12.8321 9.0933 12.9502C9.14918 13.0682 9.29212 13.1925 9.36049 13.0682C9.42886 12.944 9.23624 12.9067 9.39778 12.8134C9.55932 12.7203 9.70226 12.6084 9.65877 12.77C9.61529 12.9315 9.55312 13.0371 9.66497 13.149C9.77683 13.2609 10.1061 13.3292 9.92597 13.4286C9.74574 13.5281 9.48483 13.4721 9.24244 13.5777C9.00013 13.6834 8.96284 13.6336 8.90067 13.8325C8.8385 14.0314 8.8323 14.0935 9.03732 14.0935C9.24235 14.0935 9.3356 13.9506 9.39149 14.1308C9.44737 14.311 9.43497 14.7149 9.348 14.7522C9.26103 14.7895 9.22375 14.7336 8.8385 14.7771C8.45325 14.8205 8.47185 14.9138 8.16117 14.7584C7.85049 14.603 7.77592 14.4104 7.66406 14.603C7.55221 14.7957 7.63298 14.8937 7.39067 14.8447C7.14836 14.7957 7.3223 14.6901 6.99922 14.6093C6.67614 14.5286 6.61397 14.5534 6.61397 14.4105C6.61397 14.2676 6.65745 14.0811 6.40266 14.0625C6.14786 14.0439 5.70053 14.1495 5.33387 14.2552C4.96722 14.3608 5.04179 14.2303 4.61926 14.3794C4.19672 14.5286 3.93573 14.5782 3.89224 14.8081C3.84876 15.0381 3.70582 15.1685 3.61265 15.2929C3.51948 15.4171 3.46971 15.964 3.44491 16.2995C3.42002 16.635 3.50708 16.4797 3.41382 16.7282C3.32057 16.9768 3.58156 17.3682 3.68722 17.4738C3.79287 17.5795 4.13464 17.9149 4.35206 17.9398C4.56957 17.9647 4.55089 17.8591 4.88645 17.9087C5.22202 17.9584 5.21582 17.7658 5.55759 17.8529C5.89935 17.9398 6.0236 18.002 6.22243 18.1077C6.42125 18.2133 6.43994 18.3003 6.43994 18.5551C6.43994 18.8099 6.45234 18.6173 6.63257 18.9776C6.81279 19.338 7.12967 19.6735 6.94324 19.9842C6.75682 20.2949 6.67605 20.3508 6.7941 20.6429C6.91216 20.935 7.24153 21.5252 7.27881 21.8235C7.3161 22.1218 7.22293 22.1404 7.26021 22.3206C7.2975 22.5008 7.63307 22.6997 7.93755 22.5754C8.24203 22.4512 8.33519 22.445 8.58379 22.215C8.8323 21.9851 9.0809 22.1592 9.26732 21.6807C9.45375 21.2022 9.39158 21.1463 9.47235 20.9536C9.55312 20.761 10.0378 20.4814 10.0564 20.1335C10.075 19.7855 9.95076 19.5245 9.99425 19.189C10.0377 18.8535 10.0688 18.5615 10.3919 18.2943C10.715 18.0271 10.7895 18.2881 11.0133 17.7848C11.237 17.2815 11.5042 17.1572 11.2556 17.1634C11.007 17.1696 10.5224 17.3684 10.3173 17.2566C10.1123 17.1447 9.77674 16.6352 9.70837 16.3991C9.64 16.163 9.66488 16.281 9.54683 15.9455C9.42877 15.6099 9.31692 15.436 9.26723 15.3054C9.21755 15.175 9.18646 14.9451 9.3356 15.1315C9.48475 15.3179 9.62769 15.5975 9.82651 16.0262C10.0253 16.455 10.1434 16.7843 10.3174 16.8527C10.4914 16.9211 10.5473 17.0019 10.8083 16.8962C11.0693 16.7905 11.1625 16.7781 11.4111 16.6414C11.6596 16.5047 11.8087 16.4799 11.989 16.2996C12.1692 16.1194 12.5792 16.0448 12.1257 15.8709C11.6721 15.697 11.5167 15.7963 11.3863 15.5975C11.2558 15.3987 11.0445 15.1999 11.2371 15.231C11.4298 15.262 11.3552 15.3179 11.5727 15.3614C11.7902 15.4049 11.9456 15.307 12.0636 15.4646C12.1817 15.6224 12.3805 15.7343 12.5669 15.6472C12.7534 15.5602 12.8279 15.5105 13.0267 15.6223C13.2256 15.7342 13.0951 16.051 13.3934 16.138C13.6917 16.225 13.7414 15.9019 13.8035 16.312C13.8657 16.7222 13.9838 17.1011 14.0893 17.182C14.195 17.2628 14.0334 17.6356 14.3689 17.5362C14.7045 17.4367 14.8039 17.4492 14.8039 17.1012C14.8039 16.7533 14.7915 16.6663 14.9716 16.542C15.1518 16.4177 15.4003 16.2934 15.5122 16.1629C15.624 16.0324 15.5557 15.9516 15.7794 15.9765C16.0031 16.0014 16.5561 16.6227 16.5312 16.7532C16.5063 16.8836 16.4815 16.9334 16.5871 17.0142C16.6927 17.0949 16.6865 17.1198 16.7673 17.4118C16.8481 17.7039 16.8295 17.6603 17.0842 17.9338C17.339 18.2072 17.6993 18.3998 17.6683 18.201C17.6372 18.0022 17.5129 18.027 17.4011 17.7101C17.2892 17.3932 17.1587 17.1073 17.3079 17.1882C17.457 17.269 17.4135 17.387 17.5689 17.4119C17.7242 17.4368 17.7491 17.2566 17.8672 17.2006C17.9852 17.1447 18.1965 16.6911 18.0287 16.4923C17.861 16.2934 17.6869 16.1567 17.861 16.0946C18.035 16.0324 17.9541 16.076 18.1592 16.1132C18.3643 16.1505 18.3022 16.051 18.5507 15.9828C18.7992 15.9144 19.1597 15.8025 19.3523 15.554C19.5449 15.3055 19.7561 15.231 19.7002 14.9016C19.6444 14.5723 19.5698 14.4294 19.4517 14.3423C19.3337 14.2553 19.3275 14.1932 19.4331 14.1559C19.5387 14.1186 19.8121 14.1124 19.6568 14.0316C19.5014 13.9509 19.576 13.9943 19.3958 13.9509C19.2155 13.9074 19.0229 13.9943 19.1845 13.8452C19.346 13.6961 19.4702 13.5718 19.4702 13.5718C19.4702 13.5718 19.4268 13.6029 19.5324 13.7147C19.6381 13.8266 19.7064 13.7769 19.7561 13.752C19.8058 13.7271 19.955 13.6216 19.9736 13.7396C19.9923 13.8577 19.781 13.9447 19.9053 13.9881C20.0295 14.0316 20.1414 13.9198 20.0917 14.1435C20.042 14.3672 20.1414 14.5722 20.247 14.4604C20.3527 14.3485 20.508 14.0192 20.4769 13.8825C20.4459 13.7458 20.3402 13.8141 20.4831 13.5656C20.6261 13.3171 20.6261 13.1431 20.8187 13.1742C21.0113 13.2052 21.1978 13.0188 21.2723 12.9442C21.3469 12.8697 21.6638 12.6957 21.7135 12.4844C21.7632 12.2731 21.7384 12.2421 21.8066 11.9997C21.875 11.7574 22.0241 11.7574 21.8377 11.6456C21.6513 11.5337 21.5084 11.5586 21.4774 11.4342C21.4463 11.31 21.9745 10.7072 22.2044 10.6141C22.4343 10.5209 22.5958 10.5644 22.7512 10.6327C22.9065 10.701 22.9562 10.7693 23.0991 10.6823C23.2421 10.5954 23.3352 10.5456 23.416 10.5394C23.4968 10.5332 23.7205 10.3654 23.8137 10.4399C23.9068 10.5145 23.9193 10.5953 24.0312 10.5456C24.143 10.4959 24.2922 10.2349 24.3418 10.3281C24.3915 10.4213 24.3791 10.5331 24.2424 10.7133C24.1056 10.8936 23.9876 10.9247 23.8137 11.0675C23.6396 11.2104 23.5713 11.3596 23.5713 11.49C23.5713 11.6205 23.5217 12.0555 23.5899 12.0617C23.6583 12.0679 23.6769 12.0493 23.8571 11.8194C24.0374 11.5895 24.1305 11.5771 24.2486 11.49C24.3666 11.4031 24.4101 11.2974 24.4288 11.0924C24.4475 10.8874 24.317 10.8376 24.5096 10.732C24.7022 10.6264 24.9321 10.5145 25.1247 10.5456C25.3174 10.5767 25.2739 10.5705 25.4168 10.4275C25.5598 10.2846 25.6591 10.1914 25.8083 10.2038C25.9574 10.2162 26.1997 10.2473 26.237 10.1727C26.2743 10.0982 26.2432 10.0361 26.2494 9.93044C26.2556 9.82478 26.2432 9.7813 26.3862 9.74401C26.5291 9.70673 26.5228 9.65705 26.5912 9.63216C26.6595 9.60727 26.703 9.68184 26.8149 9.72533C26.9267 9.76881 27.2001 9.77501 27.2623 9.69424C27.3244 9.61329 27.4238 9.54492 27.4238 9.54492Z" fill="#040000"/>
<path d="M21.9679 12.9251C22.0492 12.955 22.2041 13.0805 22.2973 13.0743C22.3905 13.0681 22.4403 13.1923 22.3657 13.2047C22.2911 13.2171 22.0426 13.3352 22.0426 13.3352C22.0426 13.3352 21.968 13.242 21.9245 13.3352C21.8811 13.4283 21.8562 13.4967 21.8687 13.5527C21.8811 13.6086 21.9681 13.7702 21.9184 13.851C21.8687 13.9317 21.8003 13.9752 21.8003 14.0747C21.8003 14.174 21.8625 14.2797 21.7754 14.3232C21.6884 14.3667 21.6014 14.3792 21.5269 14.404C21.4523 14.4288 21.3964 14.435 21.3654 14.5034C21.3343 14.5718 21.2597 14.6711 21.1044 14.6649C20.949 14.6587 20.949 14.5345 20.8061 14.6525C20.6631 14.7706 20.6569 14.839 20.5824 14.8079C20.5078 14.7768 20.5637 14.7333 20.5824 14.6153C20.601 14.4972 20.3276 14.5283 20.5762 14.3916C20.8247 14.2548 20.8247 14.2362 20.9925 14.2113C21.1602 14.1864 21.2535 14.2672 21.3218 14.1244C21.3902 13.9814 21.3218 13.9255 21.4585 13.9193C21.5953 13.9131 21.6822 13.9753 21.707 13.8199C21.7319 13.6645 21.7132 13.5341 21.707 13.4346C21.7008 13.3352 21.6636 13.242 21.7754 13.2047C21.8873 13.1674 21.8997 13.2358 21.9122 13.1488C21.9245 13.0618 21.8499 12.8816 21.9679 12.9251Z" fill="#040000"/>
<path d="M19.47 16.293C19.588 16.3117 19.6439 16.5229 19.6067 16.6098C19.5694 16.6968 19.5321 16.7963 19.6378 16.8149C19.7435 16.8336 19.818 16.846 19.818 16.9205C19.818 16.9951 19.8615 16.8398 19.9423 17.0386C20.023 17.2374 19.9485 17.2685 20.0417 17.4176C20.1349 17.5668 20.2468 17.6413 20.1163 17.7159C19.9858 17.7905 20.0852 17.8713 19.9486 17.8278C19.8119 17.7843 19.8678 17.8091 19.7994 17.6786C19.7311 17.5482 19.6876 17.6537 19.6255 17.6475C19.5633 17.6413 19.5447 17.6413 19.5944 17.5544C19.6441 17.4674 19.669 17.4736 19.6131 17.3741C19.5572 17.2747 19.6442 17.1566 19.5634 17.138C19.4826 17.1194 19.4577 17.2561 19.3149 17.3431C19.172 17.43 18.9607 17.4549 18.9669 17.4238C18.9731 17.3927 19.0539 17.3493 19.1844 17.1877C19.3149 17.0262 19.3958 17.1256 19.3709 16.877C19.346 16.6285 19.259 16.6968 19.3398 16.5229C19.4203 16.3489 19.47 16.293 19.47 16.293Z" fill="#040000"/>
<path d="M19.0725 17.7034C19.1665 17.7975 19.29 17.7718 19.2527 17.865C19.2154 17.9581 19.1047 17.9706 19.1663 18.0638C19.2278 18.157 19.2838 18.2937 19.3646 18.2813C19.4453 18.2689 19.4391 18.2067 19.638 18.2067C19.8368 18.2067 19.961 18.1632 19.9735 18.244C19.9859 18.3248 19.8866 18.331 19.756 18.449C19.6256 18.5671 19.495 18.6851 19.6007 18.7597C19.7063 18.8343 19.7498 18.971 19.7125 19.0207C19.6752 19.0704 19.638 19.1202 19.7249 19.1822C19.8119 19.2444 20.2282 19.2257 20.1288 19.3749C20.0293 19.524 19.787 19.6048 19.5322 19.611C19.2774 19.6172 19.4823 19.5426 18.9666 19.4929C18.451 19.4432 18.3641 19.5737 18.0037 19.3998C17.6433 19.2257 17.4071 19.3749 17.2083 19.058C17.0095 18.7411 17.0903 18.8965 16.8417 18.5671C16.5932 18.2378 16.7112 18.2378 16.4999 18.1073C16.2886 17.9768 16.1084 17.7904 16.2514 17.7904C16.3943 17.7904 16.326 17.6226 16.7671 17.9892C17.2082 18.3558 17.0902 18.3372 17.4133 18.5547C17.7364 18.7722 17.8421 18.797 17.9601 18.7722C18.0782 18.7473 18.2522 18.7722 18.1403 18.6293C18.0285 18.4863 17.9663 18.3062 18.0596 18.2751C18.1528 18.244 18.1465 18.3993 18.3019 18.2316C18.4572 18.0639 18.4572 18.0203 18.594 17.9644C18.7307 17.9085 18.6561 17.9644 18.7866 17.8836C18.9171 17.8029 18.9668 17.5978 19.0725 17.7034Z" fill="#040000"/>
<path d="M20.7813 18.4242C20.8489 18.5111 20.9615 18.623 21.0112 18.7163C21.0609 18.8096 21.1542 18.6374 21.3343 18.6426C21.5145 18.6479 21.7817 18.7473 21.8936 18.7971C22.0054 18.8468 22.1981 18.8778 22.3161 19.0394C22.4342 19.2009 22.5211 19.1077 22.5274 19.2693C22.5336 19.4308 22.5585 19.4122 22.6641 19.5054C22.7697 19.5986 22.7883 19.7726 22.6019 19.698C22.4155 19.6235 22.3596 19.3687 22.1608 19.3935C21.9619 19.4184 22.0427 19.4743 21.8874 19.5054C21.732 19.5365 21.6637 19.4805 21.4772 19.4681C21.2908 19.4557 21.1542 19.5178 21.2411 19.3501C21.3281 19.1823 21.3903 19.1761 21.0858 19.0518C20.7813 18.9275 20.6633 18.9896 20.6633 18.8591C20.6633 18.7287 20.7129 18.7162 20.5949 18.6044C20.4768 18.4925 20.4395 18.4117 20.5141 18.3558C20.5887 18.2999 20.7378 18.3682 20.7813 18.4242Z" fill="#040000"/>
<path d="M21.1415 20.2137C21.3466 20.3194 21.4273 20.5306 21.5268 20.4933C21.6263 20.456 21.589 20.3939 21.6634 20.1702C21.738 19.9465 21.7442 19.7166 21.8375 19.8099C21.9306 19.903 21.8437 20.085 21.9928 20.1432C22.142 20.2013 22.173 20.2449 22.2041 20.4188C22.2352 20.5929 22.2663 20.5369 22.4216 20.7171C22.577 20.8973 22.7165 20.8663 22.743 21.0713C22.7696 21.2763 23.0306 21.4876 23.043 21.6988C23.0554 21.9102 23.0927 22.0592 22.9373 22.3264C22.782 22.5936 22.7198 22.7302 22.6701 22.8422C22.6205 22.954 22.4713 23.0099 22.3098 23.0099C22.1482 23.0099 22.055 22.9416 21.9556 22.9664C21.8562 22.9913 21.7879 23.1156 21.6698 23.0286C21.5518 22.9416 21.4834 22.8298 21.4461 22.7614C21.4088 22.6931 21.3902 22.4631 21.2162 22.488C21.0423 22.5129 21.0671 22.5999 20.9614 22.488C20.8558 22.3762 20.9303 22.283 20.6196 22.2332C20.309 22.1835 20.2282 22.1587 20.0977 22.1897C19.9672 22.2208 19.8305 22.2643 19.6875 22.3762C19.5446 22.488 19.3209 22.4321 19.1966 22.488C19.0724 22.5439 18.8859 22.6683 18.7492 22.5937C18.6124 22.5191 18.6622 22.4818 18.6684 22.3079C18.6746 22.1339 18.6622 22.252 18.5752 21.9537C18.4883 21.6554 18.5256 21.6989 18.4448 21.5561C18.364 21.4131 18.3019 21.4815 18.4137 21.2765C18.5256 21.0715 18.4883 21.028 18.5504 20.9596C18.6125 20.8912 18.6684 20.9783 18.8797 20.8354C19.091 20.6924 19.1531 20.7546 19.3457 20.68C19.5384 20.6054 19.5819 20.3196 19.6999 20.2326C19.818 20.1456 19.8491 20.0773 19.936 20.0773C20.023 20.0773 20.1224 20.1269 20.2778 20.1891C20.4331 20.2513 20.402 20.2575 20.5326 20.1145C20.663 19.9716 20.5326 19.8349 20.7687 19.8597C21.0048 19.8846 21.0918 19.8473 21.1229 19.984C21.1539 20.1206 21.1415 20.2137 21.1415 20.2137Z" fill="#040000"/>
<path d="M25.4538 23.1467C25.578 22.9851 25.6402 22.9664 25.5967 22.78C25.5532 22.5936 25.5656 22.4474 25.7272 22.6137C25.8887 22.78 26.0689 22.8733 26.1932 22.8795C26.3174 22.8857 26.6157 22.9789 26.3112 23.2088C26.0068 23.4387 26.0627 23.2772 25.8203 23.619C25.578 23.9607 25.7645 23.9669 25.4724 24.1347C25.1803 24.3024 24.8572 24.377 24.9194 24.2279C24.9816 24.0788 24.9505 24.0788 25.2177 23.88C25.4849 23.6811 25.6588 23.532 25.6588 23.3643C25.6588 23.1964 25.4538 23.1467 25.4538 23.1467Z" fill="#040000"/>
<path d="M10.6157 21.4691C10.5038 21.3075 10.5038 21.2578 10.4914 20.9969C10.479 20.7359 10.392 20.6116 10.4914 20.4625C10.5909 20.3133 10.8518 20.0648 10.9512 19.8908C11.0507 19.7168 11.0755 19.344 11.1377 19.6795C11.1998 20.015 11.3987 20.2139 11.1004 20.6613C10.8021 21.1086 10.6157 21.4691 10.6157 21.4691Z" fill="#040000"/>
<path d="M4.63811 12.223C4.61323 12.1733 4.72508 12.0117 4.72508 12.0117C4.72508 12.0117 4.86182 11.9371 4.82454 11.6637C4.78725 11.3903 4.76237 11.5518 4.663 11.2908C4.56354 11.0299 4.41449 11.0795 4.56354 10.9056C4.71268 10.7316 4.88662 10.4707 4.92391 10.6819C4.96119 10.8931 4.87422 11.0299 4.96119 11.1293C5.04816 11.2288 5.22219 11.2493 5.32155 11.4129C5.42101 11.5766 5.81866 11.6388 5.52038 11.85C5.2221 12.0613 5.08545 11.9246 4.97359 12.0737C4.86173 12.223 4.63811 12.223 4.63811 12.223Z" fill="#040000"/>
<path d="M4.23999 12.024C4.43882 11.9122 4.5115 11.9371 4.5 11.7382C4.4885 11.5393 4.62524 11.3653 4.41393 11.3529C4.20271 11.3405 4.14054 11.4648 4.11565 11.5517C4.09076 11.6387 4.09076 11.6636 4.15293 11.7506C4.21511 11.8375 4.2275 11.9619 4.20262 12.024C4.17791 12.0862 4.23999 12.024 4.23999 12.024Z" fill="#040000"/>
<path d="M3.51932 10.0855C3.68086 9.97364 3.94186 10.0731 3.95425 9.8369C3.96665 9.60079 4.02883 9.53862 3.66846 9.51382C3.3081 9.48893 3.3081 9.48893 3.08439 9.51382C2.86068 9.53871 2.64945 9.31499 2.82339 9.65056C2.99733 9.98613 3.02222 10.0607 3.15896 10.0855C3.2957 10.1103 3.51932 10.0855 3.51932 10.0855Z" fill="#040000"/>
<path d="M28.5359 9.19077C28.3419 8.96904 28.0263 8.95467 28.2749 8.81792C28.5234 8.68127 28.6725 8.59421 28.9087 8.54453C29.1448 8.49484 29.3934 8.59421 29.7787 8.69367C30.1639 8.79313 30.7853 8.70607 31.0712 8.79313C31.3569 8.88009 31.4937 9.05412 31.5807 9.04163C31.6676 9.02924 31.9162 8.76824 32.1647 8.76824C32.4132 8.76824 32.5376 8.73095 33.0471 8.79313C33.5566 8.8553 34.0537 8.88009 34.0661 9.00444C34.0785 9.12869 34.0785 9.19086 34.2649 9.19086C34.4513 9.19086 34.6129 9.07901 34.7247 9.25304C34.8366 9.42706 35.0105 9.55132 34.9857 9.41458C34.9608 9.27792 34.8366 9.16607 34.9361 9.11629C35.0355 9.06661 35.3213 9.04172 35.3959 9.06661C35.4704 9.0915 35.7066 9.12878 35.7811 9.11629C35.8557 9.1039 35.806 8.97955 36.0545 9.05412C36.303 9.12869 36.3403 9.31512 36.3901 9.32752C36.4398 9.33991 36.5516 9.13642 36.564 9.0021C36.5764 8.8677 36.6883 8.8677 36.4647 8.69376C36.2409 8.51973 36.443 8.30851 36.6029 8.38308C36.7628 8.45765 36.6635 8.55711 36.825 8.71865C36.9866 8.88018 37.0114 9.01693 37.1233 8.96715C37.2352 8.91747 37.173 8.70616 37.3221 8.8677C37.4713 9.02924 37.5085 8.94784 37.6452 8.92017C37.7819 8.89249 37.6701 8.80552 37.8316 8.89249C37.9932 8.97946 38.2666 9.07892 38.0677 9.24046C37.8689 9.402 37.5706 9.3772 37.3594 9.50145C37.1481 9.62571 37.2103 9.58842 37.1481 9.73756C37.0859 9.8867 37.1108 9.8991 36.8623 9.96127C36.6137 10.0234 36.5392 9.97367 36.5516 10.185C36.564 10.3963 36.5392 10.4211 36.4522 10.533C36.3652 10.6448 36.4149 10.7443 36.5143 10.7939C36.6138 10.8436 36.7256 10.7567 36.7256 10.9058C36.7256 11.0549 36.912 11.1668 37.1605 11.1668C37.409 11.1668 37.5209 11.229 37.67 11.4153C37.8191 11.6017 37.6078 11.6141 37.8564 11.8502C38.1049 12.0863 38.3411 12.1982 38.3784 11.987C38.4157 11.7758 38.3784 11.726 38.4157 11.4775C38.453 11.229 38.6891 11.2041 38.5648 10.9804C38.4406 10.7567 38.2542 10.6573 38.4281 10.533C38.6021 10.4087 38.3908 10.2939 38.6891 10.2332C38.9874 10.1726 39.1862 10.1228 39.3105 10.3465C39.4347 10.5702 39.2981 10.7194 39.4223 10.8187C39.5466 10.9182 39.9318 10.7691 40.0064 10.6821C40.081 10.5951 40.2922 10.6075 40.3667 10.9306C40.4413 11.2537 40.491 11.3407 40.6029 11.378C40.7147 11.4153 40.7147 11.4899 40.8515 11.6141C40.9881 11.7384 41.2491 11.9372 40.8515 11.9745C40.4538 12.0118 40.1306 11.9621 39.9815 12.0987C39.8324 12.2354 39.82 12.136 39.9193 12.3225C40.0188 12.5089 39.9442 12.3846 40.0188 12.6207C40.0934 12.8568 40.4662 12.8568 40.1927 13.0184C39.9192 13.1799 39.969 13.2172 39.8075 13.1675C39.6459 13.1178 39.6086 12.761 39.4222 13.0513C39.2358 13.3416 39.2607 13.4534 39.0991 13.5404C38.9376 13.6273 38.9251 13.4534 38.7761 13.7268C38.6269 14.0002 38.863 14.0251 38.5276 14.3358C38.192 14.6464 38.0305 14.4973 38.0056 14.7583C37.9807 15.0193 38.1423 15.33 38.0552 15.3921C37.9683 15.4543 37.9807 15.4418 37.8813 15.2679C37.7819 15.0939 37.8316 14.9945 37.4837 14.9696C37.1357 14.9447 37.1606 14.8578 37.0238 15.0069C36.8871 15.156 37.0735 15.2057 36.6883 15.156C36.303 15.1064 36.2533 14.6465 36.1788 15.1809C36.1042 15.7153 36.0918 15.7774 36.2161 15.9265C36.3403 16.0757 36.6759 16.436 36.825 16.2745C36.9742 16.113 36.7877 15.9141 37.0736 15.9762C37.3594 16.0384 37.434 15.9638 37.3843 16.1254C37.3346 16.2869 36.9494 16.3118 37.26 16.4609C37.5707 16.6101 37.8317 16.436 37.8565 16.6722C37.8814 16.9084 37.8192 16.9705 37.8316 17.1072C37.844 17.2438 37.9062 17.3433 38.192 17.3433C38.4778 17.3433 38.4654 17.2314 38.54 17.3806C38.6145 17.5297 38.8506 17.4551 38.9501 17.2438C39.0495 17.0325 39.1241 16.7964 39.2732 17.045C39.4223 17.2935 39.4471 17.3433 39.5962 17.2438C39.7454 17.1444 39.7454 17.1444 39.7454 17.1444C39.7454 17.1444 39.9069 16.9952 40.0437 17.1195C40.1804 17.2437 40.404 17.1071 40.4538 17.281C40.5035 17.455 40.4289 17.4798 40.6402 17.542C40.8515 17.6042 41.1001 17.5047 41.2243 17.6787C41.3486 17.8527 41.013 17.7408 41.3734 17.9521C41.7338 18.1634 41.8457 18.1882 41.8209 18.3249C41.796 18.4617 41.8954 18.4865 42.2185 18.561C42.5416 18.6356 42.4919 18.5983 42.7529 18.7971C43.0139 18.996 43.2251 18.909 43.3122 19.0085C43.3992 19.1079 43.5483 19.1327 43.424 19.4061C43.2998 19.6795 43.1755 19.6174 43.0761 19.8286C42.9766 20.0399 42.8897 20.0896 42.9145 20.4625C42.9394 20.8353 42.9518 20.798 42.8773 20.9845C42.8027 21.1709 42.5293 21.1957 42.3056 21.3324C42.0819 21.4692 42.0695 21.3573 41.9203 21.7301C41.7712 22.1029 41.8582 21.9041 41.7339 22.2272C41.6096 22.5503 41.7836 22.3887 41.4232 22.5752C41.0629 22.7616 40.9261 22.6 40.8888 22.7119C40.8515 22.8238 41.1001 22.7368 40.8391 22.9729C40.5781 23.209 40.4663 23.2712 40.3048 23.3705C40.1432 23.4699 40.0438 23.5819 40.081 23.7931C40.1183 24.0043 40.3048 23.9919 40.0934 24.1907C39.8821 24.3896 39.7952 24.1907 39.7331 24.5138C39.6709 24.8369 39.6088 24.6878 39.6709 25.0233C39.7331 25.3589 40.0562 25.3589 39.7579 25.5453C39.4596 25.7317 39.1365 25.8187 38.9501 25.3714C38.7637 24.9239 38.7637 24.75 38.7637 24.4517C38.7637 24.1534 38.7264 24.3772 38.8755 23.8677C39.0247 23.3581 38.7761 23.5321 38.9004 22.9729C39.0247 22.4136 38.9999 21.8171 39.1241 21.407C39.2484 20.9969 39.5218 21.1087 39.2484 20.736C38.975 20.3631 38.9253 20.4253 38.6892 20.1767C38.4531 19.9282 38.6022 19.9779 38.4655 19.6796C38.3287 19.3813 38.2418 19.4062 38.1299 19.1825C38.0181 18.9588 37.9559 19.0333 38.0677 18.6606C38.1796 18.2877 37.9311 18.3002 38.1796 18.1884C38.4281 18.0765 38.3909 17.8031 38.3536 17.7036C38.3163 17.6042 38.54 17.5669 38.1921 17.5172C37.8441 17.4675 37.7447 17.5794 37.6204 17.3681C37.4962 17.1568 37.5955 17.1196 37.3346 16.9952C37.0736 16.871 36.7878 16.871 36.6884 16.7715C36.5889 16.6721 36.5889 16.6721 36.5889 16.6721C36.5889 16.6721 36.7753 16.5975 36.3528 16.5478C35.9303 16.4981 35.6196 16.5478 35.4083 16.2495C35.197 15.9512 35.2467 16.1253 35.197 15.8519C35.1473 15.5785 35.0851 15.5785 34.8863 15.4045C34.6875 15.2305 34.6875 15.1311 34.501 15.0565C34.3146 14.9819 34.2773 15.0068 34.2773 15.0441C34.2773 15.0814 34.2649 15.2305 34.4389 15.3672C34.6129 15.5039 34.6253 15.6282 34.6253 15.6903C34.6253 15.7524 34.3892 15.827 34.3892 15.827C34.3892 15.827 34.3892 15.7524 34.3146 15.5785C34.24 15.4045 34.2151 15.3175 34.066 15.1063C33.9169 14.895 33.8796 14.8702 33.8796 14.8702C33.8796 14.8702 33.7056 14.5968 33.4074 14.2364C33.1091 13.876 33.0221 14.0997 33.0221 13.6896C33.0221 13.2795 33.0967 13.2795 33.0221 12.9937C32.9475 12.7079 32.7736 12.5711 32.9227 12.5215C33.0718 12.4718 33.1588 12.3972 32.8854 12.1611C32.612 11.925 32.5125 12.0492 32.4132 11.7262C32.3137 11.4031 32.525 11.4279 32.1149 11.2787C31.7047 11.1296 31.655 11.0053 31.4686 10.9184C31.2822 10.8314 31.1703 10.7817 31.1703 10.7817C31.1703 10.7817 31.2076 10.7444 30.7602 10.7072C30.3128 10.6699 30.3626 10.4586 30.027 10.5953C29.6914 10.732 29.6417 10.7568 29.6417 10.7568C29.6417 10.7568 29.8282 10.5331 29.5051 10.558C29.182 10.5829 29.2565 10.6575 29.2441 10.8066C29.2317 10.9558 29.2814 11.1297 29.0577 11.2168C28.834 11.3037 28.5109 11.5398 28.6351 11.2913C28.7594 11.0427 29.0701 10.8688 28.9582 10.8066C28.8464 10.7444 28.6102 10.9433 28.5854 10.7444C28.5605 10.5456 28.6102 10.4462 28.3492 10.4338C28.0883 10.4214 27.877 10.3095 28.0759 10.2225C28.2747 10.1355 28.4611 10.1728 28.5233 9.96145C28.5854 9.75014 29.0453 9.70046 28.5357 9.71295C28.0262 9.72534 27.8025 9.72535 27.8646 9.62598C27.9268 9.52652 27.9019 9.34018 28.2623 9.38987C28.6228 9.43928 28.6228 9.29014 28.5359 9.19077Z" fill="#040000"/>
</g>
<path d="M8.15458 19.7808C8.09987 19.6578 8.03159 19.5553 7.94273 19.4733C7.84705 19.3913 7.74454 19.3298 7.62145 19.2819C7.50528 19.2409 7.37537 19.2205 7.24554 19.2205C7.1088 19.2205 6.97898 19.2409 6.86281 19.2819C6.84915 19.2887 6.82867 19.2956 6.81492 19.3025C6.71924 19.3504 6.62356 19.4049 6.54836 19.4734C6.45267 19.5554 6.3843 19.6579 6.32959 19.7809C6.27487 19.8972 6.24756 20.0406 6.24756 20.191V21.5718C6.24756 21.729 6.27487 21.8656 6.32959 21.9886C6.38421 22.1117 6.45258 22.2074 6.54836 22.2963C6.63721 22.3783 6.74655 22.4397 6.86272 22.4807C6.97889 22.5218 7.1088 22.5423 7.24545 22.5423C7.307 22.5423 7.37537 22.5354 7.43682 22.5286C7.49836 22.5149 7.56664 22.5012 7.62136 22.4807C7.74445 22.4397 7.84696 22.3783 7.94264 22.2963C8.0315 22.2074 8.09987 22.1117 8.15449 21.9886C8.20921 21.8656 8.23652 21.729 8.23652 21.5718V20.191C8.23661 20.0406 8.2093 19.897 8.15458 19.7808ZM7.64193 21.5648C7.64193 21.7083 7.60096 21.8108 7.53259 21.893C7.46422 21.9613 7.3822 22.0022 7.27968 22.0091H7.24554C7.12255 22.0091 7.02677 21.9681 6.95166 21.893C6.88329 21.8108 6.84232 21.7084 6.84232 21.5648V20.2047C6.84232 20.1773 6.84232 20.1568 6.84915 20.1363C6.84915 20.1295 6.85598 20.1227 6.85598 20.1227C6.86281 20.0202 6.89695 19.945 6.95166 19.8766C6.96532 19.863 6.97898 19.8493 6.99263 19.8424C7.061 19.7809 7.14303 19.7603 7.24554 19.7603C7.3618 19.7603 7.45739 19.7946 7.53268 19.8766C7.60106 19.9586 7.64202 20.068 7.64202 20.2047L7.64193 21.5648Z" fill="#CECECF"/>
<path d="M9.74068 19.2476L9.07764 19.8286V20.4711L9.74068 19.8901V22.5147H10.3422V19.2476H9.74068Z" fill="#CECECF"/>
<path d="M11.4424 19.2476V20.3002H12.0097V19.7875H12.8777L11.8115 22.5147H12.4608L13.5202 19.7875V19.2476H11.4424Z" fill="#CECECF"/>
<path d="M15.9808 19.7808C15.926 19.6578 15.8578 19.5553 15.7689 19.4733C15.6732 19.3913 15.5707 19.3298 15.4476 19.2819C15.3246 19.2409 15.2015 19.2205 15.0717 19.2205C14.935 19.2205 14.8051 19.2409 14.689 19.2819C14.566 19.3298 14.4634 19.3913 14.3745 19.4733C14.2788 19.5553 14.2036 19.6578 14.1558 19.7808C14.1011 19.8971 14.0737 20.0406 14.0737 20.191V21.5717C14.0737 21.7289 14.1011 21.8655 14.1558 21.9885C14.2036 22.1116 14.2788 22.2073 14.3745 22.2962C14.4634 22.3782 14.5659 22.4397 14.689 22.4806C14.8051 22.5217 14.9351 22.5422 15.0717 22.5422C15.2015 22.5422 15.3246 22.5217 15.4476 22.4806C15.5706 22.4397 15.6732 22.3782 15.7689 22.2962C15.8578 22.2073 15.9261 22.1116 15.9808 21.9885C16.0354 21.8655 16.0628 21.7289 16.0628 21.5717V20.191C16.0627 20.0406 16.0354 19.897 15.9808 19.7808ZM15.4613 21.5648C15.4613 21.7083 15.4271 21.8108 15.3588 21.893C15.2836 21.9681 15.1879 22.0091 15.0717 22.0091C14.9487 22.0091 14.853 21.9681 14.7778 21.893C14.7096 21.8108 14.6685 21.7084 14.6685 21.5648V20.2047C14.6685 20.068 14.7096 19.9585 14.7778 19.8766C14.853 19.7946 14.9487 19.7603 15.0717 19.7603C15.1879 19.7603 15.2836 19.7946 15.3588 19.8766C15.4271 19.9586 15.4613 20.068 15.4613 20.2047V21.5648Z" fill="#CECECF"/>
<path d="M20.9841 21.1204C20.9431 20.9974 20.8748 20.8948 20.7927 20.8128C20.7107 20.7308 20.6219 20.6693 20.5193 20.6214C20.4168 20.5805 20.3074 20.5599 20.1981 20.5599C20.1571 20.5599 20.116 20.5599 20.0751 20.5667C20.0341 20.5736 19.993 20.5804 19.9589 20.6009L20.1844 20.1567L20.6355 19.2476H19.9862L19.9178 19.3843V19.3911L19.8358 19.5552L19.2959 20.6624C19.289 20.6761 19.2822 20.6898 19.2754 20.7035C19.207 20.8401 19.1524 20.97 19.1045 21.0999C19.0498 21.2365 19.0225 21.387 19.0225 21.5373C19.0225 21.6945 19.0429 21.838 19.0977 21.9678C19.1524 22.0909 19.2207 22.2003 19.3164 22.2823C19.3848 22.3507 19.4531 22.3986 19.5419 22.4395H19.5488C19.5762 22.4532 19.6103 22.4669 19.6376 22.4805C19.7606 22.5216 19.8974 22.542 20.0409 22.542C20.1844 22.542 20.3143 22.5216 20.4373 22.4738C20.5671 22.4327 20.6697 22.3644 20.7654 22.2755L20.7723 22.2686C20.8611 22.1798 20.9295 22.0842 20.9773 21.9543C21.032 21.8312 21.0593 21.6877 21.0593 21.5237C21.0593 21.3733 21.032 21.2433 20.9841 21.1204ZM20.0409 21.0521C20.1708 21.0521 20.2733 21.093 20.3486 21.1819C20.4238 21.2639 20.4647 21.387 20.4647 21.5305C20.4647 21.6808 20.4238 21.8038 20.3417 21.8859C20.2597 21.9678 20.164 22.0089 20.0409 22.0089C19.9179 22.0089 19.8153 21.9678 19.7333 21.8859C19.6581 21.8038 19.6171 21.6808 19.6171 21.5305C19.6171 21.3801 19.6581 21.2571 19.7333 21.1751C19.8153 21.093 19.9178 21.0521 20.0409 21.0521Z" fill="#CECECF"/>
<path d="M23.6224 20.9562C23.5951 20.8127 23.513 20.6692 23.3831 20.5463C23.3148 20.4778 23.2328 20.4232 23.1302 20.3821C23.0277 20.3411 22.9115 20.3207 22.768 20.3207C22.6586 20.3207 22.563 20.3412 22.4741 20.3754C22.3852 20.4095 22.3237 20.4436 22.2827 20.4847V19.7875H23.6019V19.2476H21.7359V21.093H22.2827C22.3032 21.0316 22.3443 20.97 22.4057 20.9153C22.4467 20.8744 22.4946 20.847 22.563 20.8401C22.5971 20.8265 22.6382 20.8265 22.6791 20.8265C22.8294 20.8265 22.932 20.8812 22.9867 20.9768C23.0482 21.0793 23.0823 21.223 23.0823 21.4142C23.0823 21.5167 23.0687 21.6124 23.0549 21.7014C23.0549 21.715 23.0481 21.7219 23.0413 21.7288C23.0413 21.7356 23.0413 21.7356 23.0413 21.7356C23.0208 21.8039 22.9935 21.8586 22.9524 21.8997C22.8772 21.9748 22.7884 22.009 22.6654 22.009C22.5424 22.009 22.4466 21.9748 22.3852 21.8997C22.3236 21.8312 22.2826 21.7356 22.269 21.6057H21.6675C21.6811 21.7219 21.7016 21.838 21.7359 21.9543C21.77 22.0774 21.8315 22.1798 21.934 22.2824C22.0024 22.3576 22.1049 22.4123 22.228 22.4669C22.3442 22.5216 22.4946 22.5421 22.6655 22.5421C22.727 22.5421 22.7748 22.5421 22.8227 22.5285H22.8295C22.932 22.5216 23.0209 22.5011 23.1029 22.467C23.2191 22.4124 23.3148 22.3508 23.39 22.2825C23.5062 22.1594 23.5813 22.0296 23.6224 21.8929C23.6565 21.7562 23.6771 21.5989 23.6771 21.4144C23.6771 21.257 23.6565 21.1066 23.6224 20.9562Z" fill="#CECECF"/>
<path d="M24.2446 19.2476V20.3002H24.812V19.7875H25.6801L24.6206 22.5147H25.2631L26.3294 19.7875V19.2476H24.2446Z" fill="#CECECF"/>
<path d="M28.817 19.8011C28.7691 19.6713 28.694 19.5688 28.6052 19.48C28.5095 19.3979 28.407 19.3296 28.2772 19.2886C28.1542 19.2407 28.0242 19.2202 27.8807 19.2202C27.7372 19.2202 27.6005 19.2407 27.4775 19.2886C27.3545 19.3365 27.245 19.4048 27.1494 19.4868C27.0605 19.5755 26.9921 19.6851 26.9375 19.808C26.8829 19.9378 26.8555 20.0814 26.8555 20.2386C26.8555 20.3958 26.8829 20.5326 26.9307 20.6486C26.9786 20.7649 27.0469 20.8674 27.122 20.9493C27.2041 21.0315 27.2997 21.0997 27.4023 21.1407C27.5048 21.1886 27.6141 21.2092 27.7235 21.2092C27.7645 21.2092 27.8056 21.2092 27.8465 21.2023C27.8875 21.1955 27.9286 21.1818 27.9627 21.1681L27.286 22.5146H27.9353L28.6257 21.1067C28.7009 20.9563 28.7624 20.8059 28.817 20.6692C28.8717 20.5257 28.8991 20.3822 28.8991 20.2318C28.8991 20.0677 28.8717 19.9241 28.817 19.8011ZM28.1814 20.5872C28.0994 20.6692 28.0037 20.7103 27.8807 20.7103C27.7509 20.7103 27.6483 20.6692 27.5731 20.5872C27.491 20.4983 27.4569 20.3821 27.4569 20.2386C27.4569 20.0814 27.4979 19.9652 27.5731 19.8832C27.6551 19.8011 27.7576 19.7601 27.8807 19.7601C28.0037 19.7601 28.0994 19.8011 28.1814 19.8832C28.2634 19.9652 28.2976 20.0814 28.2976 20.2386C28.2976 20.389 28.2634 20.5052 28.1814 20.5872Z" fill="#CECECF"/>
<path d="M32.7338 19.2476L32.064 19.8286V20.4711L32.7338 19.8901V22.5147H33.3285V19.2476H32.7338Z" fill="#CECECF"/>
<path d="M34.4287 19.2476V20.3002H35.0028V19.7875H35.8641L34.8046 22.5147H35.4539L36.5134 19.7875V19.2476H34.4287Z" fill="#CECECF"/>
<path d="M37.9487 19.2476L37.2856 19.8286V20.4711L37.9487 19.8901V22.5147H38.5501V19.2476H37.9487Z" fill="#CECECF"/>
<path d="M41.6125 19.8011C41.5646 19.6713 41.4895 19.5688 41.4007 19.48C41.305 19.3979 41.2024 19.3296 41.0726 19.2886C40.9496 19.2407 40.8197 19.2202 40.6762 19.2202C40.5326 19.2202 40.396 19.2407 40.2729 19.2886C40.1499 19.3365 40.0405 19.4048 39.9448 19.4868C39.8559 19.5755 39.7807 19.6851 39.7329 19.808C39.6782 19.9378 39.6509 20.0814 39.6509 20.2386C39.6509 20.3958 39.6782 20.5326 39.7261 20.6486C39.774 20.7649 39.8422 20.8674 39.9174 20.9493C39.9995 21.0315 40.0883 21.0997 40.1977 21.1407C40.3002 21.1886 40.4095 21.2092 40.5189 21.2092C40.5598 21.2092 40.6009 21.2092 40.6419 21.2023C40.6829 21.1955 40.7239 21.1818 40.7581 21.1681L40.0814 22.5146H40.7307L41.4211 21.1067C41.4963 20.9563 41.5578 20.8059 41.6124 20.6692C41.6671 20.5257 41.6945 20.3822 41.6945 20.2318C41.6946 20.0677 41.6672 19.9241 41.6125 19.8011ZM40.9769 20.5872C40.8949 20.6692 40.7992 20.7103 40.6762 20.7103C40.5464 20.7103 40.4438 20.6692 40.3686 20.5872C40.2865 20.4983 40.2524 20.3821 40.2524 20.2386C40.2524 20.0814 40.2934 19.9652 40.3686 19.8832C40.4506 19.8011 40.5531 19.7601 40.6762 19.7601C40.7992 19.7601 40.8949 19.8011 40.9769 19.8832C41.0589 19.9652 41.0931 20.0814 41.0931 20.2386C41.0931 20.389 41.0589 20.5052 40.9769 20.5872Z" fill="#CECECF"/>
<path d="M29.5829 27.853C29.542 27.7642 29.4872 27.689 29.4257 27.6274C29.3573 27.566 29.2821 27.5181 29.1933 27.4908C29.1044 27.4565 29.0087 27.4429 28.9131 27.4429C28.8105 27.4429 28.7217 27.4565 28.6328 27.4908C28.544 27.5182 28.4688 27.566 28.4004 27.6274C28.332 27.689 28.2774 27.7642 28.2364 27.853C28.2022 27.9419 28.1816 28.0444 28.1816 28.1537V29.1653C28.1816 29.2815 28.2021 29.384 28.2364 29.4729C28.2774 29.5617 28.332 29.6369 28.4004 29.6984C28.4688 29.7599 28.544 29.8077 28.6328 29.8351C28.7217 29.8693 28.8105 29.8829 28.9131 29.8829C29.0087 29.8829 29.1044 29.8693 29.1933 29.8351C29.2821 29.8077 29.3573 29.7599 29.4257 29.6984C29.4872 29.6369 29.5419 29.5617 29.5829 29.4729C29.624 29.384 29.6376 29.2815 29.6376 29.1653V28.1537C29.6376 28.0445 29.624 27.942 29.5829 27.853ZM29.2002 29.1654C29.2002 29.2679 29.1729 29.3431 29.125 29.4046C29.0703 29.4592 29.002 29.4865 28.9131 29.4865C28.8243 29.4865 28.7559 29.4592 28.7013 29.4046C28.6466 29.3431 28.6193 29.2679 28.6193 29.1654V28.1606C28.6193 28.065 28.6466 27.9829 28.7013 27.9214C28.756 27.8668 28.8243 27.8394 28.9131 27.8394C29.002 27.8394 29.0704 27.8668 29.125 27.9214C29.1729 27.9829 29.2002 28.065 29.2002 28.1606V29.1654Z" fill="#CECECF"/>
<path d="M31.5378 28.7211C31.5172 28.6118 31.4558 28.5092 31.3601 28.4135C31.3122 28.3657 31.2507 28.3246 31.1755 28.2972C31.1003 28.2631 31.0115 28.2494 30.909 28.2494C30.8338 28.2494 30.7587 28.2631 30.6971 28.2904C30.6288 28.3109 30.581 28.3383 30.5536 28.3725V27.853H31.5242V27.4634H30.1503V28.8167H30.5536C30.5673 28.7689 30.6015 28.7279 30.6425 28.6869C30.6903 28.6458 30.7518 28.6186 30.8475 28.6186C30.95 28.6186 31.0252 28.6596 31.073 28.7348C31.1141 28.81 31.1346 28.9126 31.1346 29.056C31.1346 29.1312 31.1346 29.1995 31.1209 29.2612C31.1073 29.3226 31.08 29.3705 31.0457 29.4115C30.991 29.4661 30.9227 29.4866 30.8339 29.4866C30.745 29.4866 30.6698 29.4661 30.6288 29.4115C30.581 29.3567 30.5536 29.2884 30.54 29.1927H30.1025C30.1094 29.2815 30.123 29.3636 30.1504 29.4524C30.1777 29.5345 30.2256 29.6165 30.3008 29.6916C30.3486 29.7395 30.4238 29.7873 30.5127 29.8282C30.6015 29.8625 30.7109 29.883 30.8339 29.883C30.9569 29.883 31.0663 29.8625 31.1551 29.8282C31.2372 29.7873 31.3124 29.7395 31.367 29.6848C31.449 29.6028 31.5105 29.5071 31.5379 29.4046C31.5652 29.3089 31.5789 29.1859 31.5789 29.056C31.5788 28.9399 31.5651 28.8304 31.5378 28.7211Z" fill="#CECECF"/>
<path d="M32.7885 27.2104L31.8247 30.1154H32.2348L33.1985 27.2104H32.7885Z" fill="#CECECF"/>
<path d="M34.1073 27.4634L33.6152 27.8873V28.3589L34.1073 27.9351V29.8625H34.5448V27.4634H34.1073Z" fill="#CECECF"/>
<path d="M36.0215 27.4634L35.5293 27.8873V28.3589L36.0215 27.9351V29.8625H36.4589V27.4634H36.0215Z" fill="#CECECF"/>
<path d="M37.2993 28.6936V29.1036H38.3382V28.6936H37.2993Z" fill="#CECECF"/>
<path d="M40.2113 27.853C40.1703 27.7642 40.1156 27.689 40.0472 27.6274C39.9858 27.566 39.9037 27.5181 39.8149 27.4908C39.726 27.4565 39.6372 27.4429 39.5415 27.4429C39.439 27.4429 39.3501 27.4565 39.2613 27.4908C39.1724 27.5182 39.0972 27.566 39.0288 27.6274C38.9605 27.689 38.9058 27.7642 38.8648 27.853C38.8238 27.9419 38.8101 28.0444 38.8101 28.1537V29.1653C38.8101 29.2815 38.8237 29.384 38.8648 29.4729C38.9057 29.5617 38.9605 29.6369 39.0288 29.6984C39.0972 29.7599 39.1724 29.8077 39.2613 29.8351C39.3501 29.8693 39.439 29.8829 39.5415 29.8829C39.6372 29.8829 39.726 29.8693 39.8149 29.8351C39.9037 29.8077 39.9858 29.7599 40.0472 29.6984C40.1156 29.6369 40.1703 29.5617 40.2113 29.4729C40.2454 29.384 40.2659 29.2815 40.2659 29.1653V28.1537C40.2659 28.0445 40.2454 27.942 40.2113 27.853ZM39.8284 29.1654C39.8284 29.2679 39.801 29.3431 39.7464 29.4046C39.6986 29.4592 39.6234 29.4865 39.5414 29.4865C39.4525 29.4865 39.3773 29.4592 39.3295 29.4046C39.2748 29.3431 39.2475 29.2679 39.2475 29.1654V28.1606C39.2475 28.065 39.2748 27.9829 39.3295 27.9214C39.3774 27.8668 39.4525 27.8394 39.5414 27.8394C39.6234 27.8394 39.6986 27.8668 39.7464 27.9214C39.8011 27.9829 39.8284 28.065 39.8284 28.1606V29.1654Z" fill="#CECECF"/>
<path d="M42.1253 27.853C42.0844 27.7642 42.0296 27.689 41.9681 27.6274C41.8997 27.566 41.8246 27.5181 41.7358 27.4908C41.6469 27.4565 41.5512 27.4429 41.4554 27.4429C41.3529 27.4429 41.2641 27.4565 41.1752 27.4908C41.0864 27.5182 41.0112 27.566 40.9428 27.6274C40.8745 27.689 40.8198 27.7642 40.7787 27.853C40.7446 27.9419 40.7241 28.0444 40.7241 28.1537V29.1653C40.7241 29.2815 40.7446 29.384 40.7787 29.4729C40.8197 29.5617 40.8744 29.6369 40.9428 29.6984C41.0112 29.7599 41.0864 29.8077 41.1752 29.8351C41.2641 29.8693 41.3529 29.8829 41.4554 29.8829C41.5511 29.8829 41.6468 29.8693 41.7358 29.8351C41.8246 29.8077 41.8998 29.7599 41.9681 29.6984C42.0296 29.6369 42.0844 29.5617 42.1253 29.4729C42.1663 29.384 42.18 29.2815 42.18 29.1653V28.1537C42.18 28.0445 42.1664 27.942 42.1253 27.853ZM41.7426 29.1654C41.7426 29.2679 41.7152 29.3431 41.6674 29.4046C41.6128 29.4592 41.5444 29.4865 41.4555 29.4865C41.3668 29.4865 41.2983 29.4592 41.2437 29.4046C41.1891 29.3431 41.1617 29.2679 41.1617 29.1654V28.1606C41.1617 28.065 41.1891 27.9829 41.2437 27.9214C41.2984 27.8668 41.3668 27.8394 41.4555 27.8394C41.5444 27.8394 41.6128 27.8668 41.6674 27.9214C41.7153 27.9829 41.7426 28.065 41.7426 28.1606V29.1654Z" fill="#CECECF"/>
<path d="M6.58936 23.3555V23.5742H6.91746V24.6064H7.16355V23.5742H7.49166V23.3555H6.58936Z" fill="#CECECF"/>
<path d="M8.59929 23.6836C8.58563 23.6426 8.57871 23.6085 8.55832 23.5742C8.54466 23.54 8.51726 23.5058 8.48312 23.4717C8.44215 23.4307 8.39427 23.3965 8.33964 23.376C8.28493 23.3555 8.22338 23.3418 8.1551 23.3418C8.0799 23.3418 8.01836 23.3555 7.96373 23.376C7.90911 23.3965 7.86122 23.4307 7.82025 23.4717C7.78611 23.5059 7.75871 23.5401 7.74505 23.5742C7.72448 23.6085 7.71765 23.6426 7.70409 23.6836C7.69726 23.7246 7.69726 23.7725 7.69043 23.8203V24.1415C7.69726 24.1893 7.69726 24.2304 7.70409 24.2714C7.71774 24.3124 7.72457 24.3534 7.74505 24.3876C7.75871 24.415 7.78602 24.4491 7.82025 24.4833C7.86122 24.5243 7.90911 24.5585 7.96373 24.5789C8.01845 24.6063 8.07999 24.6132 8.1551 24.6132C8.22347 24.6132 8.28502 24.6063 8.33964 24.5789C8.39427 24.5585 8.44215 24.5243 8.48312 24.4833C8.51726 24.4491 8.54466 24.4149 8.55832 24.3876C8.5788 24.3534 8.58563 24.3124 8.59929 24.2714C8.60612 24.2304 8.61295 24.1893 8.61295 24.1415V23.8203C8.61295 23.7724 8.60612 23.7246 8.59929 23.6836ZM8.36686 24.1279C8.36686 24.1689 8.36004 24.1962 8.35321 24.2235C8.35321 24.2509 8.34638 24.2714 8.33955 24.2851C8.33272 24.2987 8.31898 24.3124 8.30532 24.326C8.29166 24.3466 8.27118 24.367 8.24387 24.3738C8.21655 24.3875 8.18915 24.3943 8.15501 24.3943C8.12087 24.3943 8.08673 24.3875 8.05933 24.3738C8.03884 24.367 8.01144 24.3465 7.99105 24.326C7.98422 24.3124 7.97047 24.2987 7.96364 24.2851C7.95682 24.2714 7.94999 24.2508 7.94999 24.2235C7.94316 24.1961 7.93633 24.1689 7.93633 24.1279V23.8271C7.93633 23.793 7.94316 23.7588 7.94999 23.7314C7.94999 23.704 7.95682 23.6836 7.96364 23.67C7.97047 23.6563 7.98413 23.6426 7.99105 23.6289C8.01153 23.6085 8.03893 23.5948 8.05933 23.5811C8.08673 23.5675 8.12087 23.5607 8.15501 23.5607C8.18915 23.5607 8.21655 23.5675 8.24387 23.5811C8.27118 23.5948 8.29175 23.6085 8.30532 23.6289C8.31898 23.6426 8.33272 23.6563 8.33955 23.67C8.34638 23.6836 8.35321 23.7041 8.35321 23.7314C8.36004 23.7589 8.36686 23.793 8.36686 23.8271V24.1279Z" fill="#CECECF"/>
<path d="M9.77481 23.5946C9.76115 23.5467 9.73384 23.5056 9.69278 23.4715C9.65864 23.4305 9.61758 23.4032 9.56296 23.3826C9.51507 23.3621 9.45362 23.3552 9.39207 23.3552H8.90674V24.6061H9.15282V24.1345H9.39198C9.45353 24.1345 9.51498 24.1209 9.56287 24.1003C9.61758 24.0797 9.65855 24.0524 9.69269 24.0182C9.73375 23.984 9.76106 23.9431 9.77472 23.8952C9.79529 23.8473 9.80203 23.7928 9.80203 23.7449C9.80212 23.6903 9.79538 23.6425 9.77481 23.5946ZM9.51507 23.868C9.48093 23.8954 9.43304 23.9158 9.37833 23.9158H9.15282V23.5741H9.37833C9.43304 23.5741 9.48084 23.5877 9.51507 23.6151C9.54238 23.6493 9.56296 23.6903 9.56296 23.745C9.56296 23.7929 9.54238 23.8338 9.51507 23.868Z" fill="#CECECF"/>
<path d="M10.8754 23.5742V23.3555H10.0552V24.6064H10.8754V24.3876H10.3013V24.0801H10.7933V23.8613H10.3013V23.5742H10.8754Z" fill="#CECECF"/>
<path d="M11.7229 24.3466C11.6888 24.3807 11.6409 24.3944 11.5794 24.3944C11.5453 24.3944 11.5179 24.3876 11.4906 24.3807C11.4633 24.3671 11.4427 24.3534 11.4222 24.3329C11.4154 24.3193 11.4017 24.3056 11.3949 24.2851C11.3881 24.2715 11.3812 24.2509 11.3744 24.2236C11.3744 24.1962 11.3676 24.169 11.3676 24.128C11.3676 24.0869 11.3607 24.039 11.3607 23.9776C11.3607 23.9161 11.3676 23.8683 11.3676 23.8273C11.3676 23.7931 11.3744 23.7589 11.3744 23.7316C11.3812 23.7042 11.3881 23.6837 11.3949 23.6702C11.4017 23.6565 11.4154 23.6359 11.4222 23.6291C11.4427 23.6086 11.4633 23.5881 11.4906 23.5813C11.5179 23.5676 11.5453 23.5608 11.5794 23.5608C11.6409 23.5608 11.6888 23.5745 11.7229 23.6087C11.7571 23.6428 11.7776 23.6838 11.7913 23.7385H12.0374C12.0169 23.6087 11.9622 23.5061 11.8801 23.4446C11.7981 23.3762 11.6956 23.342 11.5794 23.342C11.5111 23.342 11.4427 23.3557 11.3881 23.3763C11.3402 23.3968 11.2855 23.431 11.2446 23.472C11.2172 23.5061 11.1899 23.5403 11.1694 23.5745C11.1557 23.6087 11.1421 23.6428 11.1352 23.6838C11.1284 23.7249 11.1216 23.7728 11.1216 23.8206V24.1417C11.1216 24.1895 11.1284 24.2306 11.1352 24.2717C11.1421 24.3126 11.1558 24.3537 11.1694 24.3878C11.19 24.4152 11.2173 24.4494 11.2446 24.4835C11.2855 24.5246 11.3403 24.5587 11.3881 24.5792C11.4428 24.6066 11.5111 24.6134 11.5794 24.6134C11.6956 24.6134 11.7982 24.5792 11.8801 24.5177C11.9622 24.4494 12.0169 24.3537 12.0374 24.2169H11.7913C11.7776 24.2714 11.7571 24.3124 11.7229 24.3466Z" fill="#CECECF"/>
<path d="M13.1716 23.8203C13.1716 23.7725 13.1648 23.7246 13.158 23.6836C13.1511 23.6426 13.1374 23.6085 13.117 23.5742C13.1033 23.54 13.076 23.5058 13.0486 23.4717C13.0077 23.4307 12.9598 23.3965 12.9052 23.376C12.8504 23.3555 12.7889 23.3418 12.7138 23.3418C12.6386 23.3418 12.577 23.3555 12.5224 23.376C12.4677 23.3965 12.4199 23.4307 12.3788 23.4717C12.3447 23.5059 12.3241 23.5401 12.3036 23.5742C12.29 23.6085 12.2762 23.6426 12.2695 23.6836C12.2627 23.7246 12.2559 23.7725 12.2559 23.8203C12.2559 23.8681 12.249 23.916 12.249 23.9775C12.249 24.039 12.2559 24.0938 12.2559 24.1416C12.2559 24.1894 12.2627 24.2304 12.2695 24.2715C12.2763 24.3125 12.29 24.3535 12.3036 24.3877C12.3241 24.4151 12.3446 24.4492 12.3788 24.4834C12.4198 24.5244 12.4677 24.5586 12.5224 24.579C12.577 24.6064 12.6386 24.6133 12.7138 24.6133C12.789 24.6133 12.8505 24.6064 12.9052 24.579C12.9598 24.5586 13.0077 24.5244 13.0486 24.4834C13.076 24.4492 13.1033 24.415 13.117 24.3877C13.1375 24.3535 13.1511 24.3125 13.158 24.2715C13.1648 24.2304 13.1716 24.1894 13.1716 24.1416C13.1716 24.0938 13.1785 24.0391 13.1785 23.9775C13.1785 23.916 13.1716 23.8681 13.1716 23.8203ZM12.9255 24.1279C12.9255 24.1689 12.9187 24.1962 12.9187 24.2235C12.9119 24.2509 12.9051 24.2714 12.8982 24.2851C12.8914 24.2987 12.8846 24.3124 12.8709 24.326C12.8503 24.3466 12.83 24.367 12.8026 24.3738C12.7752 24.3875 12.7478 24.3943 12.7137 24.3943C12.6796 24.3943 12.6522 24.3875 12.6248 24.3738C12.5975 24.367 12.577 24.3465 12.5565 24.326C12.5428 24.3124 12.536 24.2987 12.5292 24.2851C12.5155 24.2714 12.5155 24.2508 12.5086 24.2235C12.5018 24.1961 12.5018 24.1689 12.4949 24.1279V23.8271C12.5018 23.793 12.5018 23.7588 12.5086 23.7314C12.5154 23.704 12.5154 23.6836 12.5292 23.67C12.536 23.6563 12.5428 23.6426 12.5565 23.6289C12.577 23.6085 12.5974 23.5948 12.6248 23.5811C12.6522 23.5675 12.6796 23.5607 12.7137 23.5607C12.7478 23.5607 12.7752 23.5675 12.8026 23.5811C12.83 23.5948 12.8504 23.6085 12.8709 23.6289C12.8846 23.6426 12.8914 23.6563 12.8982 23.67C12.9051 23.6836 12.9119 23.7041 12.9187 23.7314C12.9187 23.7589 12.9255 23.793 12.9255 23.8271C12.9324 23.8681 12.9324 23.916 12.9324 23.9774C12.9324 24.039 12.9324 24.0869 12.9255 24.1279Z" fill="#CECECF"/>
<path d="M14.1835 23.3555V24.121L13.6846 23.3555H13.4658V24.6064H13.7119V23.834L14.2108 24.6064H14.4295V23.3555H14.1835Z" fill="#CECECF"/>
<path d="M16.1042 24.128C16.0905 24.0938 16.0701 24.0595 16.0427 24.0322C16.029 24.0186 16.0153 24.0049 16.0017 23.9981C15.988 23.9844 15.9744 23.9776 15.9471 23.964C16.0496 23.9024 16.1043 23.8204 16.1043 23.6973C16.1043 23.6427 16.0906 23.5948 16.077 23.5538C16.0565 23.5128 16.0291 23.4786 15.9949 23.4446C15.9676 23.424 15.9471 23.4103 15.9129 23.3967C15.9061 23.3899 15.8924 23.383 15.8788 23.3762C15.8241 23.3625 15.7763 23.3557 15.7147 23.3557H15.2158V24.6066H15.7353C15.7967 24.6066 15.8515 24.593 15.8925 24.5792C15.9404 24.5587 15.9814 24.5381 16.0155 24.504C16.0497 24.4767 16.0771 24.4356 16.0907 24.3947C16.1112 24.3537 16.1181 24.2991 16.1181 24.2444C16.1179 24.2031 16.111 24.1621 16.1042 24.128ZM15.4548 23.5743H15.6941C15.7077 23.5743 15.7215 23.5743 15.7283 23.5811C15.7693 23.5811 15.7897 23.588 15.8171 23.6085C15.8445 23.6358 15.8581 23.6701 15.8581 23.7179C15.8581 23.7589 15.8445 23.7932 15.8171 23.8204C15.7829 23.8477 15.7488 23.8614 15.6941 23.8614H15.4548V23.5743ZM15.8308 24.3467C15.8035 24.374 15.7624 24.3877 15.7146 24.3877H15.4549V24.0801H15.7146C15.7625 24.0801 15.8035 24.0938 15.8308 24.1212C15.8582 24.1485 15.8787 24.1827 15.8787 24.2305C15.8786 24.2783 15.8581 24.3193 15.8308 24.3467Z" fill="#CECECF"/>
<path d="M16.9242 23.3555H16.7328L16.2749 24.6064H16.5278L16.603 24.3808H17.0473L17.1225 24.6064H17.3754L16.9242 23.3555ZM16.6713 24.1757L16.8353 23.7246L16.9857 24.1757H16.6713Z" fill="#CECECF"/>
<path d="M18.2914 23.3555V24.121L17.7924 23.3555H17.5806V24.6064H17.8198V23.834L18.3188 24.6064H18.5376V23.3555H18.2914Z" fill="#CECECF"/>
<path d="M19.4394 23.8475L19.8495 23.3555H19.5556L19.1113 23.8954V23.3555H18.8721V24.6064H19.1113V24.2304L19.2754 24.0321L19.5966 24.6063H19.8836L19.4394 23.8475Z" fill="#CECECF"/>
<path d="M32.4945 15.5225C32.4603 15.5567 32.4125 15.5703 32.351 15.5703C32.3168 15.5703 32.2895 15.5635 32.2621 15.5498C32.2347 15.5429 32.2143 15.5224 32.1938 15.5087C32.1869 15.4951 32.1733 15.4813 32.1665 15.4609C32.1596 15.4473 32.1528 15.4267 32.146 15.3995C32.146 15.3721 32.1391 15.3379 32.1391 15.3037C32.1391 15.2627 32.1323 15.2149 32.1323 15.1534C32.1323 15.0918 32.1391 15.044 32.1391 15.003C32.1391 14.9619 32.146 14.9346 32.146 14.9074C32.1528 14.88 32.1596 14.8595 32.1665 14.8458C32.1733 14.8254 32.1869 14.8116 32.1938 14.798C32.2143 14.7776 32.2347 14.7638 32.2621 14.7502C32.2895 14.7433 32.3168 14.7366 32.351 14.7366C32.4125 14.7366 32.4603 14.7502 32.4945 14.7844C32.5286 14.8185 32.5492 14.8596 32.5629 14.9142H32.8089C32.7884 14.7776 32.7337 14.6819 32.6517 14.6135C32.5697 14.5521 32.4672 14.5178 32.351 14.5178C32.2826 14.5178 32.2143 14.5315 32.1665 14.5521C32.1117 14.5725 32.064 14.6067 32.0161 14.6476C31.9888 14.6819 31.9614 14.716 31.9477 14.7502C31.9272 14.7776 31.9136 14.8184 31.9067 14.8595C31.8999 14.9006 31.8931 14.9415 31.8931 14.9893V15.3174C31.8931 15.3653 31.8999 15.4064 31.9067 15.4473C31.9136 15.4883 31.9272 15.5225 31.9477 15.5567C31.9613 15.5909 31.9888 15.6251 32.0161 15.6591C32.064 15.7002 32.1117 15.7344 32.1665 15.7549C32.2143 15.7754 32.2826 15.789 32.351 15.789C32.4672 15.789 32.5697 15.7549 32.6517 15.6865C32.7337 15.6251 32.7884 15.5225 32.8089 15.3926H32.5629C32.5492 15.4473 32.5286 15.4882 32.4945 15.5225Z" fill="#CECECF"/>
<path d="M33.7318 15.2353C33.7659 15.2285 33.7933 15.2148 33.8207 15.1943C33.8481 15.1737 33.8754 15.1532 33.8959 15.1259C33.9163 15.0985 33.9301 15.0645 33.9437 15.0302C33.9506 15.0097 33.9574 14.9823 33.9574 14.955C33.9642 14.9414 33.9642 14.9208 33.9642 14.9072C33.9642 14.8594 33.9506 14.8046 33.9368 14.7637C33.9163 14.7159 33.889 14.6748 33.8548 14.6406C33.8207 14.6064 33.7796 14.5791 33.725 14.5586C33.6977 14.545 33.6772 14.5381 33.6429 14.5312H33.6361C33.6088 14.5244 33.5815 14.5244 33.5541 14.5244H33.0688V15.7752H33.3081V15.2763H33.4858L33.7319 15.7752H34.0121L33.7318 15.2353ZM33.6703 15.0302C33.6361 15.0576 33.5952 15.0781 33.5405 15.0781H33.3081V14.7431H33.5405C33.5952 14.7431 33.6362 14.7567 33.6703 14.7909C33.7045 14.8183 33.7182 14.8594 33.7182 14.9072C33.7181 14.9619 33.7045 14.9961 33.6703 15.0302Z" fill="#CECECF"/>
<path d="M35.0849 14.7433V14.5247H34.2578V15.7755H35.0849V15.5568H34.5039V15.256H34.9961V15.0373H34.5039V14.7433H35.0849Z" fill="#CECECF"/>
<path d="M36.2675 14.9279C36.2675 14.9142 36.2607 14.9006 36.2607 14.8937C36.2607 14.8595 36.247 14.8254 36.2402 14.798C36.2266 14.7638 36.2128 14.7365 36.1923 14.7092C36.1514 14.6477 36.0967 14.5999 36.0351 14.5725C35.9737 14.5451 35.9053 14.5247 35.8163 14.5247H35.3652V15.7755H35.8163C35.9052 15.7755 35.9736 15.7619 36.0351 15.7345C36.0693 15.7208 36.0967 15.7003 36.124 15.6798C36.1514 15.6592 36.1719 15.632 36.1923 15.5978C36.2128 15.5704 36.2265 15.5431 36.2402 15.5089C36.247 15.4815 36.2607 15.4474 36.2607 15.4133C36.2675 15.3791 36.2675 15.338 36.2744 15.297V15.0099C36.2675 14.9825 36.2675 14.9553 36.2675 14.9279ZM36.0283 15.2833C36.0283 15.3174 36.0215 15.3448 36.0215 15.3722C36.0146 15.3996 36.0146 15.42 36.0078 15.4336C36.001 15.4541 35.9872 15.4678 35.9805 15.4814C35.9395 15.5361 35.878 15.5567 35.7959 15.5567H35.6114V14.7432H35.7959C35.878 14.7432 35.9395 14.7707 35.9805 14.8253C35.9873 14.8389 36.001 14.8527 36.0078 14.8732C36.0146 14.8868 36.0146 14.9074 36.0215 14.9346C36.0215 14.9619 36.0283 14.9892 36.0283 15.0235V15.2833Z" fill="#CECECF"/>
<path d="M36.5679 14.5247V15.7755H36.8071V14.5247H36.5679Z" fill="#CECECF"/>
<path d="M37.0532 14.5247V14.7433H37.3813V15.7755H37.6206V14.7433H37.9487V14.5247H37.0532Z" fill="#CECECF"/>
<path d="M39.2064 15.5225C39.1723 15.5567 39.1244 15.5703 39.0628 15.5703C39.0287 15.5703 39.0014 15.5635 38.974 15.5498C38.9466 15.5429 38.9261 15.5224 38.9056 15.5087C38.8988 15.4951 38.8851 15.4813 38.8783 15.4609C38.8715 15.4473 38.8646 15.4267 38.8578 15.3995C38.8578 15.3721 38.851 15.3379 38.851 15.3037C38.8441 15.2627 38.8441 15.2149 38.8441 15.1534C38.8441 15.0918 38.8441 15.044 38.851 15.003C38.851 14.9619 38.8578 14.9346 38.8578 14.9074C38.8646 14.88 38.8715 14.8595 38.8783 14.8458C38.8851 14.8254 38.8988 14.8116 38.9056 14.798C38.9261 14.7776 38.9466 14.7638 38.974 14.7502C39.0013 14.7433 39.0286 14.7366 39.0628 14.7366C39.1244 14.7366 39.1722 14.7502 39.2064 14.7844C39.2405 14.8185 39.2611 14.8596 39.2748 14.9142H39.5208C39.5004 14.7776 39.4456 14.6819 39.3636 14.6135C39.2816 14.5521 39.1791 14.5178 39.0629 14.5178C38.9945 14.5178 38.9263 14.5315 38.8715 14.5521C38.8237 14.5725 38.769 14.6067 38.728 14.6476C38.6938 14.6819 38.6734 14.716 38.6528 14.7502C38.6391 14.7776 38.6255 14.8184 38.6186 14.8595C38.6118 14.9006 38.605 14.9415 38.605 14.9893V15.3174C38.605 15.3653 38.6118 15.4064 38.6186 15.4473C38.6255 15.4883 38.6391 15.5225 38.6528 15.5567C38.6733 15.5909 38.6937 15.6251 38.728 15.6591C38.7689 15.7002 38.8237 15.7344 38.8715 15.7549C38.9263 15.7754 38.9945 15.789 39.0629 15.789C39.1792 15.789 39.2817 15.7549 39.3636 15.6865C39.4456 15.6251 39.5004 15.5225 39.5208 15.3926H39.2748C39.2611 15.4473 39.2405 15.4882 39.2064 15.5225Z" fill="#CECECF"/>
<path d="M40.2865 14.5247H40.0951L39.6372 15.7755H39.8969L39.9721 15.5568H40.4164L40.4916 15.7755H40.7445L40.2865 14.5247ZM40.0405 15.3517L40.1977 14.8937L40.3481 15.3517H40.0405Z" fill="#CECECF"/>
<path d="M41.6053 15.2353C41.6395 15.2285 41.6668 15.2148 41.6942 15.1943C41.7215 15.1737 41.7489 15.1532 41.7694 15.1259C41.7899 15.0985 41.8035 15.0645 41.8173 15.0302C41.8309 14.996 41.8378 14.955 41.8378 14.9072C41.8378 14.8594 41.8309 14.8046 41.8105 14.7637C41.79 14.7159 41.7626 14.6748 41.7284 14.6406C41.6943 14.6064 41.6532 14.5791 41.5986 14.5586C41.5507 14.5381 41.4961 14.5244 41.4345 14.5244H40.9424V15.7752H41.1885V15.2763H41.3593L41.6054 15.7752H41.8857L41.6053 15.2353ZM41.5438 15.0302C41.5097 15.0576 41.4686 15.0781 41.414 15.0781H41.1885V14.7431H41.414C41.4687 14.7431 41.5097 14.7567 41.5438 14.7909C41.578 14.8183 41.5917 14.8594 41.5917 14.9072C41.5917 14.9619 41.578 14.9961 41.5438 15.0302Z" fill="#CECECF"/>
<path d="M43.034 14.8937C43.0271 14.8595 43.0203 14.8254 43.0066 14.798C42.9998 14.7638 42.9793 14.7365 42.9657 14.7092C42.9178 14.6477 42.8632 14.5999 42.8016 14.5725C42.7469 14.5451 42.6718 14.5247 42.5829 14.5247H42.1318V15.7755H42.5829C42.6718 15.7755 42.747 15.7619 42.8016 15.7345C42.8631 15.7071 42.9178 15.6592 42.9657 15.5978C42.9793 15.5704 42.9998 15.5431 43.0066 15.5089C43.0203 15.4815 43.0271 15.4474 43.034 15.4133C43.034 15.3791 43.0408 15.338 43.0408 15.297V15.0099C43.0408 14.9688 43.034 14.9279 43.034 14.8937ZM42.7948 15.2833C42.7948 15.3174 42.7948 15.3448 42.788 15.3722C42.788 15.3996 42.7811 15.42 42.7743 15.4336C42.7675 15.4541 42.7607 15.4678 42.7469 15.4814C42.7059 15.5361 42.6444 15.5567 42.5624 15.5567H42.3778V14.7432H42.5624C42.6444 14.7432 42.7058 14.7707 42.7469 14.8253C42.7606 14.8389 42.7674 14.8527 42.7743 14.8732C42.7811 14.8868 42.788 14.9074 42.788 14.9346C42.7948 14.9619 42.7948 14.9892 42.7948 15.0235V15.2833Z" fill="#CECECF"/>
<path d="M43.1687 3.19767V8.015C43.1687 8.20889 43.0102 8.36746 42.8163 8.36746H36.8827C36.6888 8.36746 36.5303 8.20889 36.5303 8.015V3.19767C36.5303 3.00379 36.6888 2.84521 36.8827 2.84521H42.8163C43.0101 2.84513 43.1687 3.00379 43.1687 3.19767Z" fill="#F7D072"/>
<path opacity="0.2" d="M41.8656 4.01235L42.8977 2.98022H42.5627L41.6742 3.87561L41.5375 4.01235L41.435 4.10803L40.731 4.81205H39.2L39.0632 4.67531L38.496 4.10803L38.2704 3.87561L37.375 2.98022H37.04L37.9286 3.87561L38.0653 4.01235H36.6505V4.24469H38.3045L38.742 4.68896L38.8581 4.81205V5.08535H36.6504V5.32461H38.8581V6.16528H36.6504V6.39761H38.8581V6.67783H38.8718L38.4412 7.10172L38.3044 7.23846H36.6504V7.47771H38.0653L37.1767 8.36627H37.5116L38.4002 7.47771L39.1999 6.6781H40.7309L42.4261 8.36636H42.7541L41.8656 7.4778H43.171V7.23855H41.6331L41.0727 6.6781V6.39788H43.1711V6.16554H41.0727V5.32488H43.1711V5.08562H41.0727V4.81232L41.6331 4.24496H43.171V4.01262H41.8656V4.01235ZM40.8403 6.43876H39.0905V5.04447H40.8403V6.43876Z" fill="white"/>
<path d="M39.0835 4.67529L39.3159 4.90763H40.3822L40.4778 4.81204L40.6146 4.67529H39.0835ZM39.0835 4.67529L39.3159 4.90763H40.3822L40.4778 4.81204L40.6146 4.67529H39.0835ZM39.0835 4.67529L39.3159 4.90763H40.3822L40.4778 4.81204L40.6146 4.67529H39.0835ZM39.0835 4.67529L39.3159 4.90763H40.3822L40.4778 4.81204L40.6146 4.67529H39.0835ZM40.5188 6.43875L40.3822 6.30209H39.3159L39.1861 6.43875H39.1792L39.0836 6.54126H40.6146L40.5188 6.43875ZM39.0835 4.67529L39.3159 4.90763H40.3822L40.4778 4.81204L40.6146 4.67529H39.0835ZM38.7417 4.67529V6.54126H40.9563V4.67529H38.7417ZM40.7238 6.30209H38.974V4.90772H40.7238V6.30209ZM39.0835 4.67529L39.3159 4.90763H40.3822L40.4778 4.81204L40.6146 4.67529H39.0835ZM39.0835 4.67529L39.3159 4.90763H40.3822L40.4778 4.81204L40.6146 4.67529H39.0835ZM39.0835 4.67529L39.3159 4.90763H40.3822L40.4778 4.81204L40.6146 4.67529H39.0835ZM39.0835 4.67529L39.3159 4.90763H40.3822L40.4778 4.81204L40.6146 4.67529H39.0835ZM39.0835 4.67529L39.3159 4.90763H40.3822L40.4778 4.81204L40.6146 4.67529H39.0835ZM39.0835 4.67529L39.3159 4.90763H40.3822L40.4778 4.81204L40.6146 4.67529H39.0835Z" fill="#717070"/>
<path d="M38.2824 3.87305L38.5174 4.10808H36.5303V3.87305H38.2824Z" fill="#717070"/>
<path d="M43.1688 3.87305V4.10808H41.1816L41.4166 3.87305H43.1688Z" fill="#717070"/>
<path d="M38.9756 4.9502H36.5303V5.18523H38.9756V4.9502Z" fill="#717070"/>
<path d="M43.1685 4.9502H40.7231V5.18523H43.1685V4.9502Z" fill="#717070"/>
<path d="M38.9756 6.02759H36.5303V6.26262H38.9756V6.02759Z" fill="#717070"/>
<path d="M43.1685 6.02759H40.7231V6.26262H43.1685V6.02759Z" fill="#717070"/>
<path d="M38.5177 7.10425L38.2827 7.33928H36.5303V7.10425H38.5177Z" fill="#717070"/>
<path d="M43.1686 7.10425V7.33928H41.4161L41.1812 7.10425H43.1686Z" fill="#717070"/>
<path d="M39.318 6.30396L37.2545 8.36749H36.9224L38.9859 6.30396H39.318Z" fill="#717070"/>
<path d="M42.777 2.84497L40.7135 4.9085H40.3813L42.4449 2.84497H42.777Z" fill="#717070"/>
<path d="M39.3176 4.9085H38.9854L36.9219 2.84497H37.2541L39.3176 4.9085Z" fill="#717070"/>
<path d="M42.7766 8.36749H42.4444L40.6159 6.53899L40.5181 6.44115L40.3809 6.30396H40.7131L40.8409 6.43171L40.9481 6.53899L41.0759 6.66674L41.5135 7.10437L41.6507 7.24156L41.7486 7.3394L41.8857 7.4766L42.7766 8.36749Z" fill="#717070"/>
<path d="M7.62618 4.9502C7.62618 4.21474 7.9295 3.55044 8.41735 3.07445C7.94495 2.61355 7.29951 2.3291 6.58741 2.3291C5.13976 2.3291 3.96631 3.50264 3.96631 4.9502C3.96631 6.39786 5.13985 7.5713 6.58741 7.5713C7.2996 7.5713 7.94504 7.28686 8.41735 6.82596C7.9295 6.35006 7.62618 5.68566 7.62618 4.9502Z" fill="#DC3B39"/>
<path d="M10.2474 2.3291C9.53523 2.3291 8.88988 2.61355 8.41748 3.07445C8.90533 3.55044 9.20864 4.21474 9.20864 4.9502C9.20864 5.68566 8.90533 6.34997 8.41748 6.82596C8.88988 7.28686 9.53532 7.5713 10.2474 7.5713C11.6951 7.5713 12.8685 6.39777 12.8685 4.9502C12.8685 3.50264 11.695 2.3291 10.2474 2.3291Z" fill="#E6AB2D"/>
<path d="M9.20879 4.95022C9.20879 4.21476 8.90548 3.55046 8.41763 3.07446C7.92978 3.55046 7.62646 4.21476 7.62646 4.95022C7.62646 5.68568 7.92978 6.34999 8.41763 6.82598C8.90548 6.35008 9.20879 5.68568 9.20879 4.95022Z" fill="#D67261"/>
<path d="M9.20876 4.95032C9.20876 4.89498 9.20651 4.84017 9.2031 4.78564L8.00746 3.59009C7.91986 3.73393 7.84556 3.88675 7.78662 4.04712L9.16482 5.42533C9.19312 5.27115 9.20876 5.11267 9.20876 4.95032Z" fill="#E6AB2D"/>
<path d="M7.65315 4.57935C7.63599 4.70054 7.62646 4.82426 7.62646 4.95013C7.62646 5.05076 7.63266 5.14994 7.64371 5.2476L8.78051 6.3844C8.87197 6.24505 8.9504 6.09654 9.01428 5.94039L7.65315 4.57935Z" fill="#E6AB2D"/>
<path opacity="0.2" d="M46.5269 16.8689H0.526855V17.4431H46.5269V16.8689Z" fill="#040000"/>
<path opacity="0.2" d="M46.5269 1.61314V29.9377C46.5269 30.7443 45.8638 31.4072 45.0573 31.4072H7.90186L15.2154 24.0938L15.4546 23.8545L15.728 23.5812L15.9125 23.3967L19.7196 19.5894L19.9178 19.3912V19.3844L20.0477 19.2613L20.0613 19.2477L20.6423 18.6599L20.8269 18.4822L21.8658 17.4432L22.44 16.8691L28.5847 10.7244L30.56 8.74916L39.0355 0.266738L39.1518 0.150391H45.0573C45.8638 0.150391 46.5269 0.80652 46.5269 1.61314Z" fill="#040000"/>
<defs>
<linearGradient id="paint0_linear_424_1547" x1="23.5269" y1="0.266575" x2="23.5269" y2="31.5234" gradientUnits="userSpaceOnUse">
<stop stop-color="#297BA4"/>
<stop offset="1" stop-color="#2F5F71"/>
</linearGradient>
</defs>
</svg>
