<svg width="36" height="38" viewBox="0 0 36 38" fill="none" xmlns="http://www.w3.org/2000/svg">
<path fill-rule="evenodd" clip-rule="evenodd" d="M0.220703 19.0677C0.220703 8.81355 8.14899 0.500961 17.929 0.500961C27.709 0.500961 35.6374 8.81355 35.6374 19.0677C35.6374 29.3217 27.709 37.6344 17.929 37.6344C8.14899 37.6344 0.220703 29.3217 0.220703 19.0677ZM17.929 7.92764C14.9949 7.92764 12.6165 10.4214 12.6165 13.4976C12.6165 16.574 14.9949 19.0677 17.929 19.0677C20.8631 19.0677 23.2415 16.574 23.2415 13.4976C23.2415 10.4214 20.8631 7.92764 17.929 7.92764ZM28.3674 29.1815L26.7836 28.351C28.3674 29.1815 28.3662 29.1841 28.3662 29.1841L28.3649 29.1869L28.3621 29.1924L28.3561 29.2051L28.3415 29.234C28.3307 29.2554 28.3178 29.2801 28.3026 29.3081C28.2723 29.3644 28.2328 29.4338 28.1832 29.5146C28.0841 29.6763 27.9445 29.8835 27.7566 30.1199C27.3798 30.5939 26.8121 31.1815 25.995 31.7526C24.3444 32.9062 21.7808 33.921 17.9292 33.921C11.4034 33.921 8.65959 31.0068 7.77602 29.672C7.2414 28.8644 7.3006 27.9208 7.62396 27.2428C8.92798 24.5083 11.5936 22.781 14.5096 22.781H21.0531C24.1507 22.781 26.9822 24.6159 28.3676 27.5207C28.6167 28.0434 28.6167 28.6587 28.3674 29.1815Z" fill="#1ADDD0"/>
</svg>
