<svg width="23" height="21" viewBox="0 0 23 21" fill="none" xmlns="http://www.w3.org/2000/svg">
<path d="M20.8799 4.11471H17.7614C17.5721 4.11471 17.3906 4.18455 17.2568 4.30888C17.1229 4.4332 17.0478 4.60182 17.0478 4.77764C17.0478 4.95346 17.1229 5.12208 17.2568 5.2464C17.3906 5.37072 17.5721 5.44057 17.7614 5.44057H20.937V18.6991H2.38281V5.44057H5.50848C5.69775 5.44057 5.87926 5.37072 6.01309 5.2464C6.14692 5.12208 6.2221 4.95346 6.2221 4.77764C6.2221 4.60182 6.14692 4.4332 6.01309 4.30888C5.87926 4.18455 5.69775 4.11471 5.50848 4.11471H2.4399C2.24773 4.10756 2.05598 4.13657 1.87617 4.19999C1.69637 4.26342 1.53221 4.35995 1.39358 4.48378C1.25494 4.60762 1.14467 4.75621 1.0694 4.92063C0.994133 5.08505 0.955413 5.2619 0.955567 5.44057V18.6991C0.955413 18.8778 0.994133 19.0547 1.0694 19.2191C1.14467 19.3835 1.25494 19.5321 1.39358 19.6559C1.53221 19.7798 1.69637 19.8763 1.87617 19.9397C2.05598 20.0031 2.24773 20.0322 2.4399 20.025H20.8799C21.0721 20.0322 21.2638 20.0031 21.4437 19.9397C21.6235 19.8763 21.7876 19.7798 21.9262 19.6559C22.0649 19.5321 22.1751 19.3835 22.2504 19.2191C22.3257 19.0547 22.3644 18.8778 22.3643 18.6991V5.44057C22.3644 5.2619 22.3257 5.08505 22.2504 4.92063C22.1751 4.75621 22.0649 4.60762 21.9262 4.48378C21.7876 4.35995 21.6235 4.26342 21.4437 4.19999C21.2638 4.13657 21.0721 4.10756 20.8799 4.11471Z" fill="#1ADDD0"/>
<path d="M6.1657 11.3207L11.1611 15.8883C11.2945 16.0098 11.4738 16.0778 11.6606 16.0778C11.8474 16.0778 12.0267 16.0098 12.1601 15.8883L17.1555 11.3207C17.2908 11.1977 17.368 11.0297 17.37 10.8538C17.372 10.6779 17.2987 10.5084 17.1662 10.3827C17.0337 10.257 16.8529 10.1853 16.6635 10.1834C16.4742 10.1816 16.2917 10.2497 16.1564 10.3727L12.3742 13.8266V1.46298C12.3742 1.28716 12.299 1.11854 12.1652 0.994216C12.0314 0.869893 11.8499 0.800049 11.6606 0.800049C11.4713 0.800049 11.2898 0.869893 11.156 0.994216C11.0222 1.11854 10.947 1.28716 10.947 1.46298V13.8266L7.16477 10.3727C7.02944 10.2497 6.84703 10.1816 6.65766 10.1834C6.46829 10.1853 6.28748 10.257 6.15499 10.3827C6.02251 10.5084 5.9492 10.6779 5.95121 10.8538C5.95322 11.0297 6.03037 11.1977 6.1657 11.3207Z" fill="#1ADDD0"/>
</svg>
