<svg width="25" height="24" viewBox="0 0 25 24" fill="none" xmlns="http://www.w3.org/2000/svg">
<path d="M24.683 12.2756C24.683 11.4596 24.6152 10.6401 24.4725 9.83783H12.9246V14.458H19.5368C19.4004 15.1973 19.1132 15.9017 18.6926 16.5285C18.272 17.1552 17.7268 17.6914 17.0899 18.1044V21.1045H21.036C23.3525 19.013 24.683 15.9272 24.683 12.2756Z" fill="#4285F4"/>
<path d="M12.9263 24C16.2272 24 19.0116 22.9371 21.0395 21.1027L17.0951 18.1044C15.9977 18.8364 14.5803 19.2512 12.9298 19.2512C9.73675 19.2512 7.0289 17.1392 6.05671 14.3002H1.98711V17.3912C3.01251 19.3819 4.57771 21.0535 6.50884 22.2201C8.43996 23.3868 10.6614 24.0029 12.9263 24Z" fill="#34A853"/>
<path d="M6.05151 14.3003C5.53866 12.8105 5.53866 11.1956 6.05151 9.70582V6.61487H1.98538C1.1291 8.28558 0.682983 10.1312 0.682983 12.003C0.682983 13.8749 1.1291 15.7205 1.98538 17.3912L6.05151 14.3003Z" fill="#FBBC04"/>
<path d="M12.9263 4.74792C14.6701 4.72005 16.3556 5.36617 17.622 6.54797L21.1177 3.12101C18.8961 1.08105 15.9623 -0.0364268 12.9263 0.000906168C10.6608 -0.00192323 8.4388 0.614777 6.50755 1.78242C4.5763 2.95006 3.01147 4.62288 1.98711 6.61483L6.04976 9.70236C7.01672 6.85998 9.72979 4.74792 12.9229 4.74792H12.9263Z" fill="#EA4335"/>
</svg>
