<svg width="143" height="93" viewBox="0 0 143 93" fill="none" xmlns="http://www.w3.org/2000/svg">
<g clip-path="url(#clip0_14_44)">
<path d="M23.8417 85.4662C23.8528 86.2408 23.7433 87.0124 23.5171 87.7537C23.3209 88.389 23.0325 88.9925 22.6611 89.5453C22.318 90.0493 21.8962 90.4957 21.4115 90.8678C20.954 91.22 20.4574 91.5191 19.9315 91.7594C18.9758 92.1947 17.9387 92.4256 16.8873 92.4373H0.198457V88.1428H16.8873C17.7182 88.1428 18.3646 87.9007 18.8265 87.4164C19.2884 86.9322 19.5183 86.2822 19.5161 85.4662C19.52 85.0949 19.4579 84.7258 19.3327 84.3759C19.218 84.0576 19.0395 83.7656 18.808 83.5177C18.5768 83.2709 18.2929 83.0787 17.9772 82.955C17.6302 82.8197 17.2601 82.7528 16.8873 82.7579H6.93927C6.17063 82.7465 5.40809 82.6204 4.67719 82.3839C3.8556 82.1316 3.09011 81.7258 2.42185 81.1884C1.6963 80.5955 1.10682 79.8554 0.692918 79.0178C0.230973 78.1272 0.000561313 77.0364 0.00168254 75.7451C0.00280376 74.4539 0.233216 73.3669 0.692918 72.4842C1.09312 71.6859 1.65248 70.9766 2.33708 70.3994C3.02167 69.8222 3.81724 69.3891 4.67551 69.1264C5.40713 68.89 6.17003 68.7629 6.93927 68.749H21.6638V73.0435H6.93927C6.11853 73.0435 5.47831 73.2917 5.01861 73.7882C4.55778 74.2891 4.32737 74.9386 4.32737 75.7518C4.32737 76.5649 4.55778 77.2312 5.01861 77.7104C5.47943 78.1896 6.11853 78.4284 6.93927 78.4284H16.921C17.4199 78.4442 17.9161 78.5079 18.4027 78.6187C19.51 78.8686 20.5454 79.366 21.43 80.073C21.9084 80.454 22.3262 80.9043 22.6695 81.4088C23.0449 81.956 23.3341 82.5567 23.5272 83.1904C23.7475 83.9306 23.8541 84.6995 23.8434 85.4712L23.8417 85.4662Z" fill="#131313"/>
<path d="M31.7935 68.749H27.4678V92.4373H31.7935V68.749Z" fill="#131313"/>
<path d="M64.6263 92.4373H60.2619V78.3298L52.5928 91.726C52.413 92.0571 52.1377 92.3275 51.8023 92.5024C51.4664 92.678 51.0921 92.7686 50.7125 92.7662C50.3441 92.7683 49.9813 92.6775 49.658 92.5024C49.3292 92.3247 49.0607 92.0546 48.886 91.726L41.1815 78.3298V92.4373H36.8508V70.584C36.8467 70.108 37.0014 69.644 37.2907 69.2644C37.58 68.8848 37.9877 68.6108 38.4502 68.4852C38.6791 68.4306 38.9151 68.4115 39.1498 68.4284C39.3802 68.4439 39.6069 68.4934 39.8226 68.5754C40.2618 68.7427 40.6294 69.0552 40.8636 69.4603L50.7125 86.458L60.5613 69.4603C60.8026 69.0535 61.1746 68.7389 61.6175 68.567C62.0653 68.3913 62.5581 68.3626 63.0235 68.4852C63.4816 68.6124 63.8851 68.8851 64.1722 69.2616C64.4683 69.6393 64.6266 70.1055 64.6213 70.584L64.6263 92.4373Z" fill="#131313"/>
<path fill-rule="evenodd" clip-rule="evenodd" d="M68.4946 78.6605V82.5259C68.4946 82.5442 68.4946 82.5626 68.4946 82.581C68.4956 82.5996 68.4984 82.618 68.503 82.6361C68.5059 82.6542 68.5104 82.6721 68.5164 82.6895C68.5164 82.7079 68.5299 82.7229 68.5349 82.7413C68.5416 82.7587 68.5501 82.7755 68.5601 82.7914C68.5782 82.8233 68.5984 82.854 68.6207 82.8832C68.6447 82.9115 68.6712 82.9378 68.6997 82.9617C68.7139 82.9736 68.7291 82.9842 68.7451 82.9934L68.7906 83.0218L68.8427 83.0468C68.8594 83.0547 68.8769 83.0608 68.8948 83.0652L68.9503 83.0785C68.9679 83.0831 68.986 83.0859 69.0041 83.0869H84.7243C84.7436 83.0857 84.7627 83.083 84.7815 83.0785L84.8336 83.0652C84.852 83.0606 84.87 83.0544 84.8874 83.0468L84.9379 83.0218C84.9542 83.0133 84.9699 83.0038 84.985 82.9934C85.0002 82.9838 85.0148 82.9732 85.0287 82.9617L85.0724 82.9249L85.1078 82.8832C85.1208 82.8696 85.1321 82.8545 85.1414 82.8381C85.1523 82.8234 85.1618 82.8077 85.17 82.7914C85.1795 82.7755 85.1874 82.7587 85.1935 82.7413C85.2019 82.7249 85.2081 82.7075 85.212 82.6895C85.212 82.6711 85.2221 82.6544 85.2272 82.6361C85.2281 82.6177 85.2281 82.5993 85.2272 82.581C85.2288 82.5626 85.2288 82.5442 85.2272 82.5259V78.6605C85.2288 78.6427 85.2288 78.6248 85.2272 78.607C85.2282 78.5881 85.2282 78.5692 85.2272 78.5503C85.2272 78.5319 85.2272 78.5152 85.212 78.4968C85.2084 78.4788 85.2022 78.4614 85.1935 78.4451C85.1874 78.4276 85.1795 78.4109 85.17 78.395C85.1618 78.3786 85.1523 78.363 85.1414 78.3482C85.1317 78.3321 85.1204 78.317 85.1078 78.3032L85.0724 78.2614L85.0287 78.2247C85.0148 78.2132 85.0002 78.2026 84.985 78.1929C84.9699 78.1825 84.9542 78.173 84.9379 78.1646L84.8874 78.1395L84.8336 78.1211L84.7815 78.1078H84.7243H69.0075H68.9537L68.8982 78.1211L68.8461 78.1395L68.7939 78.1646L68.7485 78.1929C68.7325 78.2022 68.7173 78.2128 68.7031 78.2247C68.6746 78.2486 68.6481 78.2748 68.6241 78.3032C68.6119 78.3171 68.6012 78.3322 68.5921 78.3482C68.5806 78.3626 68.571 78.3783 68.5635 78.395C68.5541 78.4112 68.5457 78.4279 68.5383 78.4451C68.5383 78.4601 68.5248 78.4801 68.5198 78.4968C68.5137 78.5142 68.5092 78.5321 68.5063 78.5503C68.5016 78.5689 68.4988 78.5879 68.4979 78.607C68.4979 78.6254 68.4979 78.6421 68.4979 78.6605H68.4946ZM69.6298 81.9632V79.2232H84.0936V81.9632H69.6298Z" fill="#131313"/>
<path fill-rule="evenodd" clip-rule="evenodd" d="M95.0676 93.0033H110.731L110.786 92.995L110.838 92.9816L110.892 92.9633L110.942 92.9382C110.959 92.9298 110.974 92.9203 110.99 92.9098L111.033 92.8781C111.049 92.8663 111.063 92.8534 111.077 92.8397L111.114 92.7996L111.146 92.7546C111.156 92.739 111.166 92.7228 111.175 92.7061C111.185 92.6912 111.193 92.6749 111.198 92.6577C111.206 92.6409 111.213 92.6236 111.218 92.606C111.218 92.5876 111.227 92.5692 111.23 92.5508C111.232 92.5331 111.232 92.5152 111.23 92.4974C111.232 92.4791 111.232 92.4607 111.23 92.4423V88.1428C111.232 88.1239 111.232 88.1049 111.23 88.086C111.232 88.0677 111.232 88.0492 111.23 88.0309C111.227 88.0135 111.223 87.9962 111.218 87.9792C111.214 87.9612 111.207 87.9438 111.198 87.9274C111.193 87.9091 111.185 87.8917 111.175 87.8756L111.146 87.8289L111.114 87.7838C111.101 87.7688 111.089 87.7571 111.077 87.7421L111.033 87.707C111.019 87.6944 111.005 87.6827 110.99 87.6719L110.942 87.6436L110.892 87.6218C110.875 87.6134 110.857 87.6067 110.838 87.6018L110.786 87.5901C110.768 87.5857 110.749 87.5829 110.731 87.5818H110.673H95.1012C94.6808 87.5818 94.3764 87.4899 94.1897 87.3013C94.003 87.1126 93.9038 86.817 93.9038 86.4113V73.6096H110.673H110.731C110.749 73.6084 110.768 73.6056 110.786 73.6012L110.838 73.5895C110.857 73.5846 110.875 73.5779 110.892 73.5695C110.91 73.564 110.926 73.5567 110.942 73.5478L110.99 73.5194C111.005 73.5086 111.019 73.4969 111.033 73.4843L111.077 73.4476L111.114 73.4059C111.126 73.3921 111.136 73.3776 111.146 73.3624C111.156 73.3475 111.166 73.3319 111.175 73.3157C111.184 73.3 111.192 73.2832 111.198 73.2656C111.207 73.2485 111.213 73.2306 111.218 73.2122C111.223 73.1951 111.227 73.1779 111.23 73.1604C111.232 73.1421 111.232 73.1236 111.23 73.1053C111.232 73.0864 111.232 73.0674 111.23 73.0485V68.749C111.232 68.7307 111.232 68.7122 111.23 68.6939C111.232 68.6761 111.232 68.6583 111.23 68.6405C111.23 68.6221 111.23 68.6037 111.218 68.5854C111.213 68.5676 111.206 68.5503 111.198 68.5336C111.193 68.5164 111.185 68.5001 111.175 68.4852C111.166 68.4685 111.156 68.4523 111.146 68.4368L111.114 68.3917L111.077 68.3516L111.033 68.3132L110.99 68.2815C110.974 68.2711 110.959 68.2616 110.942 68.2531L110.892 68.2281L110.838 68.2114C110.821 68.2048 110.804 68.1998 110.786 68.1963H110.731H91.1994C90.8281 68.1932 90.4598 68.2636 90.1163 68.4034C89.7858 68.5391 89.4869 68.7408 89.2383 68.9961C88.733 69.5119 88.4511 70.2035 88.4529 70.923V86.4163C88.4529 87.6218 88.6772 88.6487 89.1257 89.4969C89.5126 90.2563 90.0515 90.9293 90.7093 91.4747C91.3672 92.0202 92.1303 92.4267 92.9518 92.6694C93.6375 92.8802 94.3499 92.9926 95.0676 93.0033ZM110.107 91.8746H95.0676C94.4562 91.8648 93.8494 91.7669 93.2663 91.5841C92.6177 91.3918 92.0132 91.0753 91.487 90.6524C90.9187 90.1906 90.4535 89.6162 90.1213 88.966C89.7597 88.2814 89.5814 87.4315 89.5814 86.4096V70.913C89.5798 70.6989 89.621 70.4867 89.7025 70.2885C89.7813 70.0967 89.8954 69.9212 90.0389 69.7709C90.1818 69.6258 90.3536 69.5121 90.5434 69.4369C90.7492 69.3548 90.9692 69.3134 91.191 69.315H110.107V72.4875H93.2882H93.2327L93.1772 72.5025L93.1251 72.5192L93.0746 72.5443C93.0581 72.5524 93.0424 72.5619 93.0275 72.5727C93.0117 72.5823 92.9966 72.5929 92.9821 72.6044C92.9687 72.6177 92.9535 72.6294 92.9417 72.6428C92.914 72.6675 92.8902 72.6962 92.8711 72.7279C92.8606 72.7435 92.8511 72.7597 92.8425 72.7764C92.8327 72.7915 92.8247 72.8077 92.819 72.8248C92.8111 72.842 92.8049 72.8598 92.8005 72.8782C92.7944 72.8957 92.7894 72.9136 92.7853 72.9316C92.7853 72.95 92.7853 72.9684 92.7853 72.9868C92.7853 73.0051 92.7853 73.0218 92.7853 73.0402V86.3979C92.7853 87.1176 92.9905 87.6786 93.4009 88.086C93.8113 88.4934 94.3831 88.6971 95.1164 88.6971H110.122L110.107 91.8746ZM95.0676 83.319H108.783H108.838L108.892 83.3056L108.946 83.2873L108.995 83.2622C109.012 83.254 109.028 83.2445 109.044 83.2338L109.089 83.2021C109.104 83.1906 109.117 83.1778 109.129 83.1637C109.143 83.1511 109.155 83.1378 109.166 83.1236L109.2 83.0785C109.211 83.063 109.22 83.0468 109.229 83.0301L109.254 82.9817C109.254 82.9633 109.266 82.945 109.271 82.9299C109.276 82.9149 109.281 82.8932 109.286 82.8748C109.291 82.8565 109.286 82.8381 109.294 82.8197C109.303 82.8014 109.294 82.7847 109.294 82.7663V78.4284C109.294 78.41 109.294 78.3933 109.294 78.3733C109.294 78.3532 109.294 78.3382 109.286 78.3198C109.277 78.3015 109.286 78.2831 109.271 78.2647C109.256 78.2464 109.259 78.2313 109.254 78.213L109.229 78.1646C109.22 78.1479 109.21 78.1328 109.2 78.1161L109.166 78.071C109.155 78.0569 109.143 78.0435 109.129 78.031C109.117 78.0173 109.103 78.0045 109.089 77.9926L109.044 77.9608L108.995 77.9325L108.946 77.9074L108.892 77.889L108.838 77.8757H108.783H95.0121H94.9583L94.9028 77.889L94.8506 77.9074L94.8019 77.9325C94.7848 77.9405 94.7685 77.95 94.7531 77.9608C94.7363 77.9709 94.7228 77.9825 94.7077 77.9926C94.6934 78.0045 94.6799 78.0173 94.6673 78.031C94.6532 78.0431 94.6402 78.0565 94.6286 78.071L94.5967 78.1161C94.5859 78.1315 94.5764 78.1477 94.5681 78.1646L94.5429 78.213L94.5244 78.2647C94.5244 78.2831 94.5143 78.3015 94.5109 78.3198C94.5066 78.3374 94.5038 78.3553 94.5025 78.3733C94.5025 78.3933 94.5025 78.41 94.5025 78.4284V82.758C94.5025 82.7763 94.5025 82.7947 94.5025 82.8114C94.5037 82.83 94.5065 82.8484 94.5109 82.8665C94.5109 82.8848 94.5109 82.9032 94.5244 82.9216C94.5378 82.9399 94.5361 82.955 94.5429 82.9733L94.5681 83.0218C94.576 83.0388 94.5856 83.055 94.5967 83.0702L94.6286 83.1153C94.6539 83.1425 94.6802 83.1687 94.7077 83.1937C94.7228 83.2038 94.7363 83.2155 94.7531 83.2255C94.7681 83.2369 94.7845 83.2464 94.8019 83.2539L94.8506 83.2789L94.9028 83.2973L94.9583 83.3106H95.0121L95.0676 83.319ZM108.159 82.1902H95.6377V78.9944H108.159V82.1902Z" fill="#131313"/>
<path fill-rule="evenodd" clip-rule="evenodd" d="M118.322 91.3336C118.473 90.9984 118.549 90.6352 118.546 90.2683C118.547 89.9075 118.471 89.5506 118.322 89.2214C118.182 88.9063 117.985 88.6194 117.74 88.3749C117.495 88.1313 117.205 87.9358 116.886 87.7988C116.555 87.6491 116.195 87.5722 115.832 87.5734C115.462 87.571 115.097 87.6479 114.76 87.7988C114.441 87.9368 114.15 88.1333 113.904 88.3782C113.396 88.8829 113.111 89.5673 113.111 90.2809C113.111 90.9944 113.396 91.6788 113.904 92.1835C114.415 92.6872 115.106 92.9693 115.827 92.9683C116.186 92.9698 116.542 92.8976 116.873 92.7562C117.195 92.6227 117.488 92.4282 117.735 92.1835C117.98 91.9387 118.177 91.6519 118.317 91.337L118.322 91.3336ZM117.285 89.6806C117.369 89.8653 117.412 90.0657 117.411 90.2683C117.413 90.477 117.37 90.6837 117.285 90.8745C117.201 91.0619 117.082 91.2318 116.935 91.3754C116.791 91.5187 116.619 91.6322 116.43 91.7093C116.24 91.7894 116.035 91.8303 115.828 91.8295C115.621 91.8312 115.415 91.7919 115.222 91.7139C115.03 91.636 114.855 91.5209 114.708 91.3754C114.561 91.2294 114.445 91.0557 114.366 90.8644C114.287 90.6732 114.248 90.4682 114.251 90.2617C114.25 90.0571 114.291 89.8544 114.37 89.6656C114.449 89.4789 114.563 89.3089 114.706 89.1647C114.852 89.0197 115.023 88.9026 115.211 88.819C115.403 88.7359 115.61 88.6933 115.82 88.6938C116.03 88.6949 116.237 88.7411 116.427 88.8291C116.812 88.9959 117.119 89.3005 117.288 89.6823L117.285 89.6806Z" fill="#131313"/>
<path fill-rule="evenodd" clip-rule="evenodd" d="M142.965 71.3387C143.049 70.8242 142.984 70.2964 142.776 69.8176V69.8043C142.559 69.3272 142.209 68.9217 141.767 68.6355C141.328 68.3419 140.81 68.1861 140.28 68.188H120.684H120.63C120.611 68.1912 120.593 68.1962 120.576 68.203L120.524 68.2197L120.472 68.2447L120.423 68.2731L120.379 68.3049C120.365 68.3168 120.352 68.3296 120.339 68.3433C120.325 68.3554 120.313 68.3688 120.302 68.3833C120.29 68.3984 120.28 68.4134 120.267 68.4284C120.253 68.4434 120.248 68.4601 120.238 68.4768C120.228 68.4935 120.223 68.5086 120.216 68.5253C120.209 68.542 120.203 68.5587 120.196 68.577C120.189 68.5954 120.186 68.6137 120.184 68.6321C120.18 68.6497 120.177 68.6675 120.176 68.6855C120.176 68.7039 120.176 68.7223 120.176 68.7407V73.0352C120.176 73.0535 120.176 73.0736 120.176 73.0919C120.177 73.1105 120.18 73.129 120.184 73.147C120.187 73.1645 120.191 73.1818 120.196 73.1988C120.202 73.217 120.208 73.2348 120.216 73.2522L120.238 73.3023L120.267 73.3491L120.302 73.3925C120.312 73.4079 120.325 73.4219 120.339 73.4342C120.352 73.4473 120.365 73.4596 120.379 73.471C120.393 73.4843 120.41 73.4943 120.423 73.506L120.472 73.5344C120.488 73.5434 120.506 73.5506 120.524 73.5561C120.54 73.5648 120.558 73.5715 120.576 73.5762L120.63 73.5878C120.647 73.5924 120.666 73.5952 120.684 73.5962C120.703 73.5978 120.722 73.5978 120.741 73.5962H134.123L120.669 88.4567C120.321 88.8417 120.093 89.3174 120.009 89.8275C119.915 90.3509 119.992 90.8904 120.23 91.367C120.448 91.8435 120.798 92.2488 121.239 92.5358C121.678 92.8297 122.197 92.9856 122.727 92.9833H142.275L142.331 92.975L142.384 92.9616L142.438 92.9432L142.487 92.9182L142.536 92.8898L142.58 92.8581C142.595 92.8466 142.609 92.8338 142.622 92.8197C142.635 92.8075 142.647 92.7941 142.657 92.7796C142.67 92.7654 142.682 92.7503 142.692 92.7345C142.703 92.719 142.712 92.7028 142.721 92.6861C142.721 92.6711 142.736 92.6544 142.744 92.6377C142.753 92.621 142.756 92.6026 142.763 92.5859C142.77 92.5692 142.773 92.5492 142.778 92.5308C142.783 92.5124 142.778 92.4957 142.778 92.4774C142.778 92.459 142.778 92.4406 142.778 92.4223V88.1428C142.778 88.1244 142.778 88.1044 142.778 88.086C142.778 88.0676 142.778 88.0493 142.778 88.0309C142.774 88.0134 142.769 87.9961 142.763 87.9791C142.763 87.9608 142.751 87.9424 142.744 87.9274C142.738 87.9124 142.729 87.8923 142.721 87.8756L142.692 87.8289C142.682 87.8131 142.67 87.798 142.657 87.7838C142.646 87.7691 142.634 87.7551 142.622 87.7421L142.58 87.707C142.566 87.6936 142.549 87.6836 142.536 87.6719L142.487 87.6435L142.438 87.6218L142.384 87.6018L142.331 87.5901C142.312 87.5857 142.294 87.5829 142.275 87.5818H142.22H128.873L142.294 72.7213C142.657 72.3431 142.892 71.8614 142.966 71.3437L142.965 71.3387ZM141.735 70.2668C141.855 70.5503 141.892 70.8616 141.843 71.1651C141.802 71.4588 141.667 71.732 141.459 71.9448L141.448 71.9582L127.172 87.7654C127.16 87.7791 127.148 87.7936 127.137 87.8088C127.127 87.8245 127.117 87.8396 127.105 87.8539C127.105 87.8706 127.088 87.8857 127.08 87.904C127.072 87.9203 127.065 87.937 127.06 87.9541C127.052 87.9714 127.047 87.9893 127.043 88.0075C127.043 88.0259 127.043 88.0443 127.033 88.061C127.023 88.0777 127.033 88.0977 127.033 88.1177C127.034 88.1545 127.037 88.1913 127.041 88.2279C127.041 88.2446 127.041 88.263 127.051 88.2814C127.056 88.2995 127.061 88.3173 127.068 88.3348C127.068 88.3532 127.083 88.3682 127.09 88.3866L127.117 88.435L127.147 88.4801C127.157 88.4955 127.17 88.5095 127.184 88.5218C127.196 88.5364 127.209 88.5498 127.223 88.5619C127.248 88.5843 127.276 88.6044 127.305 88.622C127.335 88.6402 127.367 88.6559 127.399 88.6687C127.431 88.681 127.465 88.6899 127.498 88.6955C127.533 88.703 127.568 88.7064 127.603 88.7055H141.655V91.8779H122.72C122.414 91.8786 122.115 91.7878 121.861 91.6175C121.596 91.4472 121.387 91.2049 121.257 90.9195C121.258 90.9157 121.258 90.9117 121.257 90.9078C121.124 90.6406 121.08 90.3383 121.131 90.0446C121.18 89.7435 121.315 89.4625 121.52 89.2348L135.827 73.4276C135.84 73.4145 135.852 73.4005 135.862 73.3858C135.874 73.371 135.884 73.3554 135.893 73.3391L135.919 73.2906C135.919 73.2723 135.933 73.2556 135.94 73.2389C135.947 73.2219 135.952 73.2039 135.955 73.1854C135.955 73.1687 135.955 73.1487 135.968 73.132C135.982 73.1153 135.968 73.0953 135.968 73.0769V73.0201C135.97 73.0024 135.97 72.9845 135.968 72.9667C135.968 72.9483 135.968 72.93 135.956 72.9116C135.952 72.8941 135.947 72.8768 135.941 72.8598C135.934 72.8422 135.927 72.8249 135.918 72.8081C135.911 72.791 135.903 72.7747 135.893 72.7597C135.882 72.7446 135.872 72.7279 135.862 72.7146L135.825 72.6712C135.813 72.657 135.8 72.6436 135.787 72.6311C135.76 72.609 135.732 72.589 135.702 72.571C135.673 72.5531 135.642 72.5375 135.61 72.5242C135.578 72.513 135.544 72.5041 135.511 72.4975C135.477 72.4901 135.442 72.4868 135.406 72.4875H121.304V69.315H140.272C140.579 69.3146 140.879 69.4053 141.133 69.5755C141.394 69.747 141.603 69.9868 141.735 70.2684V70.2668Z" fill="#131313"/>
<path fill-rule="evenodd" clip-rule="evenodd" d="M98.4834 36.298C94.4672 37.5937 90.049 39.3653 85.1162 41.571C66.3469 49.9613 56.429 40.4373 56.281 40.287C62.191 46.6636 77.9095 53.3559 93.7003 45.3379C92.1364 47.3148 90.3127 49.0747 88.278 50.5708C78.2795 52.8533 71.9491 50.4455 71.9491 50.4455C74.423 51.7813 78.5267 53.2223 84.4535 52.9318C78.6711 55.8865 72.0369 56.7639 65.677 55.4149C59.3171 54.0659 53.6232 50.5738 49.5618 45.5311C45.5003 40.4884 43.3215 34.2058 43.395 27.7497C43.4686 21.2935 45.79 15.0615 49.9653 10.1113C54.1406 5.16111 59.9125 1.79769 66.3016 0.591878C72.6906 -0.613932 79.303 0.412156 85.0167 3.496C90.7304 6.57984 95.1932 11.5314 97.6479 17.5105C100.103 23.4895 100.398 30.1275 98.4834 36.298ZM70.3126 6.01099C67.3693 6.00734 64.4657 6.68632 61.8335 7.99384C59.2012 9.30135 56.913 11.2012 55.1511 13.5421C53.3893 15.8829 52.2026 18.6 51.6856 21.4767C51.1687 24.3534 51.3357 27.3102 52.1734 30.1115C53.0111 32.9128 54.4963 35.4811 56.5107 37.6117C58.5251 39.7423 61.013 41.3763 63.776 42.3834C66.539 43.3905 69.5008 43.743 72.4253 43.4126C75.3498 43.0823 78.1561 42.0783 80.6206 40.4807C78.3094 41.3166 75.8418 41.6398 73.3913 41.4276C70.9407 41.2155 68.5668 40.473 66.4361 39.2526C64.3055 38.0321 62.47 36.3632 61.0586 34.3632C59.6471 32.3631 58.694 30.0804 58.2662 27.6755C57.8384 25.2707 57.9463 22.8019 58.5823 20.4429C59.2183 18.0838 60.3669 15.8917 61.9476 14.0205C63.5282 12.1493 65.5024 10.6445 67.7315 9.61184C69.9606 8.57917 72.3904 8.04369 74.8502 8.04304C76.8181 8.03748 78.7715 8.37662 80.6206 9.04487C77.5575 7.05434 73.9736 5.99951 70.3126 6.01099ZM86.2077 31.6762C87.6844 29.4451 88.4675 26.8322 88.4597 24.1625C88.4597 20.5104 86.9984 17.0079 84.3972 14.4255C81.796 11.8431 78.2681 10.3923 74.5895 10.3923C70.911 10.3923 67.383 11.8431 64.7819 14.4255C62.1807 17.0079 60.7194 20.5104 60.7194 24.1625C60.7114 26.8324 61.4952 29.4456 62.9731 31.6762C62.3552 29.9925 62.1163 28.1948 62.2731 26.4096C62.4298 24.6244 62.9785 22.8949 63.8805 21.3427C64.7824 19.7905 66.0159 18.4532 67.4941 17.4249C68.9723 16.3965 70.6595 15.702 72.4369 15.3902C74.2144 15.0784 76.0391 15.1568 77.7828 15.62C79.5265 16.0831 81.1468 16.9198 82.53 18.0711C83.9131 19.2224 85.0256 20.6605 85.7891 22.2843C86.5526 23.9081 86.9486 25.6782 86.9494 27.4702C86.9531 28.9046 86.7021 30.3284 86.2077 31.6762Z" fill="#1ADDD0"/>
</g>
<defs>
<clipPath id="clip0_14_44">
<rect width="143" height="93" fill="white"/>
</clipPath>
</defs>
</svg>
