<svg width="21" height="16" viewBox="0 0 21 16" fill="none" xmlns="http://www.w3.org/2000/svg">
<path d="M4.35378 15.5035L18.1639 1.87338C18.5491 1.49316 18.5491 0.87673 18.1639 0.496517C17.7787 0.116314 17.1541 0.116314 16.7688 0.496517L2.95875 14.1267C2.57352 14.5069 2.57352 15.1233 2.95875 15.5035C3.34398 15.8837 3.96855 15.8837 4.35378 15.5035Z" fill="#11111F"/>
<path d="M10.5613 1.18494C11.7461 1.18494 12.9228 1.3929 14.0495 1.8035L12.4718 3.36072C11.839 3.20775 11.1984 3.1321 10.5613 3.1321C7.6742 3.1321 4.71039 4.68608 2.76032 7.95007C3.40602 9.06969 4.17097 9.99196 5.01209 10.7232L3.61528 12.1018C2.55803 11.1622 1.61905 9.9832 0.855077 8.57209C0.641336 8.1773 0.644059 7.69275 0.864685 7.29972C3.12158 3.27995 6.80079 1.18494 10.5613 1.18494Z" fill="#11111F"/>
<path d="M10.5613 5.07928C10.6165 5.07928 10.6715 5.08078 10.726 5.08373L7.6065 8.16262C7.60351 8.10878 7.60199 8.05455 7.60199 8.00003C7.60199 6.3869 8.92687 5.07928 10.5613 5.07928Z" fill="#11111F"/>
<path d="M13.5161 7.83746L10.3966 10.9163C10.4511 10.9193 10.5061 10.9208 10.5613 10.9208C12.1957 10.9208 13.5206 9.61318 13.5206 8.00005C13.5206 7.94553 13.5191 7.8913 13.5161 7.83746Z" fill="#11111F"/>
<path d="M10.5613 12.8679C9.92507 12.8679 9.28497 12.7916 8.65296 12.6372L7.0773 14.1924C8.20189 14.6057 9.3774 14.8151 10.5613 14.8151C14.3465 14.8151 18.0466 12.6745 20.2675 8.57208C20.4813 8.1773 20.4785 7.69275 20.258 7.29971C19.4928 5.93688 18.5641 4.79527 17.5243 3.88153L16.1269 5.26069C16.9571 5.97278 17.7154 6.86734 18.3623 7.95006C16.44 11.2833 13.4605 12.8679 10.5613 12.8679Z" fill="#11111F"/>
</svg>
