<svg width="48" height="36" viewBox="0 0 48 36" fill="none" xmlns="http://www.w3.org/2000/svg">
<path d="M44.5954 1.05078H4.24448C2.68452 1.05078 1.41992 2.42829 1.41992 4.12752V32.2577C1.41992 33.957 2.68452 35.3345 4.24448 35.3345H44.5954C46.1553 35.3345 47.4199 33.957 47.4199 32.2577V4.12752C47.4199 2.42829 46.1553 1.05078 44.5954 1.05078Z" fill="white" stroke="#F3F3F3" stroke-width="1.03448"/>
<path fill-rule="evenodd" clip-rule="evenodd" d="M24.2225 18.4178L24.4444 17.0039L23.95 16.9923H21.5889L23.2297 6.55819C23.2348 6.5266 23.2514 6.49728 23.2755 6.47641C23.2998 6.45554 23.3307 6.44409 23.363 6.44409H27.3443C28.6661 6.44409 29.5782 6.71987 30.0544 7.26427C30.2777 7.51967 30.4198 7.78661 30.4887 8.08028C30.5608 8.38849 30.5621 8.75667 30.4916 9.20581L30.4865 9.23848V9.52633L30.7098 9.65318C30.8978 9.75322 31.0472 9.86767 31.1618 9.99865C31.3528 10.2171 31.4763 10.4947 31.5285 10.8237C31.5825 11.162 31.5646 11.5648 31.4763 12.0207C31.3744 12.5451 31.2098 13.0018 30.9873 13.3755C30.7828 13.7198 30.5222 14.0055 30.2127 14.2268C29.9173 14.4372 29.5663 14.5968 29.1695 14.6989C28.7848 14.7993 28.3464 14.85 27.8655 14.85H27.5556C27.3342 14.85 27.119 14.9301 26.95 15.0734C26.7806 15.2199 26.6687 15.42 26.6343 15.6387L26.6109 15.766L26.2187 18.2583L26.2009 18.3497C26.1962 18.3787 26.1881 18.3931 26.1762 18.4029C26.1657 18.4119 26.1504 18.4178 26.1355 18.4178H24.2225Z" fill="#28356A"/>
<path fill-rule="evenodd" clip-rule="evenodd" d="M30.9206 9.27173C30.9088 9.34792 30.8952 9.42573 30.8799 9.50582C30.3549 12.2092 28.5586 13.1431 26.2645 13.1431H25.0964C24.8158 13.1431 24.5793 13.3473 24.5357 13.6249L23.7683 18.5068C23.7399 18.6891 23.88 18.8532 24.0632 18.8532H26.135C26.3803 18.8532 26.5887 18.6745 26.6274 18.4319L26.6477 18.3264L27.0377 15.8439L27.0629 15.7077C27.101 15.4642 27.3099 15.2854 27.5552 15.2854H27.865C29.8722 15.2854 31.4436 14.4682 31.9029 12.1032C32.0946 11.1152 31.9953 10.2903 31.4877 9.71011C31.3341 9.53526 31.1435 9.39 30.9206 9.27173Z" fill="#298FC2"/>
<path fill-rule="evenodd" clip-rule="evenodd" d="M30.3718 9.05202C30.2916 9.02853 30.2089 9.00731 30.1239 8.98811C30.0386 8.9694 29.9512 8.95282 29.8612 8.93828C29.5463 8.88725 29.2012 8.86304 28.8315 8.86304H25.711C25.6341 8.86304 25.5611 8.88045 25.4958 8.91192C25.3518 8.98132 25.2449 9.11796 25.2191 9.28524L24.5552 13.5019L24.5361 13.6248C24.5798 13.3473 24.8163 13.143 25.0968 13.143H26.2649C28.559 13.143 30.3553 12.2086 30.8804 9.50565C30.896 9.42566 30.9092 9.34783 30.921 9.27164C30.7882 9.20093 30.6443 9.14049 30.4895 9.08898C30.4511 9.07622 30.4117 9.06394 30.3718 9.05202Z" fill="#22284F"/>
<path fill-rule="evenodd" clip-rule="evenodd" d="M25.2184 9.28544C25.2443 9.11817 25.3511 8.98153 25.4951 8.91261C25.5608 8.88102 25.6334 8.86361 25.7103 8.86361H28.8308C29.2005 8.86361 29.5456 8.88794 29.8605 8.93897C29.9505 8.95339 30.0379 8.97009 30.1232 8.9888C30.2081 9.00788 30.2908 9.02922 30.3711 9.05259C30.4109 9.06452 30.4504 9.07691 30.4891 9.08919C30.644 9.14071 30.788 9.20162 30.9208 9.27185C31.077 8.27283 30.9195 7.59263 30.3809 6.97668C29.7871 6.29851 28.7154 6.0083 27.3439 6.0083H23.3626C23.0825 6.0083 22.8436 6.21254 22.8002 6.49058L21.1419 17.032C21.1092 17.2405 21.2697 17.4287 21.4794 17.4287H23.9373L25.2184 9.28544Z" fill="#28356A"/>
<path fill-rule="evenodd" clip-rule="evenodd" d="M12.4917 21.2876H9.5889C9.39023 21.2876 9.22129 21.4323 9.19026 21.629L8.01622 29.0937C7.99292 29.2412 8.1067 29.3738 8.25567 29.3738H9.64144C9.84007 29.3738 10.009 29.2292 10.0401 29.0321L10.3567 27.0187C10.3872 26.8216 10.5565 26.6769 10.7548 26.6769H11.6737C13.5859 26.6769 14.6894 25.7489 14.9777 23.9101C15.1075 23.1056 14.9831 22.4735 14.6074 22.0308C14.1949 21.5447 13.4631 21.2876 12.4917 21.2876ZM12.8265 24.014C12.6678 25.0585 11.8719 25.0585 11.1025 25.0585H10.6644L10.9717 23.1077C10.99 22.9898 11.0918 22.903 11.2107 22.903H11.4115C11.9357 22.903 12.4302 22.903 12.6856 23.2026C12.838 23.3814 12.8846 23.647 12.8265 24.014Z" fill="#28356A"/>
<path fill-rule="evenodd" clip-rule="evenodd" d="M21.2427 23.9239H19.8526C19.7342 23.9239 19.6318 24.0107 19.6136 24.1286L19.5521 24.5185L19.4549 24.3772C19.154 23.9392 18.4829 23.7927 17.8132 23.7927C16.277 23.7927 14.9651 24.9595 14.7095 26.5962C14.5767 27.4126 14.7655 28.1933 15.2274 28.7377C15.651 29.2382 16.2571 29.4468 16.9782 29.4468C18.216 29.4468 18.9022 28.6487 18.9022 28.6487L18.8403 29.0361C18.817 29.1841 18.9307 29.317 19.0789 29.317H20.3309C20.53 29.317 20.6981 29.1723 20.7296 28.9752L21.4808 24.204C21.5046 24.0571 21.3912 23.9239 21.2427 23.9239ZM19.305 26.6371C19.1709 27.4334 18.5407 27.968 17.7367 27.968C17.3331 27.968 17.0106 27.8382 16.8033 27.5922C16.5979 27.3479 16.5199 27.0002 16.5851 26.6128C16.7105 25.8232 17.3513 25.2711 18.143 25.2711C18.5377 25.2711 18.8586 25.4027 19.07 25.6507C19.2817 25.9014 19.3658 26.2514 19.305 26.6371Z" fill="#28356A"/>
<path fill-rule="evenodd" clip-rule="evenodd" d="M28.539 24.0432H27.1421C27.0088 24.0432 26.8836 24.1097 26.8081 24.2208L24.8815 27.0667L24.0648 24.3318C24.0135 24.1607 23.856 24.0432 23.6778 24.0432H22.3052C22.1382 24.0432 22.0225 24.2067 22.0755 24.3642L23.6141 28.8923L22.1676 30.9402C22.0539 31.1015 22.1684 31.3233 22.365 31.3233H23.7601C23.8926 31.3233 24.0165 31.2585 24.0916 31.1497L28.7376 24.4242C28.8489 24.2633 28.7346 24.0432 28.539 24.0432Z" fill="#28356A"/>
<path fill-rule="evenodd" clip-rule="evenodd" d="M33.1957 21.2876H30.2925C30.0943 21.2876 29.9253 21.4323 29.8943 21.629L28.7203 29.0937C28.697 29.2412 28.8108 29.3738 28.9589 29.3738H30.4487C30.587 29.3738 30.7054 29.2726 30.7271 29.1347L31.0603 27.0187C31.0908 26.8216 31.2603 26.6769 31.4584 26.6769H32.377C34.2895 26.6769 35.3926 25.7489 35.6813 23.9101C35.8116 23.1056 35.6864 22.4735 35.3107 22.0308C34.8985 21.5447 34.1672 21.2876 33.1957 21.2876ZM33.5306 24.014C33.3723 25.0585 32.5764 25.0585 31.8065 25.0585H31.369L31.6766 23.1077C31.6948 22.9898 31.7958 22.903 31.9151 22.903H32.1159C32.6396 22.903 33.1346 22.903 33.39 23.2026C33.5425 23.3814 33.5887 23.647 33.5306 24.014Z" fill="#298FC2"/>
<path fill-rule="evenodd" clip-rule="evenodd" d="M41.9454 23.9239H40.5561C40.4369 23.9239 40.3354 24.0107 40.3176 24.1286L40.2561 24.5185L40.1584 24.3772C39.8575 23.9392 39.1868 23.7927 38.517 23.7927C36.981 23.7927 35.6695 24.9595 35.4141 26.5962C35.2816 27.4126 35.4695 28.1933 35.9313 28.7377C36.3559 29.2382 36.961 29.4468 37.6822 29.4468C38.9199 29.4468 39.6062 28.6487 39.6062 28.6487L39.5443 29.0361C39.521 29.1841 39.6346 29.317 39.7836 29.317H41.0354C41.2336 29.317 41.4025 29.1723 41.4335 28.9752L42.1852 24.204C42.2081 24.0571 42.0943 23.9239 41.9454 23.9239ZM40.0078 26.6371C39.8745 27.4334 39.2434 27.968 38.4394 27.968C38.0366 27.968 37.7133 27.8382 37.506 27.5922C37.3007 27.3479 37.2234 27.0002 37.2878 26.6128C37.4139 25.8232 38.054 25.2711 38.8457 25.2711C39.2404 25.2711 39.5612 25.4027 39.7727 25.6507C39.9852 25.9014 40.0693 26.2514 40.0078 26.6371Z" fill="#298FC2"/>
<path fill-rule="evenodd" clip-rule="evenodd" d="M43.4679 21.4928L42.2765 29.0941C42.2532 29.2415 42.3668 29.3742 42.515 29.3742H43.7128C43.9119 29.3742 44.0808 29.2295 44.1113 29.0325L45.2861 21.5681C45.3096 21.4208 45.1958 21.2876 45.0477 21.2876H43.7065C43.588 21.2879 43.4862 21.3749 43.4679 21.4928Z" fill="#298FC2"/>
</svg>
