<svg width="21" height="21" viewBox="0 0 21 21" fill="none" xmlns="http://www.w3.org/2000/svg">
<path d="M8.85303 10.4297C8.85303 11.4634 9.69428 12.3047 10.728 12.3047C11.7618 12.3047 12.603 11.4634 12.603 10.4297C12.603 9.39594 11.7618 8.55469 10.728 8.55469C9.69428 8.55469 8.85303 9.39594 8.85303 10.4297Z" fill="white"/>
<path d="M8.85303 16.6797C8.85303 17.7134 9.69428 18.5547 10.728 18.5547C11.7618 18.5547 12.603 17.7134 12.603 16.6797C12.603 15.6459 11.7618 14.8047 10.728 14.8047C9.69428 14.8047 8.85303 15.6459 8.85303 16.6797Z" fill="white"/>
<path d="M8.85303 4.17969C8.85303 5.21344 9.69428 6.05469 10.728 6.05469C11.7618 6.05469 12.603 5.21344 12.603 4.17969C12.603 3.14594 11.7618 2.30469 10.728 2.30469C9.69428 2.30469 8.85303 3.14594 8.85303 4.17969Z" fill="white"/>
</svg>
