<svg width="17" height="16" viewBox="0 0 17 16" fill="none" xmlns="http://www.w3.org/2000/svg">
<path d="M7.16264 0C3.49086 0 0.5 2.99086 0.5 6.66264C0.5 10.3344 3.49086 13.3253 7.16264 13.3253C8.75935 13.3253 10.2257 12.7583 11.3749 11.8171L15.353 15.7951C15.4144 15.8591 15.4879 15.9101 15.5693 15.9453C15.6507 15.9805 15.7382 15.9991 15.8269 16C15.9155 16.0009 16.0035 15.9841 16.0855 15.9506C16.1676 15.9171 16.2422 15.8675 16.3048 15.8048C16.3675 15.7422 16.4171 15.6676 16.4506 15.5855C16.4841 15.5035 16.5009 15.4155 16.5 15.3269C16.4991 15.2382 16.4805 15.1507 16.4453 15.0693C16.4101 14.9879 16.3591 14.9144 16.2951 14.853L12.3171 10.8749C13.2583 9.72572 13.8253 8.25935 13.8253 6.66264C13.8253 2.99086 10.8344 0 7.16264 0ZM7.16264 1.33253C10.1143 1.33253 12.4928 3.71101 12.4928 6.66264C12.4928 9.61428 10.1143 11.9928 7.16264 11.9928C4.21101 11.9928 1.83253 9.61428 1.83253 6.66264C1.83253 3.71101 4.21101 1.33253 7.16264 1.33253Z" fill="#9098B1"/>
</svg>
