<svg width="21" height="27" viewBox="0 0 21 27" fill="none" xmlns="http://www.w3.org/2000/svg">
<path d="M17.8433 26.6154H2.66686C1.27569 26.6154 0.137451 25.4999 0.137451 24.1366V3.06681C0.137451 1.70347 1.27569 0.588013 2.66686 0.588013H12.9742C13.6698 0.588013 14.3022 0.835892 14.7448 1.33165L19.6139 6.10333C20.1198 6.59909 20.3727 7.21879 20.3727 7.83849V24.1366C20.3727 25.4999 19.2345 26.6154 17.8433 26.6154Z" fill="#E2FFFC"/>
<path d="M15.314 19.1763H5.19635C4.50076 19.1763 3.93164 18.6071 3.93164 17.9116V10.3233C3.93164 9.62773 4.50076 9.05861 5.19635 9.05861H15.314C16.0096 9.05861 16.5787 9.62773 16.5787 10.3233V17.9116C16.5787 18.6071 16.0096 19.1763 15.314 19.1763Z" fill="#FF9800"/>
<path d="M12.7255 13.8685V15.9369H15.1961V17.3158H12.7255V19.3842H11.7373V8.35272H12.7255V12.4895H15.1961V13.8685H12.7255ZM5.31372 13.179V14.5579H7.78431V15.9369H5.31372V17.3158H7.78431V19.3842H8.77254V13.179H5.31372Z" fill="#FFD54F"/>
</svg>
