<svg width="53" height="68" viewBox="0 0 53 68" fill="none" xmlns="http://www.w3.org/2000/svg">
<path d="M46.0067 67.5734H6.90763C3.32355 67.5734 0.391113 64.6996 0.391113 61.1873V6.90525C0.391113 3.39289 3.32355 0.519135 6.90763 0.519135H33.4624C35.2545 0.519135 36.8836 1.15775 38.024 2.43497L50.5683 14.7282C51.8716 16.0055 52.5233 17.602 52.5233 19.1985V61.1873C52.5233 64.6996 49.5908 67.5734 46.0067 67.5734Z" fill="#009688"/>
<path d="M39.4903 48.408H13.4243C11.6322 48.408 10.166 46.9418 10.166 45.1497V25.6002C10.166 23.8081 11.6322 22.3419 13.4243 22.3419H39.4903C41.2824 22.3419 42.7486 23.8081 42.7486 25.6002V45.1497C42.7486 46.9418 41.2824 48.408 39.4903 48.408Z" fill="#FF9800"/>
<path d="M32.822 34.7335V40.0623H39.1869V43.6149H32.822V48.9437H30.276V20.5233H32.822V31.181H39.1869V34.7335H32.822ZM13.7271 32.9572V36.5098H20.092V40.0623H13.7271V43.6149H20.092V48.9437H22.638V32.9572H13.7271Z" fill="#FFD54F"/>
</svg>
