<svg width="30" height="32" viewBox="0 0 30 32" fill="none" xmlns="http://www.w3.org/2000/svg">
<path d="M3 0V4.875L0 10.2083V10.6667C0 12.8594 1.35547 14.6667 3 14.6667V32H19V20H21V32H27V14.6667C28.6445 14.6667 30 12.8594 30 10.6667V10.2083L27 4.875V0H3ZM5 2.66667H25V4H5V2.66667ZM4.5 6.66667H25.5L27.9062 10.9583C27.7969 11.5365 27.4688 12 27 12C26.4453 12 26 11.4063 26 10.6667H24C24 11.4063 23.5547 12 23 12C22.4453 12 22 11.4063 22 10.6667H20C20 11.4063 19.5547 12 19 12C18.4453 12 18 11.4063 18 10.6667H16C16 11.4063 15.5547 12 15 12C14.4453 12 14 11.4063 14 10.6667H12C12 11.4063 11.5547 12 11 12C10.4453 12 10 11.4063 10 10.6667H8C8 11.4063 7.55469 12 7 12C6.44531 12 6 11.4063 6 10.6667H4C4 11.4063 3.55469 12 3 12C2.53125 12 2.20312 11.5365 2.09375 10.9583L4.5 6.66667ZM5 13.625C5.53125 14.2656 6.23438 14.6667 7 14.6667C7.76562 14.6667 8.46875 14.2656 9 13.625C9.53125 14.2656 10.2344 14.6667 11 14.6667C11.7656 14.6667 12.4688 14.2656 13 13.625C13.5312 14.2656 14.2344 14.6667 15 14.6667C15.7656 14.6667 16.4688 14.2656 17 13.625C17.5312 14.2656 18.2344 14.6667 19 14.6667C19.7656 14.6667 20.4688 14.2656 21 13.625C21.5312 14.2656 22.2344 14.6667 23 14.6667C23.7656 14.6667 24.4688 14.2656 25 13.625V29.3333H23V17.3333H17V29.3333H5V13.625ZM7 17.3333V26.6667H15V17.3333H7ZM9 20H13V24H9V20Z" fill="black"/>
</svg>
