<svg width="24" height="26" viewBox="0 0 24 26" fill="none" xmlns="http://www.w3.org/2000/svg">
<path d="M19.6736 2.81081H17.7448V1.05405C17.7448 0.774505 17.6229 0.506396 17.4058 0.308725C17.1889 0.111055 16.8944 0 16.5875 0C16.2806 0 15.9862 0.111055 15.7693 0.308725C15.5522 0.506396 15.4303 0.774505 15.4303 1.05405V2.81081H8.48665V1.05405C8.48665 0.774505 8.36472 0.506396 8.14769 0.308725C7.93066 0.111055 7.6363 0 7.32938 0C7.02245 0 6.72809 0.111055 6.51106 0.308725C6.29404 0.506396 6.17211 0.774505 6.17211 1.05405V2.81081H4.24332C3.11792 2.81081 2.03862 3.218 1.24285 3.94281C0.447061 4.6676 0 5.65064 0 6.67568V22.1351C0 23.1601 0.447061 24.1432 1.24285 24.8679C2.03862 25.5929 3.11792 26 4.24332 26H19.6736C20.7989 26 21.8783 25.5929 22.674 24.8679C23.4699 24.1432 23.9169 23.1601 23.9169 22.1351V6.67568C23.9169 5.65064 23.4699 4.6676 22.674 3.94281C21.8783 3.218 20.7989 2.81081 19.6736 2.81081ZM4.24332 4.91892H6.17211V6.67568C6.17211 6.95522 6.29404 7.22333 6.51106 7.421C6.72809 7.61867 7.02245 7.72973 7.32938 7.72973C7.6363 7.72973 7.93066 7.61867 8.14769 7.421C8.36472 7.22333 8.48665 6.95522 8.48665 6.67568V4.91892H15.4303V6.67568C15.4303 6.95522 15.5522 7.22333 15.7693 7.421C15.9862 7.61867 16.2806 7.72973 16.5875 7.72973C16.8944 7.72973 17.1889 7.61867 17.4058 7.421C17.6229 7.22333 17.7448 6.95522 17.7448 6.67568V4.91892H19.6736C20.1851 4.91892 20.6758 5.10401 21.0375 5.43347C21.3992 5.76292 21.6024 6.20976 21.6024 6.67568V10.5405H2.31454V6.67568C2.31454 6.20976 2.51776 5.76292 2.87947 5.43347C3.24119 5.10401 3.73178 4.91892 4.24332 4.91892ZM19.6736 23.8919H4.24332C3.73178 23.8919 3.24119 23.7068 2.87947 23.3774C2.51776 23.0479 2.31454 22.601 2.31454 22.1351V12.6486H21.6024V22.1351C21.6024 22.601 21.3992 23.0479 21.0375 23.3774C20.6758 23.7068 20.1851 23.8919 19.6736 23.8919Z" fill="white"/>
</svg>
