<svg width="43" height="30" viewBox="0 0 43 30" fill="none" xmlns="http://www.w3.org/2000/svg">
<path d="M40.7314 0.537964H2.76471C1.51287 0.537964 0.498047 1.62679 0.498047 2.96993V26.7424C0.498047 28.0855 1.51287 29.1743 2.76471 29.1743H40.7314C41.9832 29.1743 42.998 28.0855 42.998 26.7424V2.96993C42.998 1.62679 41.9832 0.537964 40.7314 0.537964Z" fill="#0E4595"/>
<path d="M16.2627 20.8587L18.1532 8.95654H21.1768L19.2851 20.8587H16.2627Z" fill="white"/>
<path d="M30.2086 9.21321C29.6096 8.97208 28.6709 8.71332 27.4987 8.71332C24.511 8.71332 22.4064 10.3276 22.3885 12.6412C22.3716 14.3514 23.8909 15.3055 25.0379 15.8748C26.2148 16.4581 26.6105 16.8302 26.6049 17.3512C26.5974 18.149 25.665 18.5135 24.7959 18.5135C23.5857 18.5135 22.9427 18.3331 21.9498 17.8887L21.5601 17.6995L21.1357 20.3639C21.842 20.6961 23.1479 20.984 24.5039 20.9989C27.6823 20.9989 29.7456 19.4031 29.7691 16.9326C29.7805 15.5786 28.9749 14.5482 27.2305 13.6988C26.1736 13.1482 25.5263 12.7808 25.5332 12.2232C25.5332 11.7285 26.081 11.1995 27.2648 11.1995C28.2535 11.183 28.9697 11.4144 29.5278 11.6555L29.7988 11.7929L30.2086 9.21321Z" fill="white"/>
<path d="M37.9894 8.95654H35.653C34.9292 8.95654 34.3876 9.16849 34.0697 9.94355L29.5791 20.8511H32.7542C32.7542 20.8511 33.2734 19.3845 33.3908 19.0625C33.7378 19.0625 36.8222 19.0676 37.2632 19.0676C37.3536 19.4843 37.631 20.8511 37.631 20.8511H40.4367L37.9894 8.95654ZM34.2824 16.642C34.5325 15.9562 35.4871 13.3149 35.4871 13.3149C35.4693 13.3465 35.7353 12.6258 35.888 12.1789L36.0924 13.2051C36.0924 13.2051 36.6714 16.0461 36.7924 16.6419H34.2824V16.642Z" fill="white"/>
<path d="M3.09771 8.95648L3.05908 9.20419C4.25424 9.5146 5.32174 9.96378 6.25632 10.5227L8.93924 20.8397L12.1384 20.8357L16.8986 8.95648H13.6957L10.7354 17.0729L10.42 15.4235C10.4054 15.3732 10.3896 15.3226 10.3734 15.2721L9.34399 9.96133C9.16096 9.20766 8.63008 8.98275 7.97337 8.95648H3.09771Z" fill="white"/>
</svg>
