<svg width="24" height="23" viewBox="0 0 24 23" fill="none" xmlns="http://www.w3.org/2000/svg">
<path d="M0.27607 21.3168C0.440328 21.5746 0.669323 21.7848 0.940204 21.9264C1.21108 22.0681 1.51438 22.1362 1.81982 22.124H22.2084C22.5141 22.1364 22.8178 22.0683 23.089 21.9267C23.3602 21.785 23.5896 21.5747 23.7542 21.3168C23.9111 21.0566 23.9943 20.7586 23.9949 20.4547C23.9954 20.1508 23.9133 19.8525 23.7573 19.5918L13.5782 1.11051C13.4153 0.846886 13.1877 0.629284 12.9171 0.478367C12.6464 0.327451 12.3417 0.24823 12.0318 0.24823C11.7219 0.24823 11.4172 0.327451 11.1465 0.478367C10.8759 0.629284 10.6483 0.846886 10.4854 1.11051L0.277112 19.5918C0.120093 19.852 0.0371094 20.1503 0.0371094 20.4543C0.0371094 20.7582 0.119051 21.0565 0.27607 21.3168ZM1.17086 20.1261L11.4 1.61259C11.4697 1.51069 11.5638 1.42786 11.6737 1.37164C11.7836 1.31542 11.9058 1.2876 12.0292 1.29071C12.1598 1.28882 12.2887 1.3206 12.4035 1.383C12.5182 1.4454 12.615 1.53631 12.6844 1.64696L22.8417 20.0928C22.9088 20.1946 22.9461 20.3132 22.9492 20.4351C22.9523 20.5569 22.9212 20.6773 22.8594 20.7824C22.7841 20.8826 22.6851 20.9624 22.5713 21.0148C22.4574 21.0672 22.3324 21.0904 22.2073 21.0824H1.82086C1.69649 21.0903 1.57209 21.0672 1.45883 21.0152C1.34557 20.9632 1.24698 20.8839 1.1719 20.7845C1.11106 20.6855 1.07877 20.5716 1.07859 20.4554C1.0784 20.3393 1.11034 20.2253 1.17086 20.1261ZM12.5417 14.8324H11.5V7.54071H12.5417V14.8324ZM10.9792 17.4365C10.9792 17.2305 11.0403 17.0291 11.1547 16.8578C11.2692 16.6865 11.4319 16.553 11.6222 16.4742C11.8126 16.3953 12.022 16.3747 12.2241 16.4149C12.4261 16.4551 12.6118 16.5543 12.7574 16.7C12.9031 16.8457 13.0023 17.0313 13.0425 17.2333C13.0827 17.4354 13.0621 17.6448 12.9832 17.8352C12.9044 18.0255 12.7709 18.1882 12.5996 18.3027C12.4283 18.4171 12.2269 18.4782 12.0209 18.4782C11.7448 18.4777 11.4801 18.3677 11.2849 18.1725C11.0897 17.9773 10.9797 17.7126 10.9792 17.4365Z" fill="#11111F"/>
</svg>
